<mxfile host="65bd71144e">
    <diagram id="i7FrYSvYAKQDUFs-NT6Z" name="Page-1">
        <mxGraphModel dx="622" dy="515" grid="1" gridSize="10" guides="1" tooltips="1" connect="1" arrows="1" fold="1" page="1" pageScale="1" pageWidth="827" pageHeight="1169" math="0" shadow="0">
            <root>
                <mxCell id="0"/>
                <mxCell id="1" parent="0"/>
                <mxCell id="2" value="&lt;meta charset=&quot;utf-8&quot; style=&quot;font-size: 19px;&quot;&gt;&lt;div style=&quot;color: rgb(0, 0, 0); background-color: rgb(255, 255, 255); font-family: menlo, monaco, &amp;quot;courier new&amp;quot;, monospace; font-weight: normal; font-size: 19px; line-height: 18px;&quot;&gt;&lt;div style=&quot;font-size: 19px;&quot;&gt;&lt;span style=&quot;color: rgb(0, 0, 0); font-size: 19px;&quot;&gt;ababcbacadefegdehijhklij&lt;/span&gt;&lt;/div&gt;&lt;/div&gt;" style="text;whiteSpace=wrap;html=1;strokeWidth=3;fontSize=19;" parent="1" vertex="1">
                    <mxGeometry x="134" y="110" width="280" height="30" as="geometry"/>
                </mxCell>
                <mxCell id="3" value="&lt;div style=&quot;background-color: rgb(255 , 255 , 255) ; font-family: &amp;#34;menlo&amp;#34; , &amp;#34;monaco&amp;#34; , &amp;#34;courier new&amp;#34; , monospace ; font-weight: normal ; font-size: 19px ; line-height: 18px&quot;&gt;&lt;div style=&quot;font-size: 19px&quot;&gt;&lt;span style=&quot;font-size: 19px&quot;&gt;&lt;font color=&quot;#ff3333&quot;&gt;ababcbaca&lt;/font&gt;&lt;/span&gt;&lt;span style=&quot;color: rgb(0 , 0 , 0) ; font-size: 19px&quot;&gt; &lt;/span&gt;&lt;span style=&quot;font-size: 19px&quot;&gt;&lt;font color=&quot;#3333ff&quot;&gt;defegde&amp;nbsp;&lt;/font&gt;&lt;/span&gt;hijhklij&lt;/div&gt;&lt;/div&gt;" style="text;whiteSpace=wrap;html=1;strokeWidth=3;fontSize=19;" parent="1" vertex="1">
                    <mxGeometry x="130" y="160" width="326" height="30" as="geometry"/>
                </mxCell>
                <mxCell id="4" value="&lt;div style=&quot;color: rgb(0 , 0 , 0) ; background-color: rgb(255 , 255 , 255) ; font-family: &amp;#34;menlo&amp;#34; , &amp;#34;monaco&amp;#34; , &amp;#34;courier new&amp;#34; , monospace ; font-weight: normal ; font-size: 19px ; line-height: 18px&quot;&gt;&lt;div style=&quot;font-size: 19px&quot;&gt;&lt;span style=&quot;color: rgb(0 , 0 , 0) ; font-size: 19px&quot;&gt;&amp;nbsp; &amp;nbsp;9&amp;nbsp; &amp;nbsp; &amp;nbsp; &amp;nbsp; 7&amp;nbsp; &amp;nbsp; &amp;nbsp;8&amp;nbsp; &amp;nbsp; &amp;nbsp;&amp;nbsp;&lt;/span&gt;&lt;/div&gt;&lt;/div&gt;" style="text;whiteSpace=wrap;html=1;strokeWidth=3;fontSize=19;" parent="1" vertex="1">
                    <mxGeometry x="134" y="210" width="280" height="30" as="geometry"/>
                </mxCell>
                <mxCell id="5" value="&lt;meta charset=&quot;utf-8&quot; style=&quot;font-size: 19px;&quot;&gt;&lt;div style=&quot;color: rgb(0, 0, 0); background-color: rgb(255, 255, 255); font-family: menlo, monaco, &amp;quot;courier new&amp;quot;, monospace; font-weight: normal; font-size: 19px; line-height: 18px;&quot;&gt;&lt;div style=&quot;font-size: 19px;&quot;&gt;&lt;span style=&quot;color: rgb(0, 0, 0); font-size: 19px;&quot;&gt;ababcbacadefegdehijhklij&lt;/span&gt;&lt;/div&gt;&lt;/div&gt;" style="text;whiteSpace=wrap;html=1;strokeWidth=3;fontSize=19;" parent="1" vertex="1">
                    <mxGeometry x="229" y="430" width="280" height="30" as="geometry"/>
                </mxCell>
                <mxCell id="6" value="start 0" style="text;html=1;strokeColor=#b85450;fillColor=#f8cecc;align=center;verticalAlign=middle;whiteSpace=wrap;rounded=0;fontSize=12;" parent="1" vertex="1">
                    <mxGeometry x="229" y="380" width="60" height="30" as="geometry"/>
                </mxCell>
                <mxCell id="7" value="end : ??" style="text;html=1;strokeColor=#b85450;fillColor=#f8cecc;align=center;verticalAlign=middle;whiteSpace=wrap;rounded=0;fontSize=12;" parent="1" vertex="1">
                    <mxGeometry x="339" y="380" width="60" height="30" as="geometry"/>
                </mxCell>
                <mxCell id="10" value="&lt;meta charset=&quot;utf-8&quot; style=&quot;font-size: 19px;&quot;&gt;&lt;div style=&quot;color: rgb(0, 0, 0); background-color: rgb(255, 255, 255); font-family: menlo, monaco, &amp;quot;courier new&amp;quot;, monospace; font-weight: normal; font-size: 19px; line-height: 18px;&quot;&gt;&lt;div style=&quot;font-size: 19px;&quot;&gt;&lt;span style=&quot;color: rgb(0, 0, 0); font-size: 19px;&quot;&gt;ababcbacadefegdehijhklij&lt;/span&gt;&lt;/div&gt;&lt;/div&gt;" style="text;whiteSpace=wrap;html=1;strokeWidth=3;fontSize=19;" parent="1" vertex="1">
                    <mxGeometry x="240" y="534" width="280" height="30" as="geometry"/>
                </mxCell>
                <mxCell id="11" value="" style="endArrow=classic;html=1;fontSize=12;fontColor=#000000;" parent="1" edge="1">
                    <mxGeometry width="50" height="50" relative="1" as="geometry">
                        <mxPoint x="249" y="594" as="sourcePoint"/>
                        <mxPoint x="249" y="564" as="targetPoint"/>
                    </mxGeometry>
                </mxCell>
                <mxCell id="12" value="where is the next occurrence of&amp;nbsp; &amp;nbsp;--&amp;gt; a" style="text;html=1;strokeColor=#b85450;fillColor=#f8cecc;align=center;verticalAlign=middle;whiteSpace=wrap;rounded=0;fontSize=12;" parent="1" vertex="1">
                    <mxGeometry x="220" y="604" width="220" height="30" as="geometry"/>
                </mxCell>
                <mxCell id="13" value="start 0" style="text;html=1;strokeColor=#b85450;fillColor=#f8cecc;align=center;verticalAlign=middle;whiteSpace=wrap;rounded=0;fontSize=12;" parent="1" vertex="1">
                    <mxGeometry x="230" y="504" width="60" height="30" as="geometry"/>
                </mxCell>
                <mxCell id="15" value="end : 8" style="text;html=1;strokeColor=#b85450;fillColor=#f8cecc;align=center;verticalAlign=middle;whiteSpace=wrap;rounded=0;fontSize=12;" parent="1" vertex="1">
                    <mxGeometry x="384" y="504" width="60" height="30" as="geometry"/>
                </mxCell>
                <mxCell id="16" value="" style="endArrow=classic;html=1;fontSize=12;fontColor=#000000;" parent="1" edge="1">
                    <mxGeometry width="50" height="50" relative="1" as="geometry">
                        <mxPoint x="337" y="593" as="sourcePoint"/>
                        <mxPoint x="337" y="563" as="targetPoint"/>
                    </mxGeometry>
                </mxCell>
                <mxCell id="17" value="&lt;meta charset=&quot;utf-8&quot; style=&quot;font-size: 19px;&quot;&gt;&lt;div style=&quot;color: rgb(0, 0, 0); background-color: rgb(255, 255, 255); font-family: menlo, monaco, &amp;quot;courier new&amp;quot;, monospace; font-weight: normal; font-size: 19px; line-height: 18px;&quot;&gt;&lt;div style=&quot;font-size: 19px;&quot;&gt;&lt;span style=&quot;color: rgb(0, 0, 0); font-size: 19px;&quot;&gt;ababcbacadefegdehijhklij&lt;/span&gt;&lt;/div&gt;&lt;/div&gt;" style="text;whiteSpace=wrap;html=1;strokeWidth=3;fontSize=19;" parent="1" vertex="1">
                    <mxGeometry x="240" y="710" width="280" height="30" as="geometry"/>
                </mxCell>
                <mxCell id="18" value="" style="endArrow=classic;html=1;fontSize=12;fontColor=#000000;" parent="1" edge="1">
                    <mxGeometry width="50" height="50" relative="1" as="geometry">
                        <mxPoint x="259" y="770" as="sourcePoint"/>
                        <mxPoint x="259" y="740" as="targetPoint"/>
                    </mxGeometry>
                </mxCell>
                <mxCell id="19" value="where is the next occurrence of&amp;nbsp; &amp;nbsp;--&amp;gt; b" style="text;html=1;strokeColor=#b85450;fillColor=#f8cecc;align=center;verticalAlign=middle;whiteSpace=wrap;rounded=0;fontSize=12;" parent="1" vertex="1">
                    <mxGeometry x="221" y="780" width="220" height="30" as="geometry"/>
                </mxCell>
                <mxCell id="20" value="start 0" style="text;html=1;strokeColor=#b85450;fillColor=#f8cecc;align=center;verticalAlign=middle;whiteSpace=wrap;rounded=0;fontSize=12;" parent="1" vertex="1">
                    <mxGeometry x="230" y="680" width="60" height="30" as="geometry"/>
                </mxCell>
                <mxCell id="21" value="end : 8" style="text;html=1;strokeColor=#b85450;fillColor=#f8cecc;align=center;verticalAlign=middle;whiteSpace=wrap;rounded=0;fontSize=12;" parent="1" vertex="1">
                    <mxGeometry x="384" y="680" width="60" height="30" as="geometry"/>
                </mxCell>
                <mxCell id="22" value="" style="endArrow=classic;html=1;fontSize=12;fontColor=#000000;" parent="1" edge="1">
                    <mxGeometry width="50" height="50" relative="1" as="geometry">
                        <mxPoint x="306" y="769" as="sourcePoint"/>
                        <mxPoint x="306" y="739" as="targetPoint"/>
                    </mxGeometry>
                </mxCell>
                <mxCell id="24" style="edgeStyle=none;html=1;entryX=1;entryY=0.5;entryDx=0;entryDy=0;fontSize=12;fontColor=#000000;" parent="1" source="23" target="15" edge="1">
                    <mxGeometry relative="1" as="geometry">
                        <Array as="points">
                            <mxPoint x="570" y="519"/>
                        </Array>
                    </mxGeometry>
                </mxCell>
                <mxCell id="23" value="answer: 8 , we update teh end pointer" style="text;html=1;strokeColor=#b85450;fillColor=#f8cecc;align=center;verticalAlign=middle;whiteSpace=wrap;rounded=0;fontSize=12;" parent="1" vertex="1">
                    <mxGeometry x="460" y="604" width="220" height="30" as="geometry"/>
                </mxCell>
                <mxCell id="25" value="answer: 5 , no need to update end pointer" style="text;html=1;strokeColor=#b85450;fillColor=#f8cecc;align=center;verticalAlign=middle;whiteSpace=wrap;rounded=0;fontSize=12;" parent="1" vertex="1">
                    <mxGeometry x="470" y="780" width="220" height="30" as="geometry"/>
                </mxCell>
                <mxCell id="26" value="&lt;meta charset=&quot;utf-8&quot; style=&quot;font-size: 19px;&quot;&gt;&lt;div style=&quot;color: rgb(0, 0, 0); background-color: rgb(255, 255, 255); font-family: menlo, monaco, &amp;quot;courier new&amp;quot;, monospace; font-weight: normal; font-size: 19px; line-height: 18px;&quot;&gt;&lt;div style=&quot;font-size: 19px;&quot;&gt;&lt;span style=&quot;color: rgb(0, 0, 0); font-size: 19px;&quot;&gt;ababcbacadefegdehijhklij&lt;/span&gt;&lt;/div&gt;&lt;/div&gt;" style="text;whiteSpace=wrap;html=1;strokeWidth=3;fontSize=19;" parent="1" vertex="1">
                    <mxGeometry x="240" y="890" width="280" height="30" as="geometry"/>
                </mxCell>
                <mxCell id="27" value="" style="endArrow=classic;html=1;fontSize=12;fontColor=#000000;" parent="1" edge="1">
                    <mxGeometry width="50" height="50" relative="1" as="geometry">
                        <mxPoint x="295" y="950" as="sourcePoint"/>
                        <mxPoint x="295" y="920" as="targetPoint"/>
                    </mxGeometry>
                </mxCell>
                <mxCell id="28" value="where is the next occurrence of&amp;nbsp; &amp;nbsp;--&amp;gt; c" style="text;html=1;strokeColor=#b85450;fillColor=#f8cecc;align=center;verticalAlign=middle;whiteSpace=wrap;rounded=0;fontSize=12;" parent="1" vertex="1">
                    <mxGeometry x="221" y="960" width="220" height="30" as="geometry"/>
                </mxCell>
                <mxCell id="29" value="start 0" style="text;html=1;strokeColor=#b85450;fillColor=#f8cecc;align=center;verticalAlign=middle;whiteSpace=wrap;rounded=0;fontSize=12;" parent="1" vertex="1">
                    <mxGeometry x="230" y="860" width="60" height="30" as="geometry"/>
                </mxCell>
                <mxCell id="30" value="end : 8" style="text;html=1;strokeColor=#b85450;fillColor=#f8cecc;align=center;verticalAlign=middle;whiteSpace=wrap;rounded=0;fontSize=12;" parent="1" vertex="1">
                    <mxGeometry x="384" y="860" width="60" height="30" as="geometry"/>
                </mxCell>
                <mxCell id="31" value="" style="endArrow=classic;html=1;fontSize=12;fontColor=#000000;" parent="1" edge="1">
                    <mxGeometry width="50" height="50" relative="1" as="geometry">
                        <mxPoint x="330" y="949" as="sourcePoint"/>
                        <mxPoint x="330" y="919" as="targetPoint"/>
                    </mxGeometry>
                </mxCell>
                <mxCell id="32" value="answer: 7 , no need to update end pointer" style="text;html=1;strokeColor=#b85450;fillColor=#f8cecc;align=center;verticalAlign=middle;whiteSpace=wrap;rounded=0;fontSize=12;" parent="1" vertex="1">
                    <mxGeometry x="470" y="960" width="220" height="30" as="geometry"/>
                </mxCell>
                <mxCell id="33" value="&lt;meta charset=&quot;utf-8&quot; style=&quot;font-size: 19px;&quot;&gt;&lt;div style=&quot;color: rgb(0, 0, 0); background-color: rgb(255, 255, 255); font-family: menlo, monaco, &amp;quot;courier new&amp;quot;, monospace; font-weight: normal; font-size: 19px; line-height: 18px;&quot;&gt;&lt;div style=&quot;font-size: 19px;&quot;&gt;&lt;span style=&quot;color: rgb(0, 0, 0); font-size: 19px;&quot;&gt;ababcbacadefegdehijhklij&lt;/span&gt;&lt;/div&gt;&lt;/div&gt;" style="text;whiteSpace=wrap;html=1;strokeWidth=3;fontSize=19;" parent="1" vertex="1">
                    <mxGeometry x="239" y="1060" width="280" height="30" as="geometry"/>
                </mxCell>
                <mxCell id="34" value="" style="endArrow=classic;html=1;fontSize=12;fontColor=#000000;" parent="1" edge="1">
                    <mxGeometry width="50" height="50" relative="1" as="geometry">
                        <mxPoint x="336.0000000000001" y="1113" as="sourcePoint"/>
                        <mxPoint x="336.0000000000001" y="1083" as="targetPoint"/>
                    </mxGeometry>
                </mxCell>
                <mxCell id="35" value="i == end ; exit" style="text;html=1;strokeColor=#b85450;fillColor=#f8cecc;align=center;verticalAlign=middle;whiteSpace=wrap;rounded=0;fontSize=12;" parent="1" vertex="1">
                    <mxGeometry x="220" y="1130" width="220" height="30" as="geometry"/>
                </mxCell>
                <mxCell id="36" value="start 0" style="text;html=1;strokeColor=#b85450;fillColor=#f8cecc;align=center;verticalAlign=middle;whiteSpace=wrap;rounded=0;fontSize=12;" parent="1" vertex="1">
                    <mxGeometry x="229" y="1030" width="60" height="30" as="geometry"/>
                </mxCell>
                <mxCell id="37" value="end : 8" style="text;html=1;strokeColor=#b85450;fillColor=#f8cecc;align=center;verticalAlign=middle;whiteSpace=wrap;rounded=0;fontSize=12;" parent="1" vertex="1">
                    <mxGeometry x="383" y="1030" width="60" height="30" as="geometry"/>
                </mxCell>
                <mxCell id="38" value="" style="endArrow=classic;html=1;fontSize=12;fontColor=#000000;" parent="1" edge="1">
                    <mxGeometry width="50" height="50" relative="1" as="geometry">
                        <mxPoint x="343" y="1123" as="sourcePoint"/>
                        <mxPoint x="343" y="1093" as="targetPoint"/>
                    </mxGeometry>
                </mxCell>
                <mxCell id="39" value="this is our segment" style="text;html=1;strokeColor=#b85450;fillColor=#f8cecc;align=center;verticalAlign=middle;whiteSpace=wrap;rounded=0;fontSize=12;" parent="1" vertex="1">
                    <mxGeometry x="469" y="1130" width="220" height="30" as="geometry"/>
                </mxCell>
            </root>
        </mxGraphModel>
    </diagram>
    <diagram id="XGrJPgddLM0Zm1Xyj2WK" name="Page-2">
        <mxGraphModel dx="622" dy="515" grid="1" gridSize="10" guides="1" tooltips="1" connect="1" arrows="1" fold="1" page="1" pageScale="1" pageWidth="827" pageHeight="1169" math="0" shadow="0">
            <root>
                <mxCell id="CKVOiupSGa5t-Fjm2D2t-0"/>
                <mxCell id="CKVOiupSGa5t-Fjm2D2t-1" parent="CKVOiupSGa5t-Fjm2D2t-0"/>
                <mxCell id="CKVOiupSGa5t-Fjm2D2t-2" value="3" style="shape=agent;offsetSize=8;strokeWidth=2;" parent="CKVOiupSGa5t-Fjm2D2t-1" vertex="1">
                    <mxGeometry x="200" y="140" width="100" height="60" as="geometry"/>
                </mxCell>
                <mxCell id="CKVOiupSGa5t-Fjm2D2t-3" value="4" style="shape=agent;offsetSize=8;strokeWidth=2;" parent="CKVOiupSGa5t-Fjm2D2t-1" vertex="1">
                    <mxGeometry x="594" y="140" width="100" height="60" as="geometry"/>
                </mxCell>
                <mxCell id="CKVOiupSGa5t-Fjm2D2t-4" value="2" style="shape=agent;offsetSize=8;strokeWidth=2;" parent="CKVOiupSGa5t-Fjm2D2t-1" vertex="1">
                    <mxGeometry x="300" y="140" width="100" height="60" as="geometry"/>
                </mxCell>
                <mxCell id="CKVOiupSGa5t-Fjm2D2t-5" value="1" style="shape=agent;offsetSize=8;strokeWidth=2;" parent="CKVOiupSGa5t-Fjm2D2t-1" vertex="1">
                    <mxGeometry x="400" y="140" width="100" height="60" as="geometry"/>
                </mxCell>
                <mxCell id="CKVOiupSGa5t-Fjm2D2t-7" value="1" style="shape=agent;offsetSize=8;strokeWidth=2;" parent="CKVOiupSGa5t-Fjm2D2t-1" vertex="1">
                    <mxGeometry x="494" y="140" width="100" height="60" as="geometry"/>
                </mxCell>
                <mxCell id="CKVOiupSGa5t-Fjm2D2t-8" value="Number of Jumps allowed from each cell" style="text;html=1;strokeColor=none;fillColor=none;align=center;verticalAlign=middle;whiteSpace=wrap;rounded=0;" parent="CKVOiupSGa5t-Fjm2D2t-1" vertex="1">
                    <mxGeometry x="20" y="155" width="160" height="30" as="geometry"/>
                </mxCell>
                <mxCell id="CKVOiupSGa5t-Fjm2D2t-10" value="Can we reach the &lt;br&gt;Goal post from index 0" style="text;html=1;align=center;verticalAlign=middle;resizable=0;points=[];autosize=1;strokeColor=none;fillColor=none;" parent="CKVOiupSGa5t-Fjm2D2t-1" vertex="1">
                    <mxGeometry x="190" y="93.36" width="140" height="30" as="geometry"/>
                </mxCell>
                <mxCell id="CKVOiupSGa5t-Fjm2D2t-11" value="" style="endArrow=classic;html=1;entryX=0.439;entryY=-0.056;entryDx=0;entryDy=0;entryPerimeter=0;" parent="CKVOiupSGa5t-Fjm2D2t-1" edge="1">
                    <mxGeometry width="50" height="50" relative="1" as="geometry">
                        <mxPoint x="638" y="93.36" as="sourcePoint"/>
                        <mxPoint x="637.9000000000001" y="140" as="targetPoint"/>
                    </mxGeometry>
                </mxCell>
                <mxCell id="CKVOiupSGa5t-Fjm2D2t-12" value="Goal" style="text;html=1;align=center;verticalAlign=middle;resizable=0;points=[];autosize=1;strokeColor=#b85450;fillColor=#f8cecc;" parent="CKVOiupSGa5t-Fjm2D2t-1" vertex="1">
                    <mxGeometry x="624" y="73.36" width="40" height="20" as="geometry"/>
                </mxCell>
                <mxCell id="CKVOiupSGa5t-Fjm2D2t-13" value="3" style="shape=agent;offsetSize=8;strokeWidth=2;" parent="CKVOiupSGa5t-Fjm2D2t-1" vertex="1">
                    <mxGeometry x="193" y="320" width="100" height="60" as="geometry"/>
                </mxCell>
                <mxCell id="CKVOiupSGa5t-Fjm2D2t-14" value="4" style="shape=agent;offsetSize=8;strokeWidth=2;" parent="CKVOiupSGa5t-Fjm2D2t-1" vertex="1">
                    <mxGeometry x="587" y="320" width="100" height="60" as="geometry"/>
                </mxCell>
                <mxCell id="CKVOiupSGa5t-Fjm2D2t-15" value="2" style="shape=agent;offsetSize=8;strokeWidth=2;" parent="CKVOiupSGa5t-Fjm2D2t-1" vertex="1">
                    <mxGeometry x="293" y="320" width="100" height="60" as="geometry"/>
                </mxCell>
                <mxCell id="CKVOiupSGa5t-Fjm2D2t-16" value="1" style="shape=agent;offsetSize=8;strokeWidth=2;" parent="CKVOiupSGa5t-Fjm2D2t-1" vertex="1">
                    <mxGeometry x="393" y="320" width="100" height="60" as="geometry"/>
                </mxCell>
                <mxCell id="CKVOiupSGa5t-Fjm2D2t-17" value="1" style="shape=agent;offsetSize=8;strokeWidth=2;" parent="CKVOiupSGa5t-Fjm2D2t-1" vertex="1">
                    <mxGeometry x="487" y="320" width="100" height="60" as="geometry"/>
                </mxCell>
                <mxCell id="CKVOiupSGa5t-Fjm2D2t-21" value="" style="endArrow=classic;html=1;entryX=0.439;entryY=-0.056;entryDx=0;entryDy=0;entryPerimeter=0;" parent="CKVOiupSGa5t-Fjm2D2t-1" edge="1">
                    <mxGeometry width="50" height="50" relative="1" as="geometry">
                        <mxPoint x="631" y="273.36" as="sourcePoint"/>
                        <mxPoint x="630.9000000000001" y="320" as="targetPoint"/>
                    </mxGeometry>
                </mxCell>
                <mxCell id="CKVOiupSGa5t-Fjm2D2t-22" value="Goal" style="text;html=1;align=center;verticalAlign=middle;resizable=0;points=[];autosize=1;strokeColor=#b85450;fillColor=#f8cecc;" parent="CKVOiupSGa5t-Fjm2D2t-1" vertex="1">
                    <mxGeometry x="617" y="253.36" width="40" height="20" as="geometry"/>
                </mxCell>
                <mxCell id="CKVOiupSGa5t-Fjm2D2t-24" value="Goal" style="text;html=1;strokeColor=#b85450;fillColor=#f8cecc;align=center;verticalAlign=middle;whiteSpace=wrap;rounded=0;" parent="CKVOiupSGa5t-Fjm2D2t-1" vertex="1">
                    <mxGeometry x="193" y="253.36" width="60" height="30" as="geometry"/>
                </mxCell>
                <mxCell id="CKVOiupSGa5t-Fjm2D2t-25" value="index 4" style="text;html=1;strokeColor=#b85450;fillColor=#f8cecc;align=center;verticalAlign=middle;whiteSpace=wrap;rounded=0;" parent="CKVOiupSGa5t-Fjm2D2t-1" vertex="1">
                    <mxGeometry x="253" y="253.36" width="60" height="30" as="geometry"/>
                </mxCell>
                <mxCell id="CKVOiupSGa5t-Fjm2D2t-27" style="edgeStyle=none;html=1;entryX=0.579;entryY=1.019;entryDx=0;entryDy=0;entryPerimeter=0;" parent="CKVOiupSGa5t-Fjm2D2t-1" source="CKVOiupSGa5t-Fjm2D2t-26" target="CKVOiupSGa5t-Fjm2D2t-14" edge="1">
                    <mxGeometry relative="1" as="geometry"/>
                </mxCell>
                <mxCell id="CKVOiupSGa5t-Fjm2D2t-26" value="temp : index 4" style="text;html=1;strokeColor=#b85450;fillColor=#f8cecc;align=center;verticalAlign=middle;whiteSpace=wrap;rounded=0;" parent="CKVOiupSGa5t-Fjm2D2t-1" vertex="1">
                    <mxGeometry x="614" y="440" width="60" height="30" as="geometry"/>
                </mxCell>
                <mxCell id="CKVOiupSGa5t-Fjm2D2t-28" value="Can I reach the Goal from this cell in 4 steps : YES&amp;nbsp;" style="text;html=1;strokeColor=#b85450;fillColor=#f8cecc;align=center;verticalAlign=middle;whiteSpace=wrap;rounded=0;" parent="CKVOiupSGa5t-Fjm2D2t-1" vertex="1">
                    <mxGeometry x="474" y="470" width="200" height="30" as="geometry"/>
                </mxCell>
                <mxCell id="CKVOiupSGa5t-Fjm2D2t-29" value="3" style="shape=agent;offsetSize=8;strokeWidth=2;" parent="CKVOiupSGa5t-Fjm2D2t-1" vertex="1">
                    <mxGeometry x="193" y="616.64" width="100" height="60" as="geometry"/>
                </mxCell>
                <mxCell id="CKVOiupSGa5t-Fjm2D2t-30" value="4" style="shape=agent;offsetSize=8;strokeWidth=2;" parent="CKVOiupSGa5t-Fjm2D2t-1" vertex="1">
                    <mxGeometry x="587" y="616.64" width="100" height="60" as="geometry"/>
                </mxCell>
                <mxCell id="CKVOiupSGa5t-Fjm2D2t-31" value="2" style="shape=agent;offsetSize=8;strokeWidth=2;" parent="CKVOiupSGa5t-Fjm2D2t-1" vertex="1">
                    <mxGeometry x="293" y="616.64" width="100" height="60" as="geometry"/>
                </mxCell>
                <mxCell id="CKVOiupSGa5t-Fjm2D2t-32" value="1" style="shape=agent;offsetSize=8;strokeWidth=2;" parent="CKVOiupSGa5t-Fjm2D2t-1" vertex="1">
                    <mxGeometry x="393" y="616.64" width="100" height="60" as="geometry"/>
                </mxCell>
                <mxCell id="CKVOiupSGa5t-Fjm2D2t-33" value="1" style="shape=agent;offsetSize=8;strokeWidth=2;" parent="CKVOiupSGa5t-Fjm2D2t-1" vertex="1">
                    <mxGeometry x="487" y="616.64" width="100" height="60" as="geometry"/>
                </mxCell>
                <mxCell id="CKVOiupSGa5t-Fjm2D2t-34" value="" style="endArrow=classic;html=1;entryX=0.439;entryY=-0.056;entryDx=0;entryDy=0;entryPerimeter=0;" parent="CKVOiupSGa5t-Fjm2D2t-1" edge="1">
                    <mxGeometry width="50" height="50" relative="1" as="geometry">
                        <mxPoint x="520.1" y="570" as="sourcePoint"/>
                        <mxPoint x="520.0000000000001" y="616.64" as="targetPoint"/>
                    </mxGeometry>
                </mxCell>
                <mxCell id="CKVOiupSGa5t-Fjm2D2t-35" value="Goal" style="text;html=1;align=center;verticalAlign=middle;resizable=0;points=[];autosize=1;strokeColor=#b85450;fillColor=#f8cecc;" parent="CKVOiupSGa5t-Fjm2D2t-1" vertex="1">
                    <mxGeometry x="500" y="550" width="40" height="20" as="geometry"/>
                </mxCell>
                <mxCell id="CKVOiupSGa5t-Fjm2D2t-36" value="Goal" style="text;html=1;strokeColor=#b85450;fillColor=#f8cecc;align=center;verticalAlign=middle;whiteSpace=wrap;rounded=0;" parent="CKVOiupSGa5t-Fjm2D2t-1" vertex="1">
                    <mxGeometry x="193" y="550" width="60" height="30" as="geometry"/>
                </mxCell>
                <mxCell id="CKVOiupSGa5t-Fjm2D2t-37" value="index 3" style="text;html=1;strokeColor=#b85450;fillColor=#f8cecc;align=center;verticalAlign=middle;whiteSpace=wrap;rounded=0;" parent="CKVOiupSGa5t-Fjm2D2t-1" vertex="1">
                    <mxGeometry x="253" y="550" width="60" height="30" as="geometry"/>
                </mxCell>
                <mxCell id="CKVOiupSGa5t-Fjm2D2t-38" style="edgeStyle=none;html=1;entryX=0.639;entryY=1.004;entryDx=0;entryDy=0;entryPerimeter=0;" parent="CKVOiupSGa5t-Fjm2D2t-1" source="CKVOiupSGa5t-Fjm2D2t-39" target="CKVOiupSGa5t-Fjm2D2t-33" edge="1">
                    <mxGeometry relative="1" as="geometry"/>
                </mxCell>
                <mxCell id="CKVOiupSGa5t-Fjm2D2t-39" value="temp : index 3" style="text;html=1;strokeColor=#b85450;fillColor=#f8cecc;align=center;verticalAlign=middle;whiteSpace=wrap;rounded=0;" parent="CKVOiupSGa5t-Fjm2D2t-1" vertex="1">
                    <mxGeometry x="520" y="736.64" width="60" height="30" as="geometry"/>
                </mxCell>
                <mxCell id="CKVOiupSGa5t-Fjm2D2t-40" value="Can I reach the Goal from this cell in 1 steps : YES&amp;nbsp;" style="text;html=1;strokeColor=#b85450;fillColor=#f8cecc;align=center;verticalAlign=middle;whiteSpace=wrap;rounded=0;" parent="CKVOiupSGa5t-Fjm2D2t-1" vertex="1">
                    <mxGeometry x="380" y="766.64" width="200" height="30" as="geometry"/>
                </mxCell>
                <mxCell id="CKVOiupSGa5t-Fjm2D2t-41" value="GOAL: index 4" style="text;html=1;strokeColor=#b85450;fillColor=#f8cecc;align=center;verticalAlign=middle;whiteSpace=wrap;rounded=0;" parent="CKVOiupSGa5t-Fjm2D2t-1" vertex="1">
                    <mxGeometry x="474" y="500" width="200" height="30" as="geometry"/>
                </mxCell>
                <mxCell id="CKVOiupSGa5t-Fjm2D2t-42" value="GOAL: index 3" style="text;html=1;strokeColor=#b85450;fillColor=#f8cecc;align=center;verticalAlign=middle;whiteSpace=wrap;rounded=0;" parent="CKVOiupSGa5t-Fjm2D2t-1" vertex="1">
                    <mxGeometry x="380" y="796.64" width="200" height="30" as="geometry"/>
                </mxCell>
                <mxCell id="CKVOiupSGa5t-Fjm2D2t-43" value="3" style="shape=agent;offsetSize=8;strokeWidth=2;" parent="CKVOiupSGa5t-Fjm2D2t-1" vertex="1">
                    <mxGeometry x="180" y="926.64" width="100" height="60" as="geometry"/>
                </mxCell>
                <mxCell id="CKVOiupSGa5t-Fjm2D2t-44" value="4" style="shape=agent;offsetSize=8;strokeWidth=2;" parent="CKVOiupSGa5t-Fjm2D2t-1" vertex="1">
                    <mxGeometry x="574" y="926.64" width="100" height="60" as="geometry"/>
                </mxCell>
                <mxCell id="CKVOiupSGa5t-Fjm2D2t-45" value="2" style="shape=agent;offsetSize=8;strokeWidth=2;" parent="CKVOiupSGa5t-Fjm2D2t-1" vertex="1">
                    <mxGeometry x="280" y="926.64" width="100" height="60" as="geometry"/>
                </mxCell>
                <mxCell id="CKVOiupSGa5t-Fjm2D2t-46" value="1" style="shape=agent;offsetSize=8;strokeWidth=2;" parent="CKVOiupSGa5t-Fjm2D2t-1" vertex="1">
                    <mxGeometry x="380" y="926.64" width="100" height="60" as="geometry"/>
                </mxCell>
                <mxCell id="CKVOiupSGa5t-Fjm2D2t-47" value="1" style="shape=agent;offsetSize=8;strokeWidth=2;" parent="CKVOiupSGa5t-Fjm2D2t-1" vertex="1">
                    <mxGeometry x="474" y="926.64" width="100" height="60" as="geometry"/>
                </mxCell>
                <mxCell id="CKVOiupSGa5t-Fjm2D2t-48" value="" style="endArrow=classic;html=1;entryX=0.439;entryY=-0.056;entryDx=0;entryDy=0;entryPerimeter=0;" parent="CKVOiupSGa5t-Fjm2D2t-1" edge="1">
                    <mxGeometry width="50" height="50" relative="1" as="geometry">
                        <mxPoint x="433.5999999999999" y="880" as="sourcePoint"/>
                        <mxPoint x="433.5" y="926.6399999999999" as="targetPoint"/>
                    </mxGeometry>
                </mxCell>
                <mxCell id="CKVOiupSGa5t-Fjm2D2t-49" value="Goal" style="text;html=1;align=center;verticalAlign=middle;resizable=0;points=[];autosize=1;strokeColor=#b85450;fillColor=#f8cecc;" parent="CKVOiupSGa5t-Fjm2D2t-1" vertex="1">
                    <mxGeometry x="414" y="850" width="40" height="20" as="geometry"/>
                </mxCell>
                <mxCell id="CKVOiupSGa5t-Fjm2D2t-50" value="Goal" style="text;html=1;strokeColor=#b85450;fillColor=#f8cecc;align=center;verticalAlign=middle;whiteSpace=wrap;rounded=0;" parent="CKVOiupSGa5t-Fjm2D2t-1" vertex="1">
                    <mxGeometry x="180" y="860" width="60" height="30" as="geometry"/>
                </mxCell>
                <mxCell id="CKVOiupSGa5t-Fjm2D2t-51" value="index 2" style="text;html=1;strokeColor=#b85450;fillColor=#f8cecc;align=center;verticalAlign=middle;whiteSpace=wrap;rounded=0;" parent="CKVOiupSGa5t-Fjm2D2t-1" vertex="1">
                    <mxGeometry x="240" y="860" width="60" height="30" as="geometry"/>
                </mxCell>
                <mxCell id="CKVOiupSGa5t-Fjm2D2t-52" style="edgeStyle=none;html=1;entryX=0.599;entryY=0.997;entryDx=0;entryDy=0;entryPerimeter=0;" parent="CKVOiupSGa5t-Fjm2D2t-1" source="CKVOiupSGa5t-Fjm2D2t-53" target="CKVOiupSGa5t-Fjm2D2t-46" edge="1">
                    <mxGeometry relative="1" as="geometry"/>
                </mxCell>
                <mxCell id="CKVOiupSGa5t-Fjm2D2t-53" value="temp : index 2" style="text;html=1;strokeColor=#b85450;fillColor=#f8cecc;align=center;verticalAlign=middle;whiteSpace=wrap;rounded=0;" parent="CKVOiupSGa5t-Fjm2D2t-1" vertex="1">
                    <mxGeometry x="410" y="1059.9999999999998" width="60" height="30" as="geometry"/>
                </mxCell>
                <mxCell id="CKVOiupSGa5t-Fjm2D2t-54" value="Can I reach the Goal from this cell in 1 steps : YES&amp;nbsp;" style="text;html=1;strokeColor=#b85450;fillColor=#f8cecc;align=center;verticalAlign=middle;whiteSpace=wrap;rounded=0;" parent="CKVOiupSGa5t-Fjm2D2t-1" vertex="1">
                    <mxGeometry x="270" y="1089.9999999999998" width="200" height="30" as="geometry"/>
                </mxCell>
                <mxCell id="CKVOiupSGa5t-Fjm2D2t-55" value="GOAL: index 2" style="text;html=1;strokeColor=#b85450;fillColor=#f8cecc;align=center;verticalAlign=middle;whiteSpace=wrap;rounded=0;" parent="CKVOiupSGa5t-Fjm2D2t-1" vertex="1">
                    <mxGeometry x="270" y="1119.9999999999998" width="200" height="30" as="geometry"/>
                </mxCell>
                <mxCell id="CKVOiupSGa5t-Fjm2D2t-56" value="3" style="shape=agent;offsetSize=8;strokeWidth=2;" parent="CKVOiupSGa5t-Fjm2D2t-1" vertex="1">
                    <mxGeometry x="190" y="1256.6399999999999" width="100" height="60" as="geometry"/>
                </mxCell>
                <mxCell id="CKVOiupSGa5t-Fjm2D2t-57" value="4" style="shape=agent;offsetSize=8;strokeWidth=2;" parent="CKVOiupSGa5t-Fjm2D2t-1" vertex="1">
                    <mxGeometry x="584" y="1256.6399999999999" width="100" height="60" as="geometry"/>
                </mxCell>
                <mxCell id="CKVOiupSGa5t-Fjm2D2t-58" value="2" style="shape=agent;offsetSize=8;strokeWidth=2;" parent="CKVOiupSGa5t-Fjm2D2t-1" vertex="1">
                    <mxGeometry x="290" y="1256.6399999999999" width="100" height="60" as="geometry"/>
                </mxCell>
                <mxCell id="CKVOiupSGa5t-Fjm2D2t-59" value="1" style="shape=agent;offsetSize=8;strokeWidth=2;" parent="CKVOiupSGa5t-Fjm2D2t-1" vertex="1">
                    <mxGeometry x="390" y="1256.6399999999999" width="100" height="60" as="geometry"/>
                </mxCell>
                <mxCell id="CKVOiupSGa5t-Fjm2D2t-60" value="1" style="shape=agent;offsetSize=8;strokeWidth=2;" parent="CKVOiupSGa5t-Fjm2D2t-1" vertex="1">
                    <mxGeometry x="484" y="1256.6399999999999" width="100" height="60" as="geometry"/>
                </mxCell>
                <mxCell id="CKVOiupSGa5t-Fjm2D2t-61" value="" style="endArrow=classic;html=1;entryX=0.439;entryY=-0.056;entryDx=0;entryDy=0;entryPerimeter=0;" parent="CKVOiupSGa5t-Fjm2D2t-1" edge="1">
                    <mxGeometry width="50" height="50" relative="1" as="geometry">
                        <mxPoint x="349.5999999999999" y="1210" as="sourcePoint"/>
                        <mxPoint x="349.5" y="1256.6399999999999" as="targetPoint"/>
                    </mxGeometry>
                </mxCell>
                <mxCell id="CKVOiupSGa5t-Fjm2D2t-62" value="Goal" style="text;html=1;align=center;verticalAlign=middle;resizable=0;points=[];autosize=1;strokeColor=#b85450;fillColor=#f8cecc;" parent="CKVOiupSGa5t-Fjm2D2t-1" vertex="1">
                    <mxGeometry x="330" y="1190" width="40" height="20" as="geometry"/>
                </mxCell>
                <mxCell id="CKVOiupSGa5t-Fjm2D2t-63" value="Goal" style="text;html=1;strokeColor=#b85450;fillColor=#f8cecc;align=center;verticalAlign=middle;whiteSpace=wrap;rounded=0;" parent="CKVOiupSGa5t-Fjm2D2t-1" vertex="1">
                    <mxGeometry x="190" y="1190" width="60" height="30" as="geometry"/>
                </mxCell>
                <mxCell id="CKVOiupSGa5t-Fjm2D2t-64" value="index 1" style="text;html=1;strokeColor=#b85450;fillColor=#f8cecc;align=center;verticalAlign=middle;whiteSpace=wrap;rounded=0;" parent="CKVOiupSGa5t-Fjm2D2t-1" vertex="1">
                    <mxGeometry x="250" y="1190" width="60" height="30" as="geometry"/>
                </mxCell>
                <mxCell id="CKVOiupSGa5t-Fjm2D2t-65" style="edgeStyle=none;html=1;entryX=0.669;entryY=1;entryDx=0;entryDy=0;entryPerimeter=0;" parent="CKVOiupSGa5t-Fjm2D2t-1" source="CKVOiupSGa5t-Fjm2D2t-66" target="CKVOiupSGa5t-Fjm2D2t-58" edge="1">
                    <mxGeometry relative="1" as="geometry"/>
                </mxCell>
                <mxCell id="CKVOiupSGa5t-Fjm2D2t-66" value="temp : index 1" style="text;html=1;strokeColor=#b85450;fillColor=#f8cecc;align=center;verticalAlign=middle;whiteSpace=wrap;rounded=0;" parent="CKVOiupSGa5t-Fjm2D2t-1" vertex="1">
                    <mxGeometry x="320" y="1379.9999999999998" width="60" height="30" as="geometry"/>
                </mxCell>
                <mxCell id="CKVOiupSGa5t-Fjm2D2t-67" value="Can I reach the Goal from this cell in 2 steps : YES&amp;nbsp;" style="text;html=1;strokeColor=#b85450;fillColor=#f8cecc;align=center;verticalAlign=middle;whiteSpace=wrap;rounded=0;" parent="CKVOiupSGa5t-Fjm2D2t-1" vertex="1">
                    <mxGeometry x="180" y="1409.9999999999998" width="200" height="30" as="geometry"/>
                </mxCell>
                <mxCell id="CKVOiupSGa5t-Fjm2D2t-68" value="GOAL: index 1" style="text;html=1;strokeColor=#b85450;fillColor=#f8cecc;align=center;verticalAlign=middle;whiteSpace=wrap;rounded=0;" parent="CKVOiupSGa5t-Fjm2D2t-1" vertex="1">
                    <mxGeometry x="180" y="1439.9999999999998" width="200" height="30" as="geometry"/>
                </mxCell>
                <mxCell id="CKVOiupSGa5t-Fjm2D2t-69" value="3" style="shape=agent;offsetSize=8;strokeWidth=2;fillColor=#d5e8d4;strokeColor=#82b366;" parent="CKVOiupSGa5t-Fjm2D2t-1" vertex="1">
                    <mxGeometry x="188" y="1616.6399999999999" width="100" height="60" as="geometry"/>
                </mxCell>
                <mxCell id="CKVOiupSGa5t-Fjm2D2t-70" value="4" style="shape=agent;offsetSize=8;strokeWidth=2;" parent="CKVOiupSGa5t-Fjm2D2t-1" vertex="1">
                    <mxGeometry x="582" y="1616.6399999999999" width="100" height="60" as="geometry"/>
                </mxCell>
                <mxCell id="CKVOiupSGa5t-Fjm2D2t-71" value="2" style="shape=agent;offsetSize=8;strokeWidth=2;" parent="CKVOiupSGa5t-Fjm2D2t-1" vertex="1">
                    <mxGeometry x="288" y="1616.6399999999999" width="100" height="60" as="geometry"/>
                </mxCell>
                <mxCell id="CKVOiupSGa5t-Fjm2D2t-72" value="1" style="shape=agent;offsetSize=8;strokeWidth=2;" parent="CKVOiupSGa5t-Fjm2D2t-1" vertex="1">
                    <mxGeometry x="388" y="1616.6399999999999" width="100" height="60" as="geometry"/>
                </mxCell>
                <mxCell id="CKVOiupSGa5t-Fjm2D2t-73" value="1" style="shape=agent;offsetSize=8;strokeWidth=2;" parent="CKVOiupSGa5t-Fjm2D2t-1" vertex="1">
                    <mxGeometry x="482" y="1616.6399999999999" width="100" height="60" as="geometry"/>
                </mxCell>
                <mxCell id="CKVOiupSGa5t-Fjm2D2t-74" value="" style="endArrow=classic;html=1;entryX=0.629;entryY=-0.011;entryDx=0;entryDy=0;entryPerimeter=0;" parent="CKVOiupSGa5t-Fjm2D2t-1" target="CKVOiupSGa5t-Fjm2D2t-69" edge="1">
                    <mxGeometry width="50" height="50" relative="1" as="geometry">
                        <mxPoint x="347.5999999999999" y="1570" as="sourcePoint"/>
                        <mxPoint x="347.5" y="1616.6399999999999" as="targetPoint"/>
                    </mxGeometry>
                </mxCell>
                <mxCell id="CKVOiupSGa5t-Fjm2D2t-75" value="Goal" style="text;html=1;align=center;verticalAlign=middle;resizable=0;points=[];autosize=1;strokeColor=#b85450;fillColor=#f8cecc;" parent="CKVOiupSGa5t-Fjm2D2t-1" vertex="1">
                    <mxGeometry x="328" y="1550" width="40" height="20" as="geometry"/>
                </mxCell>
                <mxCell id="CKVOiupSGa5t-Fjm2D2t-76" value="Goal" style="text;html=1;strokeColor=#b85450;fillColor=#f8cecc;align=center;verticalAlign=middle;whiteSpace=wrap;rounded=0;" parent="CKVOiupSGa5t-Fjm2D2t-1" vertex="1">
                    <mxGeometry x="188" y="1550" width="60" height="30" as="geometry"/>
                </mxCell>
                <mxCell id="CKVOiupSGa5t-Fjm2D2t-77" value="index 0" style="text;html=1;strokeColor=#b85450;fillColor=#f8cecc;align=center;verticalAlign=middle;whiteSpace=wrap;rounded=0;" parent="CKVOiupSGa5t-Fjm2D2t-1" vertex="1">
                    <mxGeometry x="248" y="1550" width="60" height="30" as="geometry"/>
                </mxCell>
                <mxCell id="CKVOiupSGa5t-Fjm2D2t-78" style="edgeStyle=none;html=1;entryX=0.5;entryY=1;entryDx=0;entryDy=0;" parent="CKVOiupSGa5t-Fjm2D2t-1" source="CKVOiupSGa5t-Fjm2D2t-79" target="CKVOiupSGa5t-Fjm2D2t-69" edge="1">
                    <mxGeometry relative="1" as="geometry"/>
                </mxCell>
                <mxCell id="CKVOiupSGa5t-Fjm2D2t-79" value="temp : index 0" style="text;html=1;strokeColor=#b85450;fillColor=#f8cecc;align=center;verticalAlign=middle;whiteSpace=wrap;rounded=0;" parent="CKVOiupSGa5t-Fjm2D2t-1" vertex="1">
                    <mxGeometry x="323" y="1739.9999999999998" width="60" height="30" as="geometry"/>
                </mxCell>
                <mxCell id="CKVOiupSGa5t-Fjm2D2t-80" value="Can I reach the Goal from this cell in 3 steps : YES&amp;nbsp;" style="text;html=1;strokeColor=#b85450;fillColor=#f8cecc;align=center;verticalAlign=middle;whiteSpace=wrap;rounded=0;" parent="CKVOiupSGa5t-Fjm2D2t-1" vertex="1">
                    <mxGeometry x="183" y="1769.9999999999998" width="200" height="30" as="geometry"/>
                </mxCell>
                <mxCell id="CKVOiupSGa5t-Fjm2D2t-81" value="GOAL: index 0" style="text;html=1;strokeColor=#b85450;fillColor=#f8cecc;align=center;verticalAlign=middle;whiteSpace=wrap;rounded=0;" parent="CKVOiupSGa5t-Fjm2D2t-1" vertex="1">
                    <mxGeometry x="183" y="1799.9999999999998" width="200" height="30" as="geometry"/>
                </mxCell>
                <mxCell id="CKVOiupSGa5t-Fjm2D2t-82" value="3" style="shape=agent;offsetSize=8;strokeWidth=2;" parent="CKVOiupSGa5t-Fjm2D2t-1" vertex="1">
                    <mxGeometry x="1060" y="166.64" width="100" height="60" as="geometry"/>
                </mxCell>
                <mxCell id="CKVOiupSGa5t-Fjm2D2t-83" value="4" style="shape=agent;offsetSize=8;strokeWidth=2;" parent="CKVOiupSGa5t-Fjm2D2t-1" vertex="1">
                    <mxGeometry x="1454" y="166.64" width="100" height="60" as="geometry"/>
                </mxCell>
                <mxCell id="CKVOiupSGa5t-Fjm2D2t-84" value="2" style="shape=agent;offsetSize=8;strokeWidth=2;" parent="CKVOiupSGa5t-Fjm2D2t-1" vertex="1">
                    <mxGeometry x="1160" y="166.64" width="100" height="60" as="geometry"/>
                </mxCell>
                <mxCell id="CKVOiupSGa5t-Fjm2D2t-85" value="1" style="shape=agent;offsetSize=8;strokeWidth=2;" parent="CKVOiupSGa5t-Fjm2D2t-1" vertex="1">
                    <mxGeometry x="1260" y="166.64" width="100" height="60" as="geometry"/>
                </mxCell>
                <mxCell id="CKVOiupSGa5t-Fjm2D2t-86" value="0" style="shape=agent;offsetSize=8;strokeWidth=2;" parent="CKVOiupSGa5t-Fjm2D2t-1" vertex="1">
                    <mxGeometry x="1354" y="166.64" width="100" height="60" as="geometry"/>
                </mxCell>
                <mxCell id="CKVOiupSGa5t-Fjm2D2t-87" value="Number of Jumps allowed from each cell" style="text;html=1;strokeColor=none;fillColor=none;align=center;verticalAlign=middle;whiteSpace=wrap;rounded=0;" parent="CKVOiupSGa5t-Fjm2D2t-1" vertex="1">
                    <mxGeometry x="880" y="181.64" width="160" height="30" as="geometry"/>
                </mxCell>
                <mxCell id="CKVOiupSGa5t-Fjm2D2t-88" value="Can we reach the &lt;br&gt;Goal post from index 0" style="text;html=1;align=center;verticalAlign=middle;resizable=0;points=[];autosize=1;strokeColor=none;fillColor=none;" parent="CKVOiupSGa5t-Fjm2D2t-1" vertex="1">
                    <mxGeometry x="1050" y="120" width="140" height="30" as="geometry"/>
                </mxCell>
                <mxCell id="CKVOiupSGa5t-Fjm2D2t-89" value="" style="endArrow=classic;html=1;entryX=0.439;entryY=-0.056;entryDx=0;entryDy=0;entryPerimeter=0;" parent="CKVOiupSGa5t-Fjm2D2t-1" edge="1">
                    <mxGeometry width="50" height="50" relative="1" as="geometry">
                        <mxPoint x="1498" y="120.00000000000001" as="sourcePoint"/>
                        <mxPoint x="1497.9" y="166.64" as="targetPoint"/>
                    </mxGeometry>
                </mxCell>
                <mxCell id="CKVOiupSGa5t-Fjm2D2t-90" value="Goal" style="text;html=1;align=center;verticalAlign=middle;resizable=0;points=[];autosize=1;strokeColor=#b85450;fillColor=#f8cecc;" parent="CKVOiupSGa5t-Fjm2D2t-1" vertex="1">
                    <mxGeometry x="1484" y="100" width="40" height="20" as="geometry"/>
                </mxCell>
                <mxCell id="CKVOiupSGa5t-Fjm2D2t-91" value="3" style="shape=agent;offsetSize=8;strokeWidth=2;" parent="CKVOiupSGa5t-Fjm2D2t-1" vertex="1">
                    <mxGeometry x="1053" y="346.64" width="100" height="60" as="geometry"/>
                </mxCell>
                <mxCell id="CKVOiupSGa5t-Fjm2D2t-92" value="4" style="shape=agent;offsetSize=8;strokeWidth=2;" parent="CKVOiupSGa5t-Fjm2D2t-1" vertex="1">
                    <mxGeometry x="1447" y="346.64" width="100" height="60" as="geometry"/>
                </mxCell>
                <mxCell id="CKVOiupSGa5t-Fjm2D2t-93" value="2" style="shape=agent;offsetSize=8;strokeWidth=2;" parent="CKVOiupSGa5t-Fjm2D2t-1" vertex="1">
                    <mxGeometry x="1153" y="346.64" width="100" height="60" as="geometry"/>
                </mxCell>
                <mxCell id="CKVOiupSGa5t-Fjm2D2t-94" value="1" style="shape=agent;offsetSize=8;strokeWidth=2;" parent="CKVOiupSGa5t-Fjm2D2t-1" vertex="1">
                    <mxGeometry x="1253" y="346.64" width="100" height="60" as="geometry"/>
                </mxCell>
                <mxCell id="CKVOiupSGa5t-Fjm2D2t-95" value="1" style="shape=agent;offsetSize=8;strokeWidth=2;" parent="CKVOiupSGa5t-Fjm2D2t-1" vertex="1">
                    <mxGeometry x="1347" y="346.64" width="100" height="60" as="geometry"/>
                </mxCell>
                <mxCell id="CKVOiupSGa5t-Fjm2D2t-96" value="" style="endArrow=classic;html=1;entryX=0.439;entryY=-0.056;entryDx=0;entryDy=0;entryPerimeter=0;" parent="CKVOiupSGa5t-Fjm2D2t-1" edge="1">
                    <mxGeometry width="50" height="50" relative="1" as="geometry">
                        <mxPoint x="1491" y="300" as="sourcePoint"/>
                        <mxPoint x="1490.9" y="346.64" as="targetPoint"/>
                    </mxGeometry>
                </mxCell>
                <mxCell id="CKVOiupSGa5t-Fjm2D2t-97" value="Goal" style="text;html=1;align=center;verticalAlign=middle;resizable=0;points=[];autosize=1;strokeColor=#b85450;fillColor=#f8cecc;" parent="CKVOiupSGa5t-Fjm2D2t-1" vertex="1">
                    <mxGeometry x="1477" y="280" width="40" height="20" as="geometry"/>
                </mxCell>
                <mxCell id="CKVOiupSGa5t-Fjm2D2t-98" value="Goal" style="text;html=1;strokeColor=#b85450;fillColor=#f8cecc;align=center;verticalAlign=middle;whiteSpace=wrap;rounded=0;" parent="CKVOiupSGa5t-Fjm2D2t-1" vertex="1">
                    <mxGeometry x="1053" y="280" width="60" height="30" as="geometry"/>
                </mxCell>
                <mxCell id="CKVOiupSGa5t-Fjm2D2t-99" value="index 4" style="text;html=1;strokeColor=#b85450;fillColor=#f8cecc;align=center;verticalAlign=middle;whiteSpace=wrap;rounded=0;" parent="CKVOiupSGa5t-Fjm2D2t-1" vertex="1">
                    <mxGeometry x="1113" y="280" width="60" height="30" as="geometry"/>
                </mxCell>
                <mxCell id="CKVOiupSGa5t-Fjm2D2t-100" style="edgeStyle=none;html=1;entryX=0.579;entryY=1.019;entryDx=0;entryDy=0;entryPerimeter=0;" parent="CKVOiupSGa5t-Fjm2D2t-1" source="CKVOiupSGa5t-Fjm2D2t-101" target="CKVOiupSGa5t-Fjm2D2t-92" edge="1">
                    <mxGeometry relative="1" as="geometry"/>
                </mxCell>
                <mxCell id="CKVOiupSGa5t-Fjm2D2t-101" value="temp : index 4" style="text;html=1;strokeColor=#b85450;fillColor=#f8cecc;align=center;verticalAlign=middle;whiteSpace=wrap;rounded=0;" parent="CKVOiupSGa5t-Fjm2D2t-1" vertex="1">
                    <mxGeometry x="1474" y="466.64" width="60" height="30" as="geometry"/>
                </mxCell>
                <mxCell id="CKVOiupSGa5t-Fjm2D2t-102" value="Can I reach the Goal from this cell in 4 steps : YES&amp;nbsp;" style="text;html=1;strokeColor=#b85450;fillColor=#f8cecc;align=center;verticalAlign=middle;whiteSpace=wrap;rounded=0;" parent="CKVOiupSGa5t-Fjm2D2t-1" vertex="1">
                    <mxGeometry x="1334" y="496.64" width="200" height="30" as="geometry"/>
                </mxCell>
                <mxCell id="CKVOiupSGa5t-Fjm2D2t-103" value="GOAL: index 4" style="text;html=1;strokeColor=#b85450;fillColor=#f8cecc;align=center;verticalAlign=middle;whiteSpace=wrap;rounded=0;" parent="CKVOiupSGa5t-Fjm2D2t-1" vertex="1">
                    <mxGeometry x="1334" y="526.64" width="200" height="30" as="geometry"/>
                </mxCell>
                <mxCell id="CKVOiupSGa5t-Fjm2D2t-104" value="3" style="shape=agent;offsetSize=8;strokeWidth=2;" parent="CKVOiupSGa5t-Fjm2D2t-1" vertex="1">
                    <mxGeometry x="2080" y="186.64" width="100" height="60" as="geometry"/>
                </mxCell>
                <mxCell id="CKVOiupSGa5t-Fjm2D2t-105" value="4" style="shape=agent;offsetSize=8;strokeWidth=2;" parent="CKVOiupSGa5t-Fjm2D2t-1" vertex="1">
                    <mxGeometry x="2474" y="186.64" width="100" height="60" as="geometry"/>
                </mxCell>
                <mxCell id="CKVOiupSGa5t-Fjm2D2t-106" value="2" style="shape=agent;offsetSize=8;strokeWidth=2;" parent="CKVOiupSGa5t-Fjm2D2t-1" vertex="1">
                    <mxGeometry x="2180" y="186.64" width="100" height="60" as="geometry"/>
                </mxCell>
                <mxCell id="CKVOiupSGa5t-Fjm2D2t-107" value="1" style="shape=agent;offsetSize=8;strokeWidth=2;" parent="CKVOiupSGa5t-Fjm2D2t-1" vertex="1">
                    <mxGeometry x="2280" y="186.64" width="100" height="60" as="geometry"/>
                </mxCell>
                <mxCell id="CKVOiupSGa5t-Fjm2D2t-108" value="0" style="shape=agent;offsetSize=8;strokeWidth=2;" parent="CKVOiupSGa5t-Fjm2D2t-1" vertex="1">
                    <mxGeometry x="2374" y="186.64" width="100" height="60" as="geometry"/>
                </mxCell>
                <mxCell id="CKVOiupSGa5t-Fjm2D2t-109" value="Number of Jumps allowed from each cell" style="text;html=1;strokeColor=none;fillColor=none;align=center;verticalAlign=middle;whiteSpace=wrap;rounded=0;" parent="CKVOiupSGa5t-Fjm2D2t-1" vertex="1">
                    <mxGeometry x="1900" y="201.64" width="160" height="30" as="geometry"/>
                </mxCell>
                <mxCell id="CKVOiupSGa5t-Fjm2D2t-110" value="Can we reach the &lt;br&gt;Goal post from index 0" style="text;html=1;align=center;verticalAlign=middle;resizable=0;points=[];autosize=1;strokeColor=none;fillColor=none;" parent="CKVOiupSGa5t-Fjm2D2t-1" vertex="1">
                    <mxGeometry x="2070" y="140" width="140" height="30" as="geometry"/>
                </mxCell>
                <mxCell id="CKVOiupSGa5t-Fjm2D2t-111" value="" style="endArrow=classic;html=1;entryX=0.439;entryY=-0.056;entryDx=0;entryDy=0;entryPerimeter=0;" parent="CKVOiupSGa5t-Fjm2D2t-1" edge="1">
                    <mxGeometry width="50" height="50" relative="1" as="geometry">
                        <mxPoint x="2518" y="140" as="sourcePoint"/>
                        <mxPoint x="2517.9" y="186.64" as="targetPoint"/>
                    </mxGeometry>
                </mxCell>
                <mxCell id="CKVOiupSGa5t-Fjm2D2t-112" value="Goal" style="text;html=1;align=center;verticalAlign=middle;resizable=0;points=[];autosize=1;strokeColor=#b85450;fillColor=#f8cecc;" parent="CKVOiupSGa5t-Fjm2D2t-1" vertex="1">
                    <mxGeometry x="2504" y="120" width="40" height="20" as="geometry"/>
                </mxCell>
                <mxCell id="CKVOiupSGa5t-Fjm2D2t-113" value="3" style="shape=agent;offsetSize=8;strokeWidth=2;" parent="CKVOiupSGa5t-Fjm2D2t-1" vertex="1">
                    <mxGeometry x="2073" y="366.64" width="100" height="60" as="geometry"/>
                </mxCell>
                <mxCell id="CKVOiupSGa5t-Fjm2D2t-114" value="4" style="shape=agent;offsetSize=8;strokeWidth=2;" parent="CKVOiupSGa5t-Fjm2D2t-1" vertex="1">
                    <mxGeometry x="2467" y="366.64" width="100" height="60" as="geometry"/>
                </mxCell>
                <mxCell id="CKVOiupSGa5t-Fjm2D2t-115" value="2" style="shape=agent;offsetSize=8;strokeWidth=2;" parent="CKVOiupSGa5t-Fjm2D2t-1" vertex="1">
                    <mxGeometry x="2173" y="366.64" width="100" height="60" as="geometry"/>
                </mxCell>
                <mxCell id="CKVOiupSGa5t-Fjm2D2t-116" value="1" style="shape=agent;offsetSize=8;strokeWidth=2;" parent="CKVOiupSGa5t-Fjm2D2t-1" vertex="1">
                    <mxGeometry x="2273" y="366.64" width="100" height="60" as="geometry"/>
                </mxCell>
                <mxCell id="CKVOiupSGa5t-Fjm2D2t-117" value="0" style="shape=agent;offsetSize=8;strokeWidth=2;" parent="CKVOiupSGa5t-Fjm2D2t-1" vertex="1">
                    <mxGeometry x="2367" y="366.64" width="100" height="60" as="geometry"/>
                </mxCell>
                <mxCell id="CKVOiupSGa5t-Fjm2D2t-118" value="" style="endArrow=classic;html=1;entryX=0.439;entryY=-0.056;entryDx=0;entryDy=0;entryPerimeter=0;" parent="CKVOiupSGa5t-Fjm2D2t-1" edge="1">
                    <mxGeometry width="50" height="50" relative="1" as="geometry">
                        <mxPoint x="2511" y="320" as="sourcePoint"/>
                        <mxPoint x="2510.9" y="366.64" as="targetPoint"/>
                    </mxGeometry>
                </mxCell>
                <mxCell id="CKVOiupSGa5t-Fjm2D2t-119" value="Goal" style="text;html=1;align=center;verticalAlign=middle;resizable=0;points=[];autosize=1;strokeColor=#b85450;fillColor=#f8cecc;" parent="CKVOiupSGa5t-Fjm2D2t-1" vertex="1">
                    <mxGeometry x="2497" y="300" width="40" height="20" as="geometry"/>
                </mxCell>
                <mxCell id="CKVOiupSGa5t-Fjm2D2t-120" value="Goal" style="text;html=1;strokeColor=#b85450;fillColor=#f8cecc;align=center;verticalAlign=middle;whiteSpace=wrap;rounded=0;" parent="CKVOiupSGa5t-Fjm2D2t-1" vertex="1">
                    <mxGeometry x="2073" y="300" width="60" height="30" as="geometry"/>
                </mxCell>
                <mxCell id="CKVOiupSGa5t-Fjm2D2t-121" value="index 4" style="text;html=1;strokeColor=#b85450;fillColor=#f8cecc;align=center;verticalAlign=middle;whiteSpace=wrap;rounded=0;" parent="CKVOiupSGa5t-Fjm2D2t-1" vertex="1">
                    <mxGeometry x="2133" y="300" width="60" height="30" as="geometry"/>
                </mxCell>
                <mxCell id="CKVOiupSGa5t-Fjm2D2t-122" style="edgeStyle=none;html=1;entryX=0.579;entryY=1.019;entryDx=0;entryDy=0;entryPerimeter=0;" parent="CKVOiupSGa5t-Fjm2D2t-1" source="CKVOiupSGa5t-Fjm2D2t-123" target="CKVOiupSGa5t-Fjm2D2t-114" edge="1">
                    <mxGeometry relative="1" as="geometry"/>
                </mxCell>
                <mxCell id="CKVOiupSGa5t-Fjm2D2t-123" value="temp : index 4" style="text;html=1;strokeColor=#b85450;fillColor=#f8cecc;align=center;verticalAlign=middle;whiteSpace=wrap;rounded=0;" parent="CKVOiupSGa5t-Fjm2D2t-1" vertex="1">
                    <mxGeometry x="2494" y="486.64" width="60" height="30" as="geometry"/>
                </mxCell>
                <mxCell id="CKVOiupSGa5t-Fjm2D2t-124" value="Can I reach the Goal from this cell in 4 steps : YES&amp;nbsp;" style="text;html=1;strokeColor=#b85450;fillColor=#f8cecc;align=center;verticalAlign=middle;whiteSpace=wrap;rounded=0;" parent="CKVOiupSGa5t-Fjm2D2t-1" vertex="1">
                    <mxGeometry x="2354" y="516.64" width="200" height="30" as="geometry"/>
                </mxCell>
                <mxCell id="CKVOiupSGa5t-Fjm2D2t-125" value="3" style="shape=agent;offsetSize=8;strokeWidth=2;" parent="CKVOiupSGa5t-Fjm2D2t-1" vertex="1">
                    <mxGeometry x="2073" y="663.28" width="100" height="60" as="geometry"/>
                </mxCell>
                <mxCell id="CKVOiupSGa5t-Fjm2D2t-126" value="4" style="shape=agent;offsetSize=8;strokeWidth=2;" parent="CKVOiupSGa5t-Fjm2D2t-1" vertex="1">
                    <mxGeometry x="2467" y="663.28" width="100" height="60" as="geometry"/>
                </mxCell>
                <mxCell id="CKVOiupSGa5t-Fjm2D2t-127" value="2" style="shape=agent;offsetSize=8;strokeWidth=2;" parent="CKVOiupSGa5t-Fjm2D2t-1" vertex="1">
                    <mxGeometry x="2173" y="663.28" width="100" height="60" as="geometry"/>
                </mxCell>
                <mxCell id="CKVOiupSGa5t-Fjm2D2t-128" value="1" style="shape=agent;offsetSize=8;strokeWidth=2;" parent="CKVOiupSGa5t-Fjm2D2t-1" vertex="1">
                    <mxGeometry x="2273" y="663.28" width="100" height="60" as="geometry"/>
                </mxCell>
                <mxCell id="CKVOiupSGa5t-Fjm2D2t-129" value="0" style="shape=agent;offsetSize=8;strokeWidth=2;" parent="CKVOiupSGa5t-Fjm2D2t-1" vertex="1">
                    <mxGeometry x="2367" y="663.28" width="100" height="60" as="geometry"/>
                </mxCell>
                <mxCell id="CKVOiupSGa5t-Fjm2D2t-130" value="" style="endArrow=classic;html=1;entryX=0.439;entryY=-0.056;entryDx=0;entryDy=0;entryPerimeter=0;" parent="CKVOiupSGa5t-Fjm2D2t-1" edge="1">
                    <mxGeometry width="50" height="50" relative="1" as="geometry">
                        <mxPoint x="2516.6" y="616.64" as="sourcePoint"/>
                        <mxPoint x="2516.5" y="663.2799999999999" as="targetPoint"/>
                    </mxGeometry>
                </mxCell>
                <mxCell id="CKVOiupSGa5t-Fjm2D2t-131" value="Goal" style="text;html=1;align=center;verticalAlign=middle;resizable=0;points=[];autosize=1;strokeColor=#b85450;fillColor=#f8cecc;" parent="CKVOiupSGa5t-Fjm2D2t-1" vertex="1">
                    <mxGeometry x="2497" y="596.64" width="40" height="20" as="geometry"/>
                </mxCell>
                <mxCell id="CKVOiupSGa5t-Fjm2D2t-132" value="Goal" style="text;html=1;strokeColor=#b85450;fillColor=#f8cecc;align=center;verticalAlign=middle;whiteSpace=wrap;rounded=0;" parent="CKVOiupSGa5t-Fjm2D2t-1" vertex="1">
                    <mxGeometry x="2073" y="596.64" width="60" height="30" as="geometry"/>
                </mxCell>
                <mxCell id="CKVOiupSGa5t-Fjm2D2t-133" value="index 4" style="text;html=1;strokeColor=#b85450;fillColor=#f8cecc;align=center;verticalAlign=middle;whiteSpace=wrap;rounded=0;" parent="CKVOiupSGa5t-Fjm2D2t-1" vertex="1">
                    <mxGeometry x="2133" y="596.64" width="60" height="30" as="geometry"/>
                </mxCell>
                <mxCell id="CKVOiupSGa5t-Fjm2D2t-134" style="edgeStyle=none;html=1;entryX=0.639;entryY=1.004;entryDx=0;entryDy=0;entryPerimeter=0;" parent="CKVOiupSGa5t-Fjm2D2t-1" source="CKVOiupSGa5t-Fjm2D2t-135" target="CKVOiupSGa5t-Fjm2D2t-129" edge="1">
                    <mxGeometry relative="1" as="geometry"/>
                </mxCell>
                <mxCell id="CKVOiupSGa5t-Fjm2D2t-135" value="temp : index 3" style="text;html=1;strokeColor=#b85450;fillColor=#f8cecc;align=center;verticalAlign=middle;whiteSpace=wrap;rounded=0;" parent="CKVOiupSGa5t-Fjm2D2t-1" vertex="1">
                    <mxGeometry x="2400" y="783.28" width="60" height="30" as="geometry"/>
                </mxCell>
                <mxCell id="CKVOiupSGa5t-Fjm2D2t-136" value="Can I reach the Goal from this cell in 1 steps : NO&amp;nbsp;" style="text;html=1;strokeColor=#b85450;fillColor=#f8cecc;align=center;verticalAlign=middle;whiteSpace=wrap;rounded=0;" parent="CKVOiupSGa5t-Fjm2D2t-1" vertex="1">
                    <mxGeometry x="2260" y="813.28" width="200" height="30" as="geometry"/>
                </mxCell>
                <mxCell id="CKVOiupSGa5t-Fjm2D2t-137" value="GOAL: index 4" style="text;html=1;strokeColor=#b85450;fillColor=#f8cecc;align=center;verticalAlign=middle;whiteSpace=wrap;rounded=0;" parent="CKVOiupSGa5t-Fjm2D2t-1" vertex="1">
                    <mxGeometry x="2354" y="546.64" width="200" height="30" as="geometry"/>
                </mxCell>
                <mxCell id="CKVOiupSGa5t-Fjm2D2t-138" value="GOAL does not change" style="text;html=1;strokeColor=#d6b656;fillColor=#fff2cc;align=center;verticalAlign=middle;whiteSpace=wrap;rounded=0;" parent="CKVOiupSGa5t-Fjm2D2t-1" vertex="1">
                    <mxGeometry x="2260" y="843.28" width="200" height="30" as="geometry"/>
                </mxCell>
                <mxCell id="CKVOiupSGa5t-Fjm2D2t-139" value="3" style="shape=agent;offsetSize=8;strokeWidth=2;" parent="CKVOiupSGa5t-Fjm2D2t-1" vertex="1">
                    <mxGeometry x="2060" y="973.28" width="100" height="60" as="geometry"/>
                </mxCell>
                <mxCell id="CKVOiupSGa5t-Fjm2D2t-140" value="4" style="shape=agent;offsetSize=8;strokeWidth=2;" parent="CKVOiupSGa5t-Fjm2D2t-1" vertex="1">
                    <mxGeometry x="2454" y="973.28" width="100" height="60" as="geometry"/>
                </mxCell>
                <mxCell id="CKVOiupSGa5t-Fjm2D2t-141" value="2" style="shape=agent;offsetSize=8;strokeWidth=2;" parent="CKVOiupSGa5t-Fjm2D2t-1" vertex="1">
                    <mxGeometry x="2160" y="973.28" width="100" height="60" as="geometry"/>
                </mxCell>
                <mxCell id="CKVOiupSGa5t-Fjm2D2t-142" value="1" style="shape=agent;offsetSize=8;strokeWidth=2;" parent="CKVOiupSGa5t-Fjm2D2t-1" vertex="1">
                    <mxGeometry x="2260" y="973.28" width="100" height="60" as="geometry"/>
                </mxCell>
                <mxCell id="CKVOiupSGa5t-Fjm2D2t-143" value="0" style="shape=agent;offsetSize=8;strokeWidth=2;" parent="CKVOiupSGa5t-Fjm2D2t-1" vertex="1">
                    <mxGeometry x="2354" y="973.28" width="100" height="60" as="geometry"/>
                </mxCell>
                <mxCell id="CKVOiupSGa5t-Fjm2D2t-144" value="" style="endArrow=classic;html=1;entryX=0.439;entryY=-0.056;entryDx=0;entryDy=0;entryPerimeter=0;" parent="CKVOiupSGa5t-Fjm2D2t-1" edge="1">
                    <mxGeometry width="50" height="50" relative="1" as="geometry">
                        <mxPoint x="2511.6" y="926.64" as="sourcePoint"/>
                        <mxPoint x="2511.5" y="973.2799999999999" as="targetPoint"/>
                    </mxGeometry>
                </mxCell>
                <mxCell id="CKVOiupSGa5t-Fjm2D2t-145" value="Goal" style="text;html=1;align=center;verticalAlign=middle;resizable=0;points=[];autosize=1;strokeColor=#b85450;fillColor=#f8cecc;" parent="CKVOiupSGa5t-Fjm2D2t-1" vertex="1">
                    <mxGeometry x="2484" y="906.64" width="40" height="20" as="geometry"/>
                </mxCell>
                <mxCell id="CKVOiupSGa5t-Fjm2D2t-146" value="Goal" style="text;html=1;strokeColor=#b85450;fillColor=#f8cecc;align=center;verticalAlign=middle;whiteSpace=wrap;rounded=0;" parent="CKVOiupSGa5t-Fjm2D2t-1" vertex="1">
                    <mxGeometry x="2060" y="906.64" width="60" height="30" as="geometry"/>
                </mxCell>
                <mxCell id="CKVOiupSGa5t-Fjm2D2t-147" value="index 4" style="text;html=1;strokeColor=#b85450;fillColor=#f8cecc;align=center;verticalAlign=middle;whiteSpace=wrap;rounded=0;" parent="CKVOiupSGa5t-Fjm2D2t-1" vertex="1">
                    <mxGeometry x="2120" y="906.64" width="60" height="30" as="geometry"/>
                </mxCell>
                <mxCell id="CKVOiupSGa5t-Fjm2D2t-148" style="edgeStyle=none;html=1;entryX=0.599;entryY=0.997;entryDx=0;entryDy=0;entryPerimeter=0;" parent="CKVOiupSGa5t-Fjm2D2t-1" source="CKVOiupSGa5t-Fjm2D2t-149" target="CKVOiupSGa5t-Fjm2D2t-142" edge="1">
                    <mxGeometry relative="1" as="geometry"/>
                </mxCell>
                <mxCell id="CKVOiupSGa5t-Fjm2D2t-149" value="temp : index 2" style="text;html=1;strokeColor=#b85450;fillColor=#f8cecc;align=center;verticalAlign=middle;whiteSpace=wrap;rounded=0;" parent="CKVOiupSGa5t-Fjm2D2t-1" vertex="1">
                    <mxGeometry x="2290" y="1106.6399999999999" width="60" height="30" as="geometry"/>
                </mxCell>
                <mxCell id="CKVOiupSGa5t-Fjm2D2t-150" value="Can I reach the Goal from this cell in 1 steps : no&amp;nbsp;" style="text;html=1;strokeColor=#b85450;fillColor=#f8cecc;align=center;verticalAlign=middle;whiteSpace=wrap;rounded=0;" parent="CKVOiupSGa5t-Fjm2D2t-1" vertex="1">
                    <mxGeometry x="2150" y="1136.6399999999999" width="200" height="30" as="geometry"/>
                </mxCell>
                <mxCell id="CKVOiupSGa5t-Fjm2D2t-152" value="3" style="shape=agent;offsetSize=8;strokeWidth=2;" parent="CKVOiupSGa5t-Fjm2D2t-1" vertex="1">
                    <mxGeometry x="2070" y="1303.28" width="100" height="60" as="geometry"/>
                </mxCell>
                <mxCell id="CKVOiupSGa5t-Fjm2D2t-153" value="4" style="shape=agent;offsetSize=8;strokeWidth=2;" parent="CKVOiupSGa5t-Fjm2D2t-1" vertex="1">
                    <mxGeometry x="2464" y="1303.28" width="100" height="60" as="geometry"/>
                </mxCell>
                <mxCell id="CKVOiupSGa5t-Fjm2D2t-154" value="2" style="shape=agent;offsetSize=8;strokeWidth=2;" parent="CKVOiupSGa5t-Fjm2D2t-1" vertex="1">
                    <mxGeometry x="2170" y="1303.28" width="100" height="60" as="geometry"/>
                </mxCell>
                <mxCell id="CKVOiupSGa5t-Fjm2D2t-155" value="1" style="shape=agent;offsetSize=8;strokeWidth=2;" parent="CKVOiupSGa5t-Fjm2D2t-1" vertex="1">
                    <mxGeometry x="2270" y="1303.28" width="100" height="60" as="geometry"/>
                </mxCell>
                <mxCell id="CKVOiupSGa5t-Fjm2D2t-156" value="0" style="shape=agent;offsetSize=8;strokeWidth=2;" parent="CKVOiupSGa5t-Fjm2D2t-1" vertex="1">
                    <mxGeometry x="2364" y="1303.28" width="100" height="60" as="geometry"/>
                </mxCell>
                <mxCell id="CKVOiupSGa5t-Fjm2D2t-158" value="Goal" style="text;html=1;align=center;verticalAlign=middle;resizable=0;points=[];autosize=1;strokeColor=#b85450;fillColor=#f8cecc;" parent="CKVOiupSGa5t-Fjm2D2t-1" vertex="1">
                    <mxGeometry x="2210" y="1236.64" width="40" height="20" as="geometry"/>
                </mxCell>
                <mxCell id="CKVOiupSGa5t-Fjm2D2t-159" value="Goal" style="text;html=1;strokeColor=#b85450;fillColor=#f8cecc;align=center;verticalAlign=middle;whiteSpace=wrap;rounded=0;" parent="CKVOiupSGa5t-Fjm2D2t-1" vertex="1">
                    <mxGeometry x="2070" y="1236.64" width="60" height="30" as="geometry"/>
                </mxCell>
                <mxCell id="CKVOiupSGa5t-Fjm2D2t-160" value="index 4" style="text;html=1;strokeColor=#b85450;fillColor=#f8cecc;align=center;verticalAlign=middle;whiteSpace=wrap;rounded=0;" parent="CKVOiupSGa5t-Fjm2D2t-1" vertex="1">
                    <mxGeometry x="2130" y="1236.64" width="60" height="30" as="geometry"/>
                </mxCell>
                <mxCell id="CKVOiupSGa5t-Fjm2D2t-161" style="edgeStyle=none;html=1;entryX=0.669;entryY=1;entryDx=0;entryDy=0;entryPerimeter=0;" parent="CKVOiupSGa5t-Fjm2D2t-1" source="CKVOiupSGa5t-Fjm2D2t-162" target="CKVOiupSGa5t-Fjm2D2t-154" edge="1">
                    <mxGeometry relative="1" as="geometry"/>
                </mxCell>
                <mxCell id="CKVOiupSGa5t-Fjm2D2t-162" value="temp : index 1" style="text;html=1;strokeColor=#b85450;fillColor=#f8cecc;align=center;verticalAlign=middle;whiteSpace=wrap;rounded=0;" parent="CKVOiupSGa5t-Fjm2D2t-1" vertex="1">
                    <mxGeometry x="2200" y="1426.6399999999999" width="60" height="30" as="geometry"/>
                </mxCell>
                <mxCell id="CKVOiupSGa5t-Fjm2D2t-163" value="Can I reach the Goal from this cell in 2 steps : NO&amp;nbsp;" style="text;html=1;strokeColor=#b85450;fillColor=#f8cecc;align=center;verticalAlign=middle;whiteSpace=wrap;rounded=0;" parent="CKVOiupSGa5t-Fjm2D2t-1" vertex="1">
                    <mxGeometry x="2060" y="1456.6399999999999" width="200" height="30" as="geometry"/>
                </mxCell>
                <mxCell id="CKVOiupSGa5t-Fjm2D2t-165" value="3" style="shape=agent;offsetSize=8;strokeWidth=2;fillColor=#f8cecc;strokeColor=#b85450;" parent="CKVOiupSGa5t-Fjm2D2t-1" vertex="1">
                    <mxGeometry x="2068" y="1663.28" width="100" height="60" as="geometry"/>
                </mxCell>
                <mxCell id="CKVOiupSGa5t-Fjm2D2t-166" value="4" style="shape=agent;offsetSize=8;strokeWidth=2;" parent="CKVOiupSGa5t-Fjm2D2t-1" vertex="1">
                    <mxGeometry x="2462" y="1663.28" width="100" height="60" as="geometry"/>
                </mxCell>
                <mxCell id="CKVOiupSGa5t-Fjm2D2t-167" value="2" style="shape=agent;offsetSize=8;strokeWidth=2;" parent="CKVOiupSGa5t-Fjm2D2t-1" vertex="1">
                    <mxGeometry x="2168" y="1663.28" width="100" height="60" as="geometry"/>
                </mxCell>
                <mxCell id="CKVOiupSGa5t-Fjm2D2t-168" value="1" style="shape=agent;offsetSize=8;strokeWidth=2;" parent="CKVOiupSGa5t-Fjm2D2t-1" vertex="1">
                    <mxGeometry x="2268" y="1663.28" width="100" height="60" as="geometry"/>
                </mxCell>
                <mxCell id="CKVOiupSGa5t-Fjm2D2t-169" value="0" style="shape=agent;offsetSize=8;strokeWidth=2;" parent="CKVOiupSGa5t-Fjm2D2t-1" vertex="1">
                    <mxGeometry x="2362" y="1663.28" width="100" height="60" as="geometry"/>
                </mxCell>
                <mxCell id="CKVOiupSGa5t-Fjm2D2t-172" value="Goal" style="text;html=1;strokeColor=#b85450;fillColor=#f8cecc;align=center;verticalAlign=middle;whiteSpace=wrap;rounded=0;" parent="CKVOiupSGa5t-Fjm2D2t-1" vertex="1">
                    <mxGeometry x="2068" y="1596.64" width="60" height="30" as="geometry"/>
                </mxCell>
                <mxCell id="CKVOiupSGa5t-Fjm2D2t-173" value="index 4" style="text;html=1;strokeColor=#b85450;fillColor=#f8cecc;align=center;verticalAlign=middle;whiteSpace=wrap;rounded=0;" parent="CKVOiupSGa5t-Fjm2D2t-1" vertex="1">
                    <mxGeometry x="2128" y="1596.64" width="60" height="30" as="geometry"/>
                </mxCell>
                <mxCell id="CKVOiupSGa5t-Fjm2D2t-174" style="edgeStyle=none;html=1;entryX=0.5;entryY=1;entryDx=0;entryDy=0;" parent="CKVOiupSGa5t-Fjm2D2t-1" source="CKVOiupSGa5t-Fjm2D2t-175" target="CKVOiupSGa5t-Fjm2D2t-165" edge="1">
                    <mxGeometry relative="1" as="geometry"/>
                </mxCell>
                <mxCell id="CKVOiupSGa5t-Fjm2D2t-175" value="temp : index 0" style="text;html=1;strokeColor=#b85450;fillColor=#f8cecc;align=center;verticalAlign=middle;whiteSpace=wrap;rounded=0;" parent="CKVOiupSGa5t-Fjm2D2t-1" vertex="1">
                    <mxGeometry x="2203" y="1786.6399999999999" width="60" height="30" as="geometry"/>
                </mxCell>
                <mxCell id="CKVOiupSGa5t-Fjm2D2t-176" value="Can I reach the Goal from this cell in 3 steps : NO&amp;nbsp;" style="text;html=1;strokeColor=#b85450;fillColor=#f8cecc;align=center;verticalAlign=middle;whiteSpace=wrap;rounded=0;" parent="CKVOiupSGa5t-Fjm2D2t-1" vertex="1">
                    <mxGeometry x="2063" y="1816.6399999999999" width="200" height="30" as="geometry"/>
                </mxCell>
                <mxCell id="CKVOiupSGa5t-Fjm2D2t-177" value="GOAL: index 4" style="text;html=1;strokeColor=#b85450;fillColor=#f8cecc;align=center;verticalAlign=middle;whiteSpace=wrap;rounded=0;" parent="CKVOiupSGa5t-Fjm2D2t-1" vertex="1">
                    <mxGeometry x="2063" y="1846.6399999999999" width="200" height="30" as="geometry"/>
                </mxCell>
                <mxCell id="CKVOiupSGa5t-Fjm2D2t-178" value="GOAL does not change" style="text;html=1;strokeColor=#d6b656;fillColor=#fff2cc;align=center;verticalAlign=middle;whiteSpace=wrap;rounded=0;" parent="CKVOiupSGa5t-Fjm2D2t-1" vertex="1">
                    <mxGeometry x="2150" y="1166.64" width="200" height="30" as="geometry"/>
                </mxCell>
                <mxCell id="CKVOiupSGa5t-Fjm2D2t-181" value="" style="endArrow=classic;html=1;entryX=0.439;entryY=-0.056;entryDx=0;entryDy=0;entryPerimeter=0;" parent="CKVOiupSGa5t-Fjm2D2t-1" edge="1">
                    <mxGeometry width="50" height="50" relative="1" as="geometry">
                        <mxPoint x="2511.6" y="1256.64" as="sourcePoint"/>
                        <mxPoint x="2511.5" y="1303.28" as="targetPoint"/>
                    </mxGeometry>
                </mxCell>
                <mxCell id="CKVOiupSGa5t-Fjm2D2t-182" value="Goal" style="text;html=1;align=center;verticalAlign=middle;resizable=0;points=[];autosize=1;strokeColor=#b85450;fillColor=#f8cecc;" parent="CKVOiupSGa5t-Fjm2D2t-1" vertex="1">
                    <mxGeometry x="2492" y="1236.64" width="40" height="20" as="geometry"/>
                </mxCell>
                <mxCell id="CKVOiupSGa5t-Fjm2D2t-183" value="GOAL does not change" style="text;html=1;strokeColor=#d6b656;fillColor=#fff2cc;align=center;verticalAlign=middle;whiteSpace=wrap;rounded=0;" parent="CKVOiupSGa5t-Fjm2D2t-1" vertex="1">
                    <mxGeometry x="2058" y="1486.64" width="200" height="30" as="geometry"/>
                </mxCell>
                <mxCell id="CKVOiupSGa5t-Fjm2D2t-184" value="" style="endArrow=classic;html=1;entryX=0.439;entryY=-0.056;entryDx=0;entryDy=0;entryPerimeter=0;" parent="CKVOiupSGa5t-Fjm2D2t-1" edge="1">
                    <mxGeometry width="50" height="50" relative="1" as="geometry">
                        <mxPoint x="2523.6" y="1616.64" as="sourcePoint"/>
                        <mxPoint x="2523.5" y="1663.28" as="targetPoint"/>
                    </mxGeometry>
                </mxCell>
                <mxCell id="CKVOiupSGa5t-Fjm2D2t-185" value="Goal" style="text;html=1;align=center;verticalAlign=middle;resizable=0;points=[];autosize=1;strokeColor=#b85450;fillColor=#f8cecc;" parent="CKVOiupSGa5t-Fjm2D2t-1" vertex="1">
                    <mxGeometry x="2504" y="1596.64" width="40" height="20" as="geometry"/>
                </mxCell>
            </root>
        </mxGraphModel>
    </diagram>
    <diagram id="Wj-u9J_xEwrNa1J4RzTx" name="Page-3">
        <mxGraphModel dx="1462" dy="2027" grid="1" gridSize="10" guides="1" tooltips="1" connect="1" arrows="1" fold="1" page="1" pageScale="1" pageWidth="827" pageHeight="1169" math="0" shadow="0">
            <root>
                <mxCell id="BVoeCNwSUY5Qz9HcU3k7-0"/>
                <mxCell id="BVoeCNwSUY5Qz9HcU3k7-1" parent="BVoeCNwSUY5Qz9HcU3k7-0"/>
                <mxCell id="BVoeCNwSUY5Qz9HcU3k7-40" value="Solved" style="rounded=0;whiteSpace=wrap;html=1;fontSize=24;fillColor=#d5e8d4;strokeColor=#82b366;" vertex="1" parent="BVoeCNwSUY5Qz9HcU3k7-1">
                    <mxGeometry x="-80" y="-30" width="820" height="290" as="geometry"/>
                </mxCell>
                <mxCell id="BVoeCNwSUY5Qz9HcU3k7-10" style="edgeStyle=none;html=1;fontSize=24;entryX=0.5;entryY=0;entryDx=0;entryDy=0;" edge="1" parent="BVoeCNwSUY5Qz9HcU3k7-1" source="BVoeCNwSUY5Qz9HcU3k7-2" target="BVoeCNwSUY5Qz9HcU3k7-4">
                    <mxGeometry relative="1" as="geometry"/>
                </mxCell>
                <mxCell id="BVoeCNwSUY5Qz9HcU3k7-11" style="edgeStyle=none;html=1;entryX=0.5;entryY=0;entryDx=0;entryDy=0;fontSize=24;" edge="1" parent="BVoeCNwSUY5Qz9HcU3k7-1" source="BVoeCNwSUY5Qz9HcU3k7-2" target="BVoeCNwSUY5Qz9HcU3k7-6">
                    <mxGeometry relative="1" as="geometry"/>
                </mxCell>
                <mxCell id="BVoeCNwSUY5Qz9HcU3k7-33" style="edgeStyle=none;html=1;fontSize=24;strokeColor=#FF3333;" edge="1" parent="BVoeCNwSUY5Qz9HcU3k7-1" source="BVoeCNwSUY5Qz9HcU3k7-2" target="BVoeCNwSUY5Qz9HcU3k7-5">
                    <mxGeometry relative="1" as="geometry"/>
                </mxCell>
                <mxCell id="BVoeCNwSUY5Qz9HcU3k7-2" value="2" style="ellipse;whiteSpace=wrap;html=1;aspect=fixed;fontSize=24;fillColor=#fff2cc;strokeColor=#d6b656;" vertex="1" parent="BVoeCNwSUY5Qz9HcU3k7-1">
                    <mxGeometry x="180" y="130" width="80" height="80" as="geometry"/>
                </mxCell>
                <mxCell id="BVoeCNwSUY5Qz9HcU3k7-9" style="edgeStyle=none;html=1;entryX=1;entryY=0;entryDx=0;entryDy=0;fontSize=24;" edge="1" parent="BVoeCNwSUY5Qz9HcU3k7-1" source="BVoeCNwSUY5Qz9HcU3k7-3" target="BVoeCNwSUY5Qz9HcU3k7-2">
                    <mxGeometry relative="1" as="geometry"/>
                </mxCell>
                <mxCell id="BVoeCNwSUY5Qz9HcU3k7-12" style="edgeStyle=none;html=1;fontSize=24;" edge="1" parent="BVoeCNwSUY5Qz9HcU3k7-1" source="BVoeCNwSUY5Qz9HcU3k7-3" target="BVoeCNwSUY5Qz9HcU3k7-5">
                    <mxGeometry relative="1" as="geometry"/>
                </mxCell>
                <mxCell id="BVoeCNwSUY5Qz9HcU3k7-31" style="edgeStyle=none;html=1;fontSize=24;entryX=0;entryY=0.5;entryDx=0;entryDy=0;strokeColor=#FF3333;" edge="1" parent="BVoeCNwSUY5Qz9HcU3k7-1" source="BVoeCNwSUY5Qz9HcU3k7-3" target="BVoeCNwSUY5Qz9HcU3k7-32">
                    <mxGeometry relative="1" as="geometry">
                        <mxPoint x="520" y="40" as="targetPoint"/>
                    </mxGeometry>
                </mxCell>
                <mxCell id="BVoeCNwSUY5Qz9HcU3k7-3" value="1" style="ellipse;whiteSpace=wrap;html=1;aspect=fixed;fontSize=28;" vertex="1" parent="BVoeCNwSUY5Qz9HcU3k7-1">
                    <mxGeometry x="300" width="80" height="80" as="geometry"/>
                </mxCell>
                <mxCell id="BVoeCNwSUY5Qz9HcU3k7-23" style="edgeStyle=none;html=1;entryX=0.5;entryY=0;entryDx=0;entryDy=0;fontSize=24;" edge="1" parent="BVoeCNwSUY5Qz9HcU3k7-1" source="BVoeCNwSUY5Qz9HcU3k7-4" target="BVoeCNwSUY5Qz9HcU3k7-15">
                    <mxGeometry relative="1" as="geometry"/>
                </mxCell>
                <mxCell id="BVoeCNwSUY5Qz9HcU3k7-24" style="edgeStyle=none;html=1;entryX=0.5;entryY=0;entryDx=0;entryDy=0;fontSize=24;" edge="1" parent="BVoeCNwSUY5Qz9HcU3k7-1" source="BVoeCNwSUY5Qz9HcU3k7-4" target="BVoeCNwSUY5Qz9HcU3k7-16">
                    <mxGeometry relative="1" as="geometry"/>
                </mxCell>
                <mxCell id="BVoeCNwSUY5Qz9HcU3k7-4" value="4" style="ellipse;whiteSpace=wrap;html=1;aspect=fixed;fontSize=28;" vertex="1" parent="BVoeCNwSUY5Qz9HcU3k7-1">
                    <mxGeometry x="40" y="370" width="80" height="80" as="geometry"/>
                </mxCell>
                <mxCell id="BVoeCNwSUY5Qz9HcU3k7-13" style="edgeStyle=none;html=1;entryX=0.5;entryY=0;entryDx=0;entryDy=0;fontSize=24;" edge="1" parent="BVoeCNwSUY5Qz9HcU3k7-1" source="BVoeCNwSUY5Qz9HcU3k7-5" target="BVoeCNwSUY5Qz9HcU3k7-7">
                    <mxGeometry relative="1" as="geometry"/>
                </mxCell>
                <mxCell id="BVoeCNwSUY5Qz9HcU3k7-14" style="edgeStyle=none;html=1;entryX=0.5;entryY=0;entryDx=0;entryDy=0;fontSize=24;" edge="1" parent="BVoeCNwSUY5Qz9HcU3k7-1" source="BVoeCNwSUY5Qz9HcU3k7-5" target="BVoeCNwSUY5Qz9HcU3k7-8">
                    <mxGeometry relative="1" as="geometry"/>
                </mxCell>
                <mxCell id="BVoeCNwSUY5Qz9HcU3k7-5" value="3" style="ellipse;whiteSpace=wrap;html=1;aspect=fixed;fontSize=28;" vertex="1" parent="BVoeCNwSUY5Qz9HcU3k7-1">
                    <mxGeometry x="410" y="130" width="80" height="80" as="geometry"/>
                </mxCell>
                <mxCell id="BVoeCNwSUY5Qz9HcU3k7-25" style="edgeStyle=none;html=1;entryX=0.5;entryY=0;entryDx=0;entryDy=0;fontSize=24;" edge="1" parent="BVoeCNwSUY5Qz9HcU3k7-1" source="BVoeCNwSUY5Qz9HcU3k7-6" target="BVoeCNwSUY5Qz9HcU3k7-17">
                    <mxGeometry relative="1" as="geometry"/>
                </mxCell>
                <mxCell id="BVoeCNwSUY5Qz9HcU3k7-26" style="edgeStyle=none;html=1;entryX=0.5;entryY=0;entryDx=0;entryDy=0;fontSize=24;" edge="1" parent="BVoeCNwSUY5Qz9HcU3k7-1" source="BVoeCNwSUY5Qz9HcU3k7-6" target="BVoeCNwSUY5Qz9HcU3k7-18">
                    <mxGeometry relative="1" as="geometry"/>
                </mxCell>
                <mxCell id="BVoeCNwSUY5Qz9HcU3k7-6" value="5" style="ellipse;whiteSpace=wrap;html=1;aspect=fixed;fontSize=28;" vertex="1" parent="BVoeCNwSUY5Qz9HcU3k7-1">
                    <mxGeometry x="200" y="370" width="80" height="80" as="geometry"/>
                </mxCell>
                <mxCell id="BVoeCNwSUY5Qz9HcU3k7-27" style="edgeStyle=none;html=1;fontSize=24;" edge="1" parent="BVoeCNwSUY5Qz9HcU3k7-1" source="BVoeCNwSUY5Qz9HcU3k7-7" target="BVoeCNwSUY5Qz9HcU3k7-19">
                    <mxGeometry relative="1" as="geometry"/>
                </mxCell>
                <mxCell id="BVoeCNwSUY5Qz9HcU3k7-28" style="edgeStyle=none;html=1;fontSize=24;" edge="1" parent="BVoeCNwSUY5Qz9HcU3k7-1" source="BVoeCNwSUY5Qz9HcU3k7-7" target="BVoeCNwSUY5Qz9HcU3k7-20">
                    <mxGeometry relative="1" as="geometry"/>
                </mxCell>
                <mxCell id="BVoeCNwSUY5Qz9HcU3k7-7" value="6" style="ellipse;whiteSpace=wrap;html=1;aspect=fixed;fontSize=28;" vertex="1" parent="BVoeCNwSUY5Qz9HcU3k7-1">
                    <mxGeometry x="414" y="370" width="80" height="80" as="geometry"/>
                </mxCell>
                <mxCell id="BVoeCNwSUY5Qz9HcU3k7-29" style="edgeStyle=none;html=1;fontSize=24;" edge="1" parent="BVoeCNwSUY5Qz9HcU3k7-1" source="BVoeCNwSUY5Qz9HcU3k7-8" target="BVoeCNwSUY5Qz9HcU3k7-21">
                    <mxGeometry relative="1" as="geometry"/>
                </mxCell>
                <mxCell id="BVoeCNwSUY5Qz9HcU3k7-30" style="edgeStyle=none;html=1;entryX=0.5;entryY=0;entryDx=0;entryDy=0;fontSize=24;" edge="1" parent="BVoeCNwSUY5Qz9HcU3k7-1" source="BVoeCNwSUY5Qz9HcU3k7-8" target="BVoeCNwSUY5Qz9HcU3k7-22">
                    <mxGeometry relative="1" as="geometry"/>
                </mxCell>
                <mxCell id="BVoeCNwSUY5Qz9HcU3k7-8" value="7" style="ellipse;whiteSpace=wrap;html=1;aspect=fixed;fontSize=28;" vertex="1" parent="BVoeCNwSUY5Qz9HcU3k7-1">
                    <mxGeometry x="630" y="370" width="80" height="80" as="geometry"/>
                </mxCell>
                <mxCell id="BVoeCNwSUY5Qz9HcU3k7-15" value="8" style="ellipse;whiteSpace=wrap;html=1;aspect=fixed;fontSize=28;" vertex="1" parent="BVoeCNwSUY5Qz9HcU3k7-1">
                    <mxGeometry x="-160" y="545" width="80" height="80" as="geometry"/>
                </mxCell>
                <mxCell id="BVoeCNwSUY5Qz9HcU3k7-16" value="9" style="ellipse;whiteSpace=wrap;html=1;aspect=fixed;fontSize=28;" vertex="1" parent="BVoeCNwSUY5Qz9HcU3k7-1">
                    <mxGeometry x="-10" y="545" width="80" height="80" as="geometry"/>
                </mxCell>
                <mxCell id="BVoeCNwSUY5Qz9HcU3k7-17" value="10" style="ellipse;whiteSpace=wrap;html=1;aspect=fixed;fontSize=28;" vertex="1" parent="BVoeCNwSUY5Qz9HcU3k7-1">
                    <mxGeometry x="110" y="545" width="80" height="80" as="geometry"/>
                </mxCell>
                <mxCell id="BVoeCNwSUY5Qz9HcU3k7-18" value="11" style="ellipse;whiteSpace=wrap;html=1;aspect=fixed;fontSize=28;" vertex="1" parent="BVoeCNwSUY5Qz9HcU3k7-1">
                    <mxGeometry x="260" y="545" width="80" height="80" as="geometry"/>
                </mxCell>
                <mxCell id="BVoeCNwSUY5Qz9HcU3k7-19" value="12" style="ellipse;whiteSpace=wrap;html=1;aspect=fixed;fontSize=28;" vertex="1" parent="BVoeCNwSUY5Qz9HcU3k7-1">
                    <mxGeometry x="390" y="545" width="80" height="80" as="geometry"/>
                </mxCell>
                <mxCell id="BVoeCNwSUY5Qz9HcU3k7-20" value="13" style="ellipse;whiteSpace=wrap;html=1;aspect=fixed;fontSize=28;" vertex="1" parent="BVoeCNwSUY5Qz9HcU3k7-1">
                    <mxGeometry x="540" y="545" width="80" height="80" as="geometry"/>
                </mxCell>
                <mxCell id="BVoeCNwSUY5Qz9HcU3k7-21" value="14" style="ellipse;whiteSpace=wrap;html=1;aspect=fixed;fontSize=28;" vertex="1" parent="BVoeCNwSUY5Qz9HcU3k7-1">
                    <mxGeometry x="660" y="545" width="80" height="80" as="geometry"/>
                </mxCell>
                <mxCell id="BVoeCNwSUY5Qz9HcU3k7-22" value="15" style="ellipse;whiteSpace=wrap;html=1;aspect=fixed;fontSize=28;" vertex="1" parent="BVoeCNwSUY5Qz9HcU3k7-1">
                    <mxGeometry x="810" y="545" width="80" height="80" as="geometry"/>
                </mxCell>
                <mxCell id="BVoeCNwSUY5Qz9HcU3k7-32" value="null" style="text;html=1;strokeColor=#b85450;fillColor=#f8cecc;align=center;verticalAlign=middle;whiteSpace=wrap;rounded=0;fontSize=24;" vertex="1" parent="BVoeCNwSUY5Qz9HcU3k7-1">
                    <mxGeometry x="620" y="25" width="60" height="30" as="geometry"/>
                </mxCell>
                <mxCell id="BVoeCNwSUY5Qz9HcU3k7-34" style="edgeStyle=none;html=1;fontSize=24;entryX=0;entryY=0.5;entryDx=0;entryDy=0;strokeColor=#FF3333;exitX=1;exitY=0.5;exitDx=0;exitDy=0;" edge="1" parent="BVoeCNwSUY5Qz9HcU3k7-1" target="BVoeCNwSUY5Qz9HcU3k7-35" source="BVoeCNwSUY5Qz9HcU3k7-5">
                    <mxGeometry relative="1" as="geometry">
                        <mxPoint x="520" y="170" as="targetPoint"/>
                        <mxPoint x="489.99999999998954" y="180" as="sourcePoint"/>
                    </mxGeometry>
                </mxCell>
                <mxCell id="BVoeCNwSUY5Qz9HcU3k7-35" value="null" style="text;html=1;strokeColor=#b85450;fillColor=#f8cecc;align=center;verticalAlign=middle;whiteSpace=wrap;rounded=0;fontSize=24;" vertex="1" parent="BVoeCNwSUY5Qz9HcU3k7-1">
                    <mxGeometry x="620" y="155" width="60" height="30" as="geometry"/>
                </mxCell>
                <mxCell id="BVoeCNwSUY5Qz9HcU3k7-36" value="current" style="text;html=1;strokeColor=#b85450;fillColor=#f8cecc;align=center;verticalAlign=middle;whiteSpace=wrap;rounded=0;fontSize=24;" vertex="1" parent="BVoeCNwSUY5Qz9HcU3k7-1">
                    <mxGeometry x="50" y="155" width="100" height="30" as="geometry"/>
                </mxCell>
                <mxCell id="BVoeCNwSUY5Qz9HcU3k7-37" value="nextLevelStart" style="text;html=1;strokeColor=#b85450;fillColor=#f8cecc;align=center;verticalAlign=middle;whiteSpace=wrap;rounded=0;fontSize=24;" vertex="1" parent="BVoeCNwSUY5Qz9HcU3k7-1">
                    <mxGeometry x="-150" y="370" width="170" height="30" as="geometry"/>
                </mxCell>
                <mxCell id="BVoeCNwSUY5Qz9HcU3k7-41" value="Solved Area" style="rounded=0;whiteSpace=wrap;html=1;fontSize=24;fillColor=#d5e8d4;strokeColor=#82b366;opacity=50;align=left;" vertex="1" parent="BVoeCNwSUY5Qz9HcU3k7-1">
                    <mxGeometry x="-50" y="700" width="820" height="290" as="geometry"/>
                </mxCell>
                <mxCell id="BVoeCNwSUY5Qz9HcU3k7-42" style="edgeStyle=none;html=1;fontSize=24;entryX=0.5;entryY=0;entryDx=0;entryDy=0;strokeColor=#FF3333;" edge="1" parent="BVoeCNwSUY5Qz9HcU3k7-1" source="BVoeCNwSUY5Qz9HcU3k7-45" target="BVoeCNwSUY5Qz9HcU3k7-52">
                    <mxGeometry relative="1" as="geometry"/>
                </mxCell>
                <mxCell id="BVoeCNwSUY5Qz9HcU3k7-43" style="edgeStyle=none;html=1;entryX=0.5;entryY=0;entryDx=0;entryDy=0;fontSize=24;" edge="1" parent="BVoeCNwSUY5Qz9HcU3k7-1" source="BVoeCNwSUY5Qz9HcU3k7-45" target="BVoeCNwSUY5Qz9HcU3k7-58">
                    <mxGeometry relative="1" as="geometry"/>
                </mxCell>
                <mxCell id="BVoeCNwSUY5Qz9HcU3k7-44" style="edgeStyle=none;html=1;fontSize=24;strokeColor=#FF3333;" edge="1" parent="BVoeCNwSUY5Qz9HcU3k7-1" source="BVoeCNwSUY5Qz9HcU3k7-45" target="BVoeCNwSUY5Qz9HcU3k7-55">
                    <mxGeometry relative="1" as="geometry"/>
                </mxCell>
                <mxCell id="BVoeCNwSUY5Qz9HcU3k7-45" value="2" style="ellipse;whiteSpace=wrap;html=1;aspect=fixed;fontSize=24;fillColor=#fff2cc;strokeColor=#d6b656;" vertex="1" parent="BVoeCNwSUY5Qz9HcU3k7-1">
                    <mxGeometry x="210" y="860" width="80" height="80" as="geometry"/>
                </mxCell>
                <mxCell id="BVoeCNwSUY5Qz9HcU3k7-46" style="edgeStyle=none;html=1;entryX=1;entryY=0;entryDx=0;entryDy=0;fontSize=24;" edge="1" parent="BVoeCNwSUY5Qz9HcU3k7-1" source="BVoeCNwSUY5Qz9HcU3k7-49" target="BVoeCNwSUY5Qz9HcU3k7-45">
                    <mxGeometry relative="1" as="geometry"/>
                </mxCell>
                <mxCell id="BVoeCNwSUY5Qz9HcU3k7-47" style="edgeStyle=none;html=1;fontSize=24;" edge="1" parent="BVoeCNwSUY5Qz9HcU3k7-1" source="BVoeCNwSUY5Qz9HcU3k7-49" target="BVoeCNwSUY5Qz9HcU3k7-55">
                    <mxGeometry relative="1" as="geometry"/>
                </mxCell>
                <mxCell id="BVoeCNwSUY5Qz9HcU3k7-48" style="edgeStyle=none;html=1;fontSize=24;entryX=0;entryY=0.5;entryDx=0;entryDy=0;strokeColor=#FF3333;" edge="1" parent="BVoeCNwSUY5Qz9HcU3k7-1" source="BVoeCNwSUY5Qz9HcU3k7-49" target="BVoeCNwSUY5Qz9HcU3k7-73">
                    <mxGeometry relative="1" as="geometry">
                        <mxPoint x="550" y="770" as="targetPoint"/>
                    </mxGeometry>
                </mxCell>
                <mxCell id="BVoeCNwSUY5Qz9HcU3k7-49" value="1" style="ellipse;whiteSpace=wrap;html=1;aspect=fixed;fontSize=28;" vertex="1" parent="BVoeCNwSUY5Qz9HcU3k7-1">
                    <mxGeometry x="330" y="730" width="80" height="80" as="geometry"/>
                </mxCell>
                <mxCell id="BVoeCNwSUY5Qz9HcU3k7-50" style="edgeStyle=none;html=1;entryX=0.5;entryY=0;entryDx=0;entryDy=0;fontSize=24;" edge="1" parent="BVoeCNwSUY5Qz9HcU3k7-1" source="BVoeCNwSUY5Qz9HcU3k7-52" target="BVoeCNwSUY5Qz9HcU3k7-65">
                    <mxGeometry relative="1" as="geometry"/>
                </mxCell>
                <mxCell id="BVoeCNwSUY5Qz9HcU3k7-51" style="edgeStyle=none;html=1;entryX=0.5;entryY=0;entryDx=0;entryDy=0;fontSize=24;" edge="1" parent="BVoeCNwSUY5Qz9HcU3k7-1" source="BVoeCNwSUY5Qz9HcU3k7-52" target="BVoeCNwSUY5Qz9HcU3k7-66">
                    <mxGeometry relative="1" as="geometry"/>
                </mxCell>
                <mxCell id="BVoeCNwSUY5Qz9HcU3k7-78" style="edgeStyle=none;html=1;entryX=0;entryY=0.5;entryDx=0;entryDy=0;fontSize=24;strokeColor=#FF3333;" edge="1" parent="BVoeCNwSUY5Qz9HcU3k7-1" source="BVoeCNwSUY5Qz9HcU3k7-52" target="BVoeCNwSUY5Qz9HcU3k7-58">
                    <mxGeometry relative="1" as="geometry"/>
                </mxCell>
                <mxCell id="BVoeCNwSUY5Qz9HcU3k7-52" value="4" style="ellipse;whiteSpace=wrap;html=1;aspect=fixed;fontSize=28;" vertex="1" parent="BVoeCNwSUY5Qz9HcU3k7-1">
                    <mxGeometry x="130" y="1140" width="80" height="80" as="geometry"/>
                </mxCell>
                <mxCell id="BVoeCNwSUY5Qz9HcU3k7-53" style="edgeStyle=none;html=1;entryX=0.5;entryY=0;entryDx=0;entryDy=0;fontSize=24;" edge="1" parent="BVoeCNwSUY5Qz9HcU3k7-1" source="BVoeCNwSUY5Qz9HcU3k7-55" target="BVoeCNwSUY5Qz9HcU3k7-61">
                    <mxGeometry relative="1" as="geometry"/>
                </mxCell>
                <mxCell id="BVoeCNwSUY5Qz9HcU3k7-54" style="edgeStyle=none;html=1;entryX=0.5;entryY=0;entryDx=0;entryDy=0;fontSize=24;" edge="1" parent="BVoeCNwSUY5Qz9HcU3k7-1" source="BVoeCNwSUY5Qz9HcU3k7-55" target="BVoeCNwSUY5Qz9HcU3k7-64">
                    <mxGeometry relative="1" as="geometry"/>
                </mxCell>
                <mxCell id="BVoeCNwSUY5Qz9HcU3k7-55" value="3" style="ellipse;whiteSpace=wrap;html=1;aspect=fixed;fontSize=28;" vertex="1" parent="BVoeCNwSUY5Qz9HcU3k7-1">
                    <mxGeometry x="440" y="860" width="80" height="80" as="geometry"/>
                </mxCell>
                <mxCell id="BVoeCNwSUY5Qz9HcU3k7-56" style="edgeStyle=none;html=1;entryX=0.5;entryY=0;entryDx=0;entryDy=0;fontSize=24;" edge="1" parent="BVoeCNwSUY5Qz9HcU3k7-1" source="BVoeCNwSUY5Qz9HcU3k7-58" target="BVoeCNwSUY5Qz9HcU3k7-67">
                    <mxGeometry relative="1" as="geometry"/>
                </mxCell>
                <mxCell id="BVoeCNwSUY5Qz9HcU3k7-57" style="edgeStyle=none;html=1;entryX=0.5;entryY=0;entryDx=0;entryDy=0;fontSize=24;" edge="1" parent="BVoeCNwSUY5Qz9HcU3k7-1" source="BVoeCNwSUY5Qz9HcU3k7-58" target="BVoeCNwSUY5Qz9HcU3k7-68">
                    <mxGeometry relative="1" as="geometry"/>
                </mxCell>
                <mxCell id="BVoeCNwSUY5Qz9HcU3k7-58" value="5" style="ellipse;whiteSpace=wrap;html=1;aspect=fixed;fontSize=28;" vertex="1" parent="BVoeCNwSUY5Qz9HcU3k7-1">
                    <mxGeometry x="280" y="1140" width="80" height="80" as="geometry"/>
                </mxCell>
                <mxCell id="BVoeCNwSUY5Qz9HcU3k7-59" style="edgeStyle=none;html=1;fontSize=24;" edge="1" parent="BVoeCNwSUY5Qz9HcU3k7-1" source="BVoeCNwSUY5Qz9HcU3k7-61" target="BVoeCNwSUY5Qz9HcU3k7-69">
                    <mxGeometry relative="1" as="geometry"/>
                </mxCell>
                <mxCell id="BVoeCNwSUY5Qz9HcU3k7-60" style="edgeStyle=none;html=1;fontSize=24;" edge="1" parent="BVoeCNwSUY5Qz9HcU3k7-1" source="BVoeCNwSUY5Qz9HcU3k7-61" target="BVoeCNwSUY5Qz9HcU3k7-70">
                    <mxGeometry relative="1" as="geometry"/>
                </mxCell>
                <mxCell id="BVoeCNwSUY5Qz9HcU3k7-61" value="6" style="ellipse;whiteSpace=wrap;html=1;aspect=fixed;fontSize=28;" vertex="1" parent="BVoeCNwSUY5Qz9HcU3k7-1">
                    <mxGeometry x="400" y="1140" width="80" height="80" as="geometry"/>
                </mxCell>
                <mxCell id="BVoeCNwSUY5Qz9HcU3k7-62" style="edgeStyle=none;html=1;fontSize=24;" edge="1" parent="BVoeCNwSUY5Qz9HcU3k7-1" source="BVoeCNwSUY5Qz9HcU3k7-64" target="BVoeCNwSUY5Qz9HcU3k7-71">
                    <mxGeometry relative="1" as="geometry"/>
                </mxCell>
                <mxCell id="BVoeCNwSUY5Qz9HcU3k7-63" style="edgeStyle=none;html=1;entryX=0.5;entryY=0;entryDx=0;entryDy=0;fontSize=24;" edge="1" parent="BVoeCNwSUY5Qz9HcU3k7-1" source="BVoeCNwSUY5Qz9HcU3k7-64" target="BVoeCNwSUY5Qz9HcU3k7-72">
                    <mxGeometry relative="1" as="geometry"/>
                </mxCell>
                <mxCell id="BVoeCNwSUY5Qz9HcU3k7-64" value="7" style="ellipse;whiteSpace=wrap;html=1;aspect=fixed;fontSize=28;" vertex="1" parent="BVoeCNwSUY5Qz9HcU3k7-1">
                    <mxGeometry x="550" y="1140" width="80" height="80" as="geometry"/>
                </mxCell>
                <mxCell id="BVoeCNwSUY5Qz9HcU3k7-65" value="8" style="ellipse;whiteSpace=wrap;html=1;aspect=fixed;fontSize=28;" vertex="1" parent="BVoeCNwSUY5Qz9HcU3k7-1">
                    <mxGeometry x="-130" y="1315" width="80" height="80" as="geometry"/>
                </mxCell>
                <mxCell id="BVoeCNwSUY5Qz9HcU3k7-66" value="9" style="ellipse;whiteSpace=wrap;html=1;aspect=fixed;fontSize=28;" vertex="1" parent="BVoeCNwSUY5Qz9HcU3k7-1">
                    <mxGeometry x="20" y="1315" width="80" height="80" as="geometry"/>
                </mxCell>
                <mxCell id="BVoeCNwSUY5Qz9HcU3k7-67" value="10" style="ellipse;whiteSpace=wrap;html=1;aspect=fixed;fontSize=28;" vertex="1" parent="BVoeCNwSUY5Qz9HcU3k7-1">
                    <mxGeometry x="140" y="1315" width="80" height="80" as="geometry"/>
                </mxCell>
                <mxCell id="BVoeCNwSUY5Qz9HcU3k7-68" value="11" style="ellipse;whiteSpace=wrap;html=1;aspect=fixed;fontSize=28;" vertex="1" parent="BVoeCNwSUY5Qz9HcU3k7-1">
                    <mxGeometry x="290" y="1315" width="80" height="80" as="geometry"/>
                </mxCell>
                <mxCell id="BVoeCNwSUY5Qz9HcU3k7-69" value="12" style="ellipse;whiteSpace=wrap;html=1;aspect=fixed;fontSize=28;" vertex="1" parent="BVoeCNwSUY5Qz9HcU3k7-1">
                    <mxGeometry x="420" y="1315" width="80" height="80" as="geometry"/>
                </mxCell>
                <mxCell id="BVoeCNwSUY5Qz9HcU3k7-70" value="13" style="ellipse;whiteSpace=wrap;html=1;aspect=fixed;fontSize=28;" vertex="1" parent="BVoeCNwSUY5Qz9HcU3k7-1">
                    <mxGeometry x="570" y="1315" width="80" height="80" as="geometry"/>
                </mxCell>
                <mxCell id="BVoeCNwSUY5Qz9HcU3k7-71" value="14" style="ellipse;whiteSpace=wrap;html=1;aspect=fixed;fontSize=28;" vertex="1" parent="BVoeCNwSUY5Qz9HcU3k7-1">
                    <mxGeometry x="690" y="1315" width="80" height="80" as="geometry"/>
                </mxCell>
                <mxCell id="BVoeCNwSUY5Qz9HcU3k7-72" value="15" style="ellipse;whiteSpace=wrap;html=1;aspect=fixed;fontSize=28;" vertex="1" parent="BVoeCNwSUY5Qz9HcU3k7-1">
                    <mxGeometry x="840" y="1315" width="80" height="80" as="geometry"/>
                </mxCell>
                <mxCell id="BVoeCNwSUY5Qz9HcU3k7-73" value="null" style="text;html=1;strokeColor=#b85450;fillColor=#f8cecc;align=center;verticalAlign=middle;whiteSpace=wrap;rounded=0;fontSize=24;" vertex="1" parent="BVoeCNwSUY5Qz9HcU3k7-1">
                    <mxGeometry x="650" y="755" width="60" height="30" as="geometry"/>
                </mxCell>
                <mxCell id="BVoeCNwSUY5Qz9HcU3k7-74" style="edgeStyle=none;html=1;fontSize=24;entryX=0;entryY=0.5;entryDx=0;entryDy=0;strokeColor=#FF3333;exitX=1;exitY=0.5;exitDx=0;exitDy=0;" edge="1" parent="BVoeCNwSUY5Qz9HcU3k7-1" source="BVoeCNwSUY5Qz9HcU3k7-55" target="BVoeCNwSUY5Qz9HcU3k7-75">
                    <mxGeometry relative="1" as="geometry">
                        <mxPoint x="550" y="900" as="targetPoint"/>
                        <mxPoint x="519.9999999999895" y="910" as="sourcePoint"/>
                    </mxGeometry>
                </mxCell>
                <mxCell id="BVoeCNwSUY5Qz9HcU3k7-75" value="null" style="text;html=1;strokeColor=#b85450;fillColor=#f8cecc;align=center;verticalAlign=middle;whiteSpace=wrap;rounded=0;fontSize=24;" vertex="1" parent="BVoeCNwSUY5Qz9HcU3k7-1">
                    <mxGeometry x="650" y="885" width="60" height="30" as="geometry"/>
                </mxCell>
                <mxCell id="BVoeCNwSUY5Qz9HcU3k7-76" value="current" style="text;html=1;strokeColor=#b85450;fillColor=#f8cecc;align=center;verticalAlign=middle;whiteSpace=wrap;rounded=0;fontSize=24;" vertex="1" parent="BVoeCNwSUY5Qz9HcU3k7-1">
                    <mxGeometry x="80" y="885" width="100" height="30" as="geometry"/>
                </mxCell>
                <mxCell id="BVoeCNwSUY5Qz9HcU3k7-77" value="nextLevelStart" style="text;html=1;strokeColor=#b85450;fillColor=#f8cecc;align=center;verticalAlign=middle;whiteSpace=wrap;rounded=0;fontSize=24;" vertex="1" parent="BVoeCNwSUY5Qz9HcU3k7-1">
                    <mxGeometry x="-40" y="1170" width="170" height="30" as="geometry"/>
                </mxCell>
                <mxCell id="BVoeCNwSUY5Qz9HcU3k7-80" style="edgeStyle=none;html=1;fontSize=24;strokeColor=#0A0101;exitX=0.5;exitY=1;exitDx=0;exitDy=0;dashed=1;" edge="1" parent="BVoeCNwSUY5Qz9HcU3k7-1" source="BVoeCNwSUY5Qz9HcU3k7-79">
                    <mxGeometry relative="1" as="geometry">
                        <mxPoint x="250" y="1180" as="targetPoint"/>
                        <Array as="points">
                            <mxPoint x="-65" y="1110"/>
                            <mxPoint x="250" y="1110"/>
                        </Array>
                    </mxGeometry>
                </mxCell>
                <mxCell id="BVoeCNwSUY5Qz9HcU3k7-79" value="current.left.next = current.right;" style="text;whiteSpace=wrap;html=1;fontSize=24;fillColor=#dae8fc;strokeColor=#6c8ebf;" vertex="1" parent="BVoeCNwSUY5Qz9HcU3k7-1">
                    <mxGeometry x="-240" y="1050" width="350" height="40" as="geometry"/>
                </mxCell>
                <mxCell id="BVoeCNwSUY5Qz9HcU3k7-81" value="Solved Area" style="rounded=0;whiteSpace=wrap;html=1;fontSize=24;fillColor=#d5e8d4;strokeColor=#82b366;opacity=50;align=left;" vertex="1" parent="BVoeCNwSUY5Qz9HcU3k7-1">
                    <mxGeometry x="-50" y="1500" width="820" height="290" as="geometry"/>
                </mxCell>
                <mxCell id="BVoeCNwSUY5Qz9HcU3k7-82" style="edgeStyle=none;html=1;fontSize=24;entryX=0.5;entryY=0;entryDx=0;entryDy=0;strokeColor=#FF3333;" edge="1" parent="BVoeCNwSUY5Qz9HcU3k7-1" source="BVoeCNwSUY5Qz9HcU3k7-85" target="BVoeCNwSUY5Qz9HcU3k7-93">
                    <mxGeometry relative="1" as="geometry"/>
                </mxCell>
                <mxCell id="BVoeCNwSUY5Qz9HcU3k7-83" style="edgeStyle=none;html=1;entryX=0.5;entryY=0;entryDx=0;entryDy=0;fontSize=24;" edge="1" parent="BVoeCNwSUY5Qz9HcU3k7-1" source="BVoeCNwSUY5Qz9HcU3k7-85" target="BVoeCNwSUY5Qz9HcU3k7-99">
                    <mxGeometry relative="1" as="geometry"/>
                </mxCell>
                <mxCell id="BVoeCNwSUY5Qz9HcU3k7-84" style="edgeStyle=none;html=1;fontSize=24;strokeColor=#FF3333;" edge="1" parent="BVoeCNwSUY5Qz9HcU3k7-1" source="BVoeCNwSUY5Qz9HcU3k7-85" target="BVoeCNwSUY5Qz9HcU3k7-96">
                    <mxGeometry relative="1" as="geometry"/>
                </mxCell>
                <mxCell id="BVoeCNwSUY5Qz9HcU3k7-85" value="2" style="ellipse;whiteSpace=wrap;html=1;aspect=fixed;fontSize=24;fillColor=#fff2cc;strokeColor=#d6b656;" vertex="1" parent="BVoeCNwSUY5Qz9HcU3k7-1">
                    <mxGeometry x="210" y="1660" width="80" height="80" as="geometry"/>
                </mxCell>
                <mxCell id="BVoeCNwSUY5Qz9HcU3k7-86" style="edgeStyle=none;html=1;entryX=1;entryY=0;entryDx=0;entryDy=0;fontSize=24;" edge="1" parent="BVoeCNwSUY5Qz9HcU3k7-1" source="BVoeCNwSUY5Qz9HcU3k7-89" target="BVoeCNwSUY5Qz9HcU3k7-85">
                    <mxGeometry relative="1" as="geometry"/>
                </mxCell>
                <mxCell id="BVoeCNwSUY5Qz9HcU3k7-87" style="edgeStyle=none;html=1;fontSize=24;" edge="1" parent="BVoeCNwSUY5Qz9HcU3k7-1" source="BVoeCNwSUY5Qz9HcU3k7-89" target="BVoeCNwSUY5Qz9HcU3k7-96">
                    <mxGeometry relative="1" as="geometry"/>
                </mxCell>
                <mxCell id="BVoeCNwSUY5Qz9HcU3k7-88" style="edgeStyle=none;html=1;fontSize=24;entryX=0;entryY=0.5;entryDx=0;entryDy=0;strokeColor=#FF3333;" edge="1" parent="BVoeCNwSUY5Qz9HcU3k7-1" source="BVoeCNwSUY5Qz9HcU3k7-89" target="BVoeCNwSUY5Qz9HcU3k7-114">
                    <mxGeometry relative="1" as="geometry">
                        <mxPoint x="550" y="1570" as="targetPoint"/>
                    </mxGeometry>
                </mxCell>
                <mxCell id="BVoeCNwSUY5Qz9HcU3k7-89" value="1" style="ellipse;whiteSpace=wrap;html=1;aspect=fixed;fontSize=28;" vertex="1" parent="BVoeCNwSUY5Qz9HcU3k7-1">
                    <mxGeometry x="330" y="1530" width="80" height="80" as="geometry"/>
                </mxCell>
                <mxCell id="BVoeCNwSUY5Qz9HcU3k7-90" style="edgeStyle=none;html=1;entryX=0.5;entryY=0;entryDx=0;entryDy=0;fontSize=24;" edge="1" parent="BVoeCNwSUY5Qz9HcU3k7-1" source="BVoeCNwSUY5Qz9HcU3k7-93" target="BVoeCNwSUY5Qz9HcU3k7-106">
                    <mxGeometry relative="1" as="geometry"/>
                </mxCell>
                <mxCell id="BVoeCNwSUY5Qz9HcU3k7-91" style="edgeStyle=none;html=1;entryX=0.5;entryY=0;entryDx=0;entryDy=0;fontSize=24;" edge="1" parent="BVoeCNwSUY5Qz9HcU3k7-1" source="BVoeCNwSUY5Qz9HcU3k7-93" target="BVoeCNwSUY5Qz9HcU3k7-107">
                    <mxGeometry relative="1" as="geometry"/>
                </mxCell>
                <mxCell id="BVoeCNwSUY5Qz9HcU3k7-92" style="edgeStyle=none;html=1;entryX=0;entryY=0.5;entryDx=0;entryDy=0;fontSize=24;strokeColor=#FF3333;" edge="1" parent="BVoeCNwSUY5Qz9HcU3k7-1" source="BVoeCNwSUY5Qz9HcU3k7-93" target="BVoeCNwSUY5Qz9HcU3k7-99">
                    <mxGeometry relative="1" as="geometry"/>
                </mxCell>
                <mxCell id="BVoeCNwSUY5Qz9HcU3k7-93" value="4" style="ellipse;whiteSpace=wrap;html=1;aspect=fixed;fontSize=28;" vertex="1" parent="BVoeCNwSUY5Qz9HcU3k7-1">
                    <mxGeometry x="130" y="1940" width="80" height="80" as="geometry"/>
                </mxCell>
                <mxCell id="BVoeCNwSUY5Qz9HcU3k7-94" style="edgeStyle=none;html=1;entryX=0.5;entryY=0;entryDx=0;entryDy=0;fontSize=24;" edge="1" parent="BVoeCNwSUY5Qz9HcU3k7-1" source="BVoeCNwSUY5Qz9HcU3k7-96" target="BVoeCNwSUY5Qz9HcU3k7-102">
                    <mxGeometry relative="1" as="geometry"/>
                </mxCell>
                <mxCell id="BVoeCNwSUY5Qz9HcU3k7-95" style="edgeStyle=none;html=1;entryX=0.5;entryY=0;entryDx=0;entryDy=0;fontSize=24;" edge="1" parent="BVoeCNwSUY5Qz9HcU3k7-1" source="BVoeCNwSUY5Qz9HcU3k7-96" target="BVoeCNwSUY5Qz9HcU3k7-105">
                    <mxGeometry relative="1" as="geometry"/>
                </mxCell>
                <mxCell id="BVoeCNwSUY5Qz9HcU3k7-96" value="3" style="ellipse;whiteSpace=wrap;html=1;aspect=fixed;fontSize=28;" vertex="1" parent="BVoeCNwSUY5Qz9HcU3k7-1">
                    <mxGeometry x="440" y="1660" width="80" height="80" as="geometry"/>
                </mxCell>
                <mxCell id="BVoeCNwSUY5Qz9HcU3k7-97" style="edgeStyle=none;html=1;entryX=0.5;entryY=0;entryDx=0;entryDy=0;fontSize=24;" edge="1" parent="BVoeCNwSUY5Qz9HcU3k7-1" source="BVoeCNwSUY5Qz9HcU3k7-99" target="BVoeCNwSUY5Qz9HcU3k7-108">
                    <mxGeometry relative="1" as="geometry"/>
                </mxCell>
                <mxCell id="BVoeCNwSUY5Qz9HcU3k7-98" style="edgeStyle=none;html=1;entryX=0.5;entryY=0;entryDx=0;entryDy=0;fontSize=24;" edge="1" parent="BVoeCNwSUY5Qz9HcU3k7-1" source="BVoeCNwSUY5Qz9HcU3k7-99" target="BVoeCNwSUY5Qz9HcU3k7-109">
                    <mxGeometry relative="1" as="geometry"/>
                </mxCell>
                <mxCell id="BVoeCNwSUY5Qz9HcU3k7-121" style="edgeStyle=none;html=1;entryX=0;entryY=0.5;entryDx=0;entryDy=0;fontSize=24;strokeColor=#FF3333;" edge="1" parent="BVoeCNwSUY5Qz9HcU3k7-1" source="BVoeCNwSUY5Qz9HcU3k7-99" target="BVoeCNwSUY5Qz9HcU3k7-102">
                    <mxGeometry relative="1" as="geometry"/>
                </mxCell>
                <mxCell id="BVoeCNwSUY5Qz9HcU3k7-99" value="5" style="ellipse;whiteSpace=wrap;html=1;aspect=fixed;fontSize=28;" vertex="1" parent="BVoeCNwSUY5Qz9HcU3k7-1">
                    <mxGeometry x="280" y="1940" width="80" height="80" as="geometry"/>
                </mxCell>
                <mxCell id="BVoeCNwSUY5Qz9HcU3k7-100" style="edgeStyle=none;html=1;fontSize=24;" edge="1" parent="BVoeCNwSUY5Qz9HcU3k7-1" source="BVoeCNwSUY5Qz9HcU3k7-102" target="BVoeCNwSUY5Qz9HcU3k7-110">
                    <mxGeometry relative="1" as="geometry"/>
                </mxCell>
                <mxCell id="BVoeCNwSUY5Qz9HcU3k7-101" style="edgeStyle=none;html=1;fontSize=24;" edge="1" parent="BVoeCNwSUY5Qz9HcU3k7-1" source="BVoeCNwSUY5Qz9HcU3k7-102" target="BVoeCNwSUY5Qz9HcU3k7-111">
                    <mxGeometry relative="1" as="geometry"/>
                </mxCell>
                <mxCell id="BVoeCNwSUY5Qz9HcU3k7-102" value="6" style="ellipse;whiteSpace=wrap;html=1;aspect=fixed;fontSize=28;" vertex="1" parent="BVoeCNwSUY5Qz9HcU3k7-1">
                    <mxGeometry x="400" y="1940" width="80" height="80" as="geometry"/>
                </mxCell>
                <mxCell id="BVoeCNwSUY5Qz9HcU3k7-103" style="edgeStyle=none;html=1;fontSize=24;" edge="1" parent="BVoeCNwSUY5Qz9HcU3k7-1" source="BVoeCNwSUY5Qz9HcU3k7-105" target="BVoeCNwSUY5Qz9HcU3k7-112">
                    <mxGeometry relative="1" as="geometry"/>
                </mxCell>
                <mxCell id="BVoeCNwSUY5Qz9HcU3k7-104" style="edgeStyle=none;html=1;entryX=0.5;entryY=0;entryDx=0;entryDy=0;fontSize=24;" edge="1" parent="BVoeCNwSUY5Qz9HcU3k7-1" source="BVoeCNwSUY5Qz9HcU3k7-105" target="BVoeCNwSUY5Qz9HcU3k7-113">
                    <mxGeometry relative="1" as="geometry"/>
                </mxCell>
                <mxCell id="BVoeCNwSUY5Qz9HcU3k7-105" value="7" style="ellipse;whiteSpace=wrap;html=1;aspect=fixed;fontSize=28;" vertex="1" parent="BVoeCNwSUY5Qz9HcU3k7-1">
                    <mxGeometry x="550" y="1940" width="80" height="80" as="geometry"/>
                </mxCell>
                <mxCell id="BVoeCNwSUY5Qz9HcU3k7-106" value="8" style="ellipse;whiteSpace=wrap;html=1;aspect=fixed;fontSize=28;" vertex="1" parent="BVoeCNwSUY5Qz9HcU3k7-1">
                    <mxGeometry x="-130" y="2115" width="80" height="80" as="geometry"/>
                </mxCell>
                <mxCell id="BVoeCNwSUY5Qz9HcU3k7-107" value="9" style="ellipse;whiteSpace=wrap;html=1;aspect=fixed;fontSize=28;" vertex="1" parent="BVoeCNwSUY5Qz9HcU3k7-1">
                    <mxGeometry x="20" y="2115" width="80" height="80" as="geometry"/>
                </mxCell>
                <mxCell id="BVoeCNwSUY5Qz9HcU3k7-108" value="10" style="ellipse;whiteSpace=wrap;html=1;aspect=fixed;fontSize=28;" vertex="1" parent="BVoeCNwSUY5Qz9HcU3k7-1">
                    <mxGeometry x="140" y="2115" width="80" height="80" as="geometry"/>
                </mxCell>
                <mxCell id="BVoeCNwSUY5Qz9HcU3k7-109" value="11" style="ellipse;whiteSpace=wrap;html=1;aspect=fixed;fontSize=28;" vertex="1" parent="BVoeCNwSUY5Qz9HcU3k7-1">
                    <mxGeometry x="290" y="2115" width="80" height="80" as="geometry"/>
                </mxCell>
                <mxCell id="BVoeCNwSUY5Qz9HcU3k7-110" value="12" style="ellipse;whiteSpace=wrap;html=1;aspect=fixed;fontSize=28;" vertex="1" parent="BVoeCNwSUY5Qz9HcU3k7-1">
                    <mxGeometry x="420" y="2115" width="80" height="80" as="geometry"/>
                </mxCell>
                <mxCell id="BVoeCNwSUY5Qz9HcU3k7-111" value="13" style="ellipse;whiteSpace=wrap;html=1;aspect=fixed;fontSize=28;" vertex="1" parent="BVoeCNwSUY5Qz9HcU3k7-1">
                    <mxGeometry x="570" y="2115" width="80" height="80" as="geometry"/>
                </mxCell>
                <mxCell id="BVoeCNwSUY5Qz9HcU3k7-112" value="14" style="ellipse;whiteSpace=wrap;html=1;aspect=fixed;fontSize=28;" vertex="1" parent="BVoeCNwSUY5Qz9HcU3k7-1">
                    <mxGeometry x="690" y="2115" width="80" height="80" as="geometry"/>
                </mxCell>
                <mxCell id="BVoeCNwSUY5Qz9HcU3k7-113" value="15" style="ellipse;whiteSpace=wrap;html=1;aspect=fixed;fontSize=28;" vertex="1" parent="BVoeCNwSUY5Qz9HcU3k7-1">
                    <mxGeometry x="840" y="2115" width="80" height="80" as="geometry"/>
                </mxCell>
                <mxCell id="BVoeCNwSUY5Qz9HcU3k7-114" value="null" style="text;html=1;strokeColor=#b85450;fillColor=#f8cecc;align=center;verticalAlign=middle;whiteSpace=wrap;rounded=0;fontSize=24;" vertex="1" parent="BVoeCNwSUY5Qz9HcU3k7-1">
                    <mxGeometry x="650" y="1555" width="60" height="30" as="geometry"/>
                </mxCell>
                <mxCell id="BVoeCNwSUY5Qz9HcU3k7-115" style="edgeStyle=none;html=1;fontSize=24;entryX=0;entryY=0.5;entryDx=0;entryDy=0;strokeColor=#FF3333;exitX=1;exitY=0.5;exitDx=0;exitDy=0;" edge="1" parent="BVoeCNwSUY5Qz9HcU3k7-1" source="BVoeCNwSUY5Qz9HcU3k7-96" target="BVoeCNwSUY5Qz9HcU3k7-116">
                    <mxGeometry relative="1" as="geometry">
                        <mxPoint x="550" y="1700" as="targetPoint"/>
                        <mxPoint x="519.9999999999895" y="1710" as="sourcePoint"/>
                    </mxGeometry>
                </mxCell>
                <mxCell id="BVoeCNwSUY5Qz9HcU3k7-116" value="null" style="text;html=1;strokeColor=#b85450;fillColor=#f8cecc;align=center;verticalAlign=middle;whiteSpace=wrap;rounded=0;fontSize=24;" vertex="1" parent="BVoeCNwSUY5Qz9HcU3k7-1">
                    <mxGeometry x="650" y="1685" width="60" height="30" as="geometry"/>
                </mxCell>
                <mxCell id="BVoeCNwSUY5Qz9HcU3k7-117" value="current" style="text;html=1;strokeColor=#b85450;fillColor=#f8cecc;align=center;verticalAlign=middle;whiteSpace=wrap;rounded=0;fontSize=24;" vertex="1" parent="BVoeCNwSUY5Qz9HcU3k7-1">
                    <mxGeometry x="340" y="1710" width="100" height="30" as="geometry"/>
                </mxCell>
                <mxCell id="BVoeCNwSUY5Qz9HcU3k7-118" value="nextLevelStart" style="text;html=1;strokeColor=#b85450;fillColor=#f8cecc;align=center;verticalAlign=middle;whiteSpace=wrap;rounded=0;fontSize=24;" vertex="1" parent="BVoeCNwSUY5Qz9HcU3k7-1">
                    <mxGeometry x="-40" y="1970" width="170" height="30" as="geometry"/>
                </mxCell>
                <mxCell id="BVoeCNwSUY5Qz9HcU3k7-119" style="edgeStyle=none;html=1;fontSize=24;strokeColor=#0A0101;exitX=0.5;exitY=1;exitDx=0;exitDy=0;dashed=1;" edge="1" parent="BVoeCNwSUY5Qz9HcU3k7-1" source="BVoeCNwSUY5Qz9HcU3k7-120">
                    <mxGeometry relative="1" as="geometry">
                        <mxPoint x="380" y="1980" as="targetPoint"/>
                        <Array as="points">
                            <mxPoint x="-40" y="1910"/>
                            <mxPoint x="380" y="1910"/>
                        </Array>
                    </mxGeometry>
                </mxCell>
                <mxCell id="BVoeCNwSUY5Qz9HcU3k7-120" value="current.right.next = current.next.left;" style="text;whiteSpace=wrap;html=1;fontSize=24;fillColor=#dae8fc;strokeColor=#6c8ebf;" vertex="1" parent="BVoeCNwSUY5Qz9HcU3k7-1">
                    <mxGeometry x="-240" y="1850" width="400" height="40" as="geometry"/>
                </mxCell>
                <mxCell id="BVoeCNwSUY5Qz9HcU3k7-123" style="edgeStyle=none;html=1;entryX=0.5;entryY=1;entryDx=0;entryDy=0;fontSize=24;strokeColor=#000000;dashed=1;" edge="1" parent="BVoeCNwSUY5Qz9HcU3k7-1" source="BVoeCNwSUY5Qz9HcU3k7-122" target="BVoeCNwSUY5Qz9HcU3k7-117">
                    <mxGeometry relative="1" as="geometry">
                        <Array as="points">
                            <mxPoint x="790" y="1810"/>
                            <mxPoint x="610" y="1810"/>
                            <mxPoint x="390" y="1810"/>
                        </Array>
                    </mxGeometry>
                </mxCell>
                <mxCell id="BVoeCNwSUY5Qz9HcU3k7-122" value="current= current.next" style="text;whiteSpace=wrap;html=1;fontSize=24;fillColor=#dae8fc;strokeColor=#6c8ebf;" vertex="1" parent="BVoeCNwSUY5Qz9HcU3k7-1">
                    <mxGeometry x="590" y="1830" width="400" height="40" as="geometry"/>
                </mxCell>
                <mxCell id="BVoeCNwSUY5Qz9HcU3k7-168" value="Solved Area" style="rounded=0;whiteSpace=wrap;html=1;fontSize=24;fillColor=#d5e8d4;strokeColor=#82b366;opacity=50;align=left;" vertex="1" parent="BVoeCNwSUY5Qz9HcU3k7-1">
                    <mxGeometry x="15" y="3190" width="820" height="290" as="geometry"/>
                </mxCell>
                <mxCell id="BVoeCNwSUY5Qz9HcU3k7-169" style="edgeStyle=none;html=1;fontSize=24;entryX=0.5;entryY=0;entryDx=0;entryDy=0;strokeColor=#FF3333;" edge="1" parent="BVoeCNwSUY5Qz9HcU3k7-1" source="BVoeCNwSUY5Qz9HcU3k7-172" target="BVoeCNwSUY5Qz9HcU3k7-180">
                    <mxGeometry relative="1" as="geometry"/>
                </mxCell>
                <mxCell id="BVoeCNwSUY5Qz9HcU3k7-170" style="edgeStyle=none;html=1;entryX=0.5;entryY=0;entryDx=0;entryDy=0;fontSize=24;" edge="1" parent="BVoeCNwSUY5Qz9HcU3k7-1" source="BVoeCNwSUY5Qz9HcU3k7-172" target="BVoeCNwSUY5Qz9HcU3k7-187">
                    <mxGeometry relative="1" as="geometry"/>
                </mxCell>
                <mxCell id="BVoeCNwSUY5Qz9HcU3k7-171" style="edgeStyle=none;html=1;fontSize=24;strokeColor=#FF3333;" edge="1" parent="BVoeCNwSUY5Qz9HcU3k7-1" source="BVoeCNwSUY5Qz9HcU3k7-172" target="BVoeCNwSUY5Qz9HcU3k7-183">
                    <mxGeometry relative="1" as="geometry"/>
                </mxCell>
                <mxCell id="BVoeCNwSUY5Qz9HcU3k7-172" value="2" style="ellipse;whiteSpace=wrap;html=1;aspect=fixed;fontSize=24;fillColor=#fff2cc;strokeColor=#d6b656;" vertex="1" parent="BVoeCNwSUY5Qz9HcU3k7-1">
                    <mxGeometry x="275" y="3350" width="80" height="80" as="geometry"/>
                </mxCell>
                <mxCell id="BVoeCNwSUY5Qz9HcU3k7-173" style="edgeStyle=none;html=1;entryX=1;entryY=0;entryDx=0;entryDy=0;fontSize=24;" edge="1" parent="BVoeCNwSUY5Qz9HcU3k7-1" source="BVoeCNwSUY5Qz9HcU3k7-176" target="BVoeCNwSUY5Qz9HcU3k7-172">
                    <mxGeometry relative="1" as="geometry"/>
                </mxCell>
                <mxCell id="BVoeCNwSUY5Qz9HcU3k7-174" style="edgeStyle=none;html=1;fontSize=24;" edge="1" parent="BVoeCNwSUY5Qz9HcU3k7-1" source="BVoeCNwSUY5Qz9HcU3k7-176" target="BVoeCNwSUY5Qz9HcU3k7-183">
                    <mxGeometry relative="1" as="geometry"/>
                </mxCell>
                <mxCell id="BVoeCNwSUY5Qz9HcU3k7-175" style="edgeStyle=none;html=1;fontSize=24;entryX=0;entryY=0.5;entryDx=0;entryDy=0;strokeColor=#FF3333;" edge="1" parent="BVoeCNwSUY5Qz9HcU3k7-1" source="BVoeCNwSUY5Qz9HcU3k7-176" target="BVoeCNwSUY5Qz9HcU3k7-202">
                    <mxGeometry relative="1" as="geometry">
                        <mxPoint x="615" y="3260" as="targetPoint"/>
                    </mxGeometry>
                </mxCell>
                <mxCell id="BVoeCNwSUY5Qz9HcU3k7-176" value="1" style="ellipse;whiteSpace=wrap;html=1;aspect=fixed;fontSize=28;" vertex="1" parent="BVoeCNwSUY5Qz9HcU3k7-1">
                    <mxGeometry x="395" y="3220" width="80" height="80" as="geometry"/>
                </mxCell>
                <mxCell id="BVoeCNwSUY5Qz9HcU3k7-177" style="edgeStyle=none;html=1;entryX=0.5;entryY=0;entryDx=0;entryDy=0;fontSize=24;" edge="1" parent="BVoeCNwSUY5Qz9HcU3k7-1" source="BVoeCNwSUY5Qz9HcU3k7-180" target="BVoeCNwSUY5Qz9HcU3k7-194">
                    <mxGeometry relative="1" as="geometry"/>
                </mxCell>
                <mxCell id="BVoeCNwSUY5Qz9HcU3k7-178" style="edgeStyle=none;html=1;entryX=0.5;entryY=0;entryDx=0;entryDy=0;fontSize=24;" edge="1" parent="BVoeCNwSUY5Qz9HcU3k7-1" source="BVoeCNwSUY5Qz9HcU3k7-180" target="BVoeCNwSUY5Qz9HcU3k7-195">
                    <mxGeometry relative="1" as="geometry"/>
                </mxCell>
                <mxCell id="BVoeCNwSUY5Qz9HcU3k7-179" style="edgeStyle=none;html=1;entryX=0;entryY=0.5;entryDx=0;entryDy=0;fontSize=24;strokeColor=#FF3333;" edge="1" parent="BVoeCNwSUY5Qz9HcU3k7-1" source="BVoeCNwSUY5Qz9HcU3k7-180" target="BVoeCNwSUY5Qz9HcU3k7-187">
                    <mxGeometry relative="1" as="geometry"/>
                </mxCell>
                <mxCell id="BVoeCNwSUY5Qz9HcU3k7-180" value="4" style="ellipse;whiteSpace=wrap;html=1;aspect=fixed;fontSize=28;" vertex="1" parent="BVoeCNwSUY5Qz9HcU3k7-1">
                    <mxGeometry x="195" y="3630" width="80" height="80" as="geometry"/>
                </mxCell>
                <mxCell id="BVoeCNwSUY5Qz9HcU3k7-181" style="edgeStyle=none;html=1;entryX=0.5;entryY=0;entryDx=0;entryDy=0;fontSize=24;" edge="1" parent="BVoeCNwSUY5Qz9HcU3k7-1" source="BVoeCNwSUY5Qz9HcU3k7-183" target="BVoeCNwSUY5Qz9HcU3k7-190">
                    <mxGeometry relative="1" as="geometry"/>
                </mxCell>
                <mxCell id="BVoeCNwSUY5Qz9HcU3k7-182" style="edgeStyle=none;html=1;entryX=0.5;entryY=0;entryDx=0;entryDy=0;fontSize=24;" edge="1" parent="BVoeCNwSUY5Qz9HcU3k7-1" source="BVoeCNwSUY5Qz9HcU3k7-183" target="BVoeCNwSUY5Qz9HcU3k7-193">
                    <mxGeometry relative="1" as="geometry"/>
                </mxCell>
                <mxCell id="BVoeCNwSUY5Qz9HcU3k7-183" value="3" style="ellipse;whiteSpace=wrap;html=1;aspect=fixed;fontSize=28;" vertex="1" parent="BVoeCNwSUY5Qz9HcU3k7-1">
                    <mxGeometry x="505" y="3350" width="80" height="80" as="geometry"/>
                </mxCell>
                <mxCell id="BVoeCNwSUY5Qz9HcU3k7-184" style="edgeStyle=none;html=1;entryX=0.5;entryY=0;entryDx=0;entryDy=0;fontSize=24;" edge="1" parent="BVoeCNwSUY5Qz9HcU3k7-1" source="BVoeCNwSUY5Qz9HcU3k7-187" target="BVoeCNwSUY5Qz9HcU3k7-196">
                    <mxGeometry relative="1" as="geometry"/>
                </mxCell>
                <mxCell id="BVoeCNwSUY5Qz9HcU3k7-185" style="edgeStyle=none;html=1;entryX=0.5;entryY=0;entryDx=0;entryDy=0;fontSize=24;" edge="1" parent="BVoeCNwSUY5Qz9HcU3k7-1" source="BVoeCNwSUY5Qz9HcU3k7-187" target="BVoeCNwSUY5Qz9HcU3k7-197">
                    <mxGeometry relative="1" as="geometry"/>
                </mxCell>
                <mxCell id="BVoeCNwSUY5Qz9HcU3k7-186" style="edgeStyle=none;html=1;entryX=0;entryY=0.5;entryDx=0;entryDy=0;fontSize=24;strokeColor=#FF3333;" edge="1" parent="BVoeCNwSUY5Qz9HcU3k7-1" source="BVoeCNwSUY5Qz9HcU3k7-187" target="BVoeCNwSUY5Qz9HcU3k7-190">
                    <mxGeometry relative="1" as="geometry"/>
                </mxCell>
                <mxCell id="BVoeCNwSUY5Qz9HcU3k7-187" value="5" style="ellipse;whiteSpace=wrap;html=1;aspect=fixed;fontSize=28;" vertex="1" parent="BVoeCNwSUY5Qz9HcU3k7-1">
                    <mxGeometry x="345" y="3630" width="80" height="80" as="geometry"/>
                </mxCell>
                <mxCell id="BVoeCNwSUY5Qz9HcU3k7-188" style="edgeStyle=none;html=1;fontSize=24;" edge="1" parent="BVoeCNwSUY5Qz9HcU3k7-1" source="BVoeCNwSUY5Qz9HcU3k7-190" target="BVoeCNwSUY5Qz9HcU3k7-198">
                    <mxGeometry relative="1" as="geometry"/>
                </mxCell>
                <mxCell id="BVoeCNwSUY5Qz9HcU3k7-189" style="edgeStyle=none;html=1;fontSize=24;" edge="1" parent="BVoeCNwSUY5Qz9HcU3k7-1" source="BVoeCNwSUY5Qz9HcU3k7-190" target="BVoeCNwSUY5Qz9HcU3k7-199">
                    <mxGeometry relative="1" as="geometry"/>
                </mxCell>
                <mxCell id="BVoeCNwSUY5Qz9HcU3k7-190" value="6" style="ellipse;whiteSpace=wrap;html=1;aspect=fixed;fontSize=28;" vertex="1" parent="BVoeCNwSUY5Qz9HcU3k7-1">
                    <mxGeometry x="465" y="3630" width="80" height="80" as="geometry"/>
                </mxCell>
                <mxCell id="BVoeCNwSUY5Qz9HcU3k7-191" style="edgeStyle=none;html=1;fontSize=24;" edge="1" parent="BVoeCNwSUY5Qz9HcU3k7-1" source="BVoeCNwSUY5Qz9HcU3k7-193" target="BVoeCNwSUY5Qz9HcU3k7-200">
                    <mxGeometry relative="1" as="geometry"/>
                </mxCell>
                <mxCell id="BVoeCNwSUY5Qz9HcU3k7-192" style="edgeStyle=none;html=1;entryX=0.5;entryY=0;entryDx=0;entryDy=0;fontSize=24;" edge="1" parent="BVoeCNwSUY5Qz9HcU3k7-1" source="BVoeCNwSUY5Qz9HcU3k7-193" target="BVoeCNwSUY5Qz9HcU3k7-201">
                    <mxGeometry relative="1" as="geometry"/>
                </mxCell>
                <mxCell id="BVoeCNwSUY5Qz9HcU3k7-193" value="7" style="ellipse;whiteSpace=wrap;html=1;aspect=fixed;fontSize=28;" vertex="1" parent="BVoeCNwSUY5Qz9HcU3k7-1">
                    <mxGeometry x="615" y="3630" width="80" height="80" as="geometry"/>
                </mxCell>
                <mxCell id="BVoeCNwSUY5Qz9HcU3k7-194" value="8" style="ellipse;whiteSpace=wrap;html=1;aspect=fixed;fontSize=28;" vertex="1" parent="BVoeCNwSUY5Qz9HcU3k7-1">
                    <mxGeometry x="-65" y="3805" width="80" height="80" as="geometry"/>
                </mxCell>
                <mxCell id="BVoeCNwSUY5Qz9HcU3k7-195" value="9" style="ellipse;whiteSpace=wrap;html=1;aspect=fixed;fontSize=28;" vertex="1" parent="BVoeCNwSUY5Qz9HcU3k7-1">
                    <mxGeometry x="85" y="3805" width="80" height="80" as="geometry"/>
                </mxCell>
                <mxCell id="BVoeCNwSUY5Qz9HcU3k7-196" value="10" style="ellipse;whiteSpace=wrap;html=1;aspect=fixed;fontSize=28;" vertex="1" parent="BVoeCNwSUY5Qz9HcU3k7-1">
                    <mxGeometry x="205" y="3805" width="80" height="80" as="geometry"/>
                </mxCell>
                <mxCell id="BVoeCNwSUY5Qz9HcU3k7-197" value="11" style="ellipse;whiteSpace=wrap;html=1;aspect=fixed;fontSize=28;" vertex="1" parent="BVoeCNwSUY5Qz9HcU3k7-1">
                    <mxGeometry x="355" y="3805" width="80" height="80" as="geometry"/>
                </mxCell>
                <mxCell id="BVoeCNwSUY5Qz9HcU3k7-198" value="12" style="ellipse;whiteSpace=wrap;html=1;aspect=fixed;fontSize=28;" vertex="1" parent="BVoeCNwSUY5Qz9HcU3k7-1">
                    <mxGeometry x="485" y="3805" width="80" height="80" as="geometry"/>
                </mxCell>
                <mxCell id="BVoeCNwSUY5Qz9HcU3k7-199" value="13" style="ellipse;whiteSpace=wrap;html=1;aspect=fixed;fontSize=28;" vertex="1" parent="BVoeCNwSUY5Qz9HcU3k7-1">
                    <mxGeometry x="635" y="3805" width="80" height="80" as="geometry"/>
                </mxCell>
                <mxCell id="BVoeCNwSUY5Qz9HcU3k7-200" value="14" style="ellipse;whiteSpace=wrap;html=1;aspect=fixed;fontSize=28;" vertex="1" parent="BVoeCNwSUY5Qz9HcU3k7-1">
                    <mxGeometry x="755" y="3805" width="80" height="80" as="geometry"/>
                </mxCell>
                <mxCell id="BVoeCNwSUY5Qz9HcU3k7-201" value="15" style="ellipse;whiteSpace=wrap;html=1;aspect=fixed;fontSize=28;" vertex="1" parent="BVoeCNwSUY5Qz9HcU3k7-1">
                    <mxGeometry x="905" y="3805" width="80" height="80" as="geometry"/>
                </mxCell>
                <mxCell id="BVoeCNwSUY5Qz9HcU3k7-202" value="null" style="text;html=1;strokeColor=#b85450;fillColor=#f8cecc;align=center;verticalAlign=middle;whiteSpace=wrap;rounded=0;fontSize=24;" vertex="1" parent="BVoeCNwSUY5Qz9HcU3k7-1">
                    <mxGeometry x="715" y="3245" width="60" height="30" as="geometry"/>
                </mxCell>
                <mxCell id="BVoeCNwSUY5Qz9HcU3k7-203" style="edgeStyle=none;html=1;fontSize=24;entryX=0;entryY=0.5;entryDx=0;entryDy=0;strokeColor=#FF3333;exitX=1;exitY=0.5;exitDx=0;exitDy=0;" edge="1" parent="BVoeCNwSUY5Qz9HcU3k7-1" source="BVoeCNwSUY5Qz9HcU3k7-183" target="BVoeCNwSUY5Qz9HcU3k7-204">
                    <mxGeometry relative="1" as="geometry">
                        <mxPoint x="615" y="3390" as="targetPoint"/>
                        <mxPoint x="584.9999999999895" y="3400" as="sourcePoint"/>
                    </mxGeometry>
                </mxCell>
                <mxCell id="BVoeCNwSUY5Qz9HcU3k7-204" value="null" style="text;html=1;strokeColor=#b85450;fillColor=#f8cecc;align=center;verticalAlign=middle;whiteSpace=wrap;rounded=0;fontSize=24;" vertex="1" parent="BVoeCNwSUY5Qz9HcU3k7-1">
                    <mxGeometry x="715" y="3375" width="60" height="30" as="geometry"/>
                </mxCell>
                <mxCell id="BVoeCNwSUY5Qz9HcU3k7-205" value="current" style="text;html=1;strokeColor=#b85450;fillColor=#f8cecc;align=center;verticalAlign=middle;whiteSpace=wrap;rounded=0;fontSize=24;" vertex="1" parent="BVoeCNwSUY5Qz9HcU3k7-1">
                    <mxGeometry x="25" y="3660" width="170" height="30" as="geometry"/>
                </mxCell>
                <mxCell id="BVoeCNwSUY5Qz9HcU3k7-206" style="edgeStyle=none;html=1;fontSize=24;strokeColor=#0A0101;exitX=0.5;exitY=1;exitDx=0;exitDy=0;dashed=1;entryX=0.5;entryY=0;entryDx=0;entryDy=0;" edge="1" parent="BVoeCNwSUY5Qz9HcU3k7-1" source="BVoeCNwSUY5Qz9HcU3k7-207" target="BVoeCNwSUY5Qz9HcU3k7-205">
                    <mxGeometry relative="1" as="geometry">
                        <mxPoint x="445" y="3670" as="targetPoint"/>
                        <Array as="points">
                            <mxPoint x="25" y="3600"/>
                            <mxPoint x="110" y="3600"/>
                        </Array>
                    </mxGeometry>
                </mxCell>
                <mxCell id="BVoeCNwSUY5Qz9HcU3k7-255" style="edgeStyle=none;html=1;entryX=0.5;entryY=0;entryDx=0;entryDy=0;fontSize=24;strokeColor=#000000;dashed=1;" edge="1" parent="BVoeCNwSUY5Qz9HcU3k7-1" target="BVoeCNwSUY5Qz9HcU3k7-209">
                    <mxGeometry relative="1" as="geometry">
                        <mxPoint x="-60" y="3580" as="sourcePoint"/>
                        <Array as="points">
                            <mxPoint x="-60" y="3660"/>
                            <mxPoint x="-160" y="3660"/>
                        </Array>
                    </mxGeometry>
                </mxCell>
                <mxCell id="BVoeCNwSUY5Qz9HcU3k7-207" value="current = nextLevelStart;" style="text;whiteSpace=wrap;html=1;fontSize=24;fillColor=#dae8fc;strokeColor=#6c8ebf;" vertex="1" parent="BVoeCNwSUY5Qz9HcU3k7-1">
                    <mxGeometry x="-175" y="3540" width="400" height="40" as="geometry"/>
                </mxCell>
                <mxCell id="BVoeCNwSUY5Qz9HcU3k7-209" value="nextLevelStart" style="text;html=1;strokeColor=#b85450;fillColor=#f8cecc;align=center;verticalAlign=middle;whiteSpace=wrap;rounded=0;fontSize=24;" vertex="1" parent="BVoeCNwSUY5Qz9HcU3k7-1">
                    <mxGeometry x="-240" y="3830" width="170" height="30" as="geometry"/>
                </mxCell>
                <mxCell id="BVoeCNwSUY5Qz9HcU3k7-210" value="Solved Area" style="rounded=0;whiteSpace=wrap;html=1;fontSize=24;fillColor=#d5e8d4;strokeColor=#82b366;opacity=50;align=left;" vertex="1" parent="BVoeCNwSUY5Qz9HcU3k7-1">
                    <mxGeometry x="-55" y="2250" width="820" height="290" as="geometry"/>
                </mxCell>
                <mxCell id="BVoeCNwSUY5Qz9HcU3k7-211" style="edgeStyle=none;html=1;fontSize=24;entryX=0.5;entryY=0;entryDx=0;entryDy=0;strokeColor=#FF3333;" edge="1" parent="BVoeCNwSUY5Qz9HcU3k7-1" source="BVoeCNwSUY5Qz9HcU3k7-214" target="BVoeCNwSUY5Qz9HcU3k7-222">
                    <mxGeometry relative="1" as="geometry"/>
                </mxCell>
                <mxCell id="BVoeCNwSUY5Qz9HcU3k7-212" style="edgeStyle=none;html=1;entryX=0.5;entryY=0;entryDx=0;entryDy=0;fontSize=24;" edge="1" parent="BVoeCNwSUY5Qz9HcU3k7-1" source="BVoeCNwSUY5Qz9HcU3k7-214" target="BVoeCNwSUY5Qz9HcU3k7-229">
                    <mxGeometry relative="1" as="geometry"/>
                </mxCell>
                <mxCell id="BVoeCNwSUY5Qz9HcU3k7-213" style="edgeStyle=none;html=1;fontSize=24;strokeColor=#FF3333;" edge="1" parent="BVoeCNwSUY5Qz9HcU3k7-1" source="BVoeCNwSUY5Qz9HcU3k7-214" target="BVoeCNwSUY5Qz9HcU3k7-225">
                    <mxGeometry relative="1" as="geometry"/>
                </mxCell>
                <mxCell id="BVoeCNwSUY5Qz9HcU3k7-214" value="2" style="ellipse;whiteSpace=wrap;html=1;aspect=fixed;fontSize=24;fillColor=#fff2cc;strokeColor=#d6b656;" vertex="1" parent="BVoeCNwSUY5Qz9HcU3k7-1">
                    <mxGeometry x="205" y="2410" width="80" height="80" as="geometry"/>
                </mxCell>
                <mxCell id="BVoeCNwSUY5Qz9HcU3k7-215" style="edgeStyle=none;html=1;entryX=1;entryY=0;entryDx=0;entryDy=0;fontSize=24;" edge="1" parent="BVoeCNwSUY5Qz9HcU3k7-1" source="BVoeCNwSUY5Qz9HcU3k7-218" target="BVoeCNwSUY5Qz9HcU3k7-214">
                    <mxGeometry relative="1" as="geometry"/>
                </mxCell>
                <mxCell id="BVoeCNwSUY5Qz9HcU3k7-216" style="edgeStyle=none;html=1;fontSize=24;" edge="1" parent="BVoeCNwSUY5Qz9HcU3k7-1" source="BVoeCNwSUY5Qz9HcU3k7-218" target="BVoeCNwSUY5Qz9HcU3k7-225">
                    <mxGeometry relative="1" as="geometry"/>
                </mxCell>
                <mxCell id="BVoeCNwSUY5Qz9HcU3k7-217" style="edgeStyle=none;html=1;fontSize=24;entryX=0;entryY=0.5;entryDx=0;entryDy=0;strokeColor=#FF3333;" edge="1" parent="BVoeCNwSUY5Qz9HcU3k7-1" source="BVoeCNwSUY5Qz9HcU3k7-218" target="BVoeCNwSUY5Qz9HcU3k7-244">
                    <mxGeometry relative="1" as="geometry">
                        <mxPoint x="545" y="2320" as="targetPoint"/>
                    </mxGeometry>
                </mxCell>
                <mxCell id="BVoeCNwSUY5Qz9HcU3k7-218" value="1" style="ellipse;whiteSpace=wrap;html=1;aspect=fixed;fontSize=28;" vertex="1" parent="BVoeCNwSUY5Qz9HcU3k7-1">
                    <mxGeometry x="325" y="2280" width="80" height="80" as="geometry"/>
                </mxCell>
                <mxCell id="BVoeCNwSUY5Qz9HcU3k7-219" style="edgeStyle=none;html=1;entryX=0.5;entryY=0;entryDx=0;entryDy=0;fontSize=24;" edge="1" parent="BVoeCNwSUY5Qz9HcU3k7-1" source="BVoeCNwSUY5Qz9HcU3k7-222" target="BVoeCNwSUY5Qz9HcU3k7-236">
                    <mxGeometry relative="1" as="geometry"/>
                </mxCell>
                <mxCell id="BVoeCNwSUY5Qz9HcU3k7-220" style="edgeStyle=none;html=1;entryX=0.5;entryY=0;entryDx=0;entryDy=0;fontSize=24;" edge="1" parent="BVoeCNwSUY5Qz9HcU3k7-1" source="BVoeCNwSUY5Qz9HcU3k7-222" target="BVoeCNwSUY5Qz9HcU3k7-237">
                    <mxGeometry relative="1" as="geometry"/>
                </mxCell>
                <mxCell id="BVoeCNwSUY5Qz9HcU3k7-221" style="edgeStyle=none;html=1;entryX=0;entryY=0.5;entryDx=0;entryDy=0;fontSize=24;strokeColor=#FF3333;" edge="1" parent="BVoeCNwSUY5Qz9HcU3k7-1" source="BVoeCNwSUY5Qz9HcU3k7-222" target="BVoeCNwSUY5Qz9HcU3k7-229">
                    <mxGeometry relative="1" as="geometry"/>
                </mxCell>
                <mxCell id="BVoeCNwSUY5Qz9HcU3k7-222" value="4" style="ellipse;whiteSpace=wrap;html=1;aspect=fixed;fontSize=28;" vertex="1" parent="BVoeCNwSUY5Qz9HcU3k7-1">
                    <mxGeometry x="125" y="2690" width="80" height="80" as="geometry"/>
                </mxCell>
                <mxCell id="BVoeCNwSUY5Qz9HcU3k7-223" style="edgeStyle=none;html=1;entryX=0.5;entryY=0;entryDx=0;entryDy=0;fontSize=24;" edge="1" parent="BVoeCNwSUY5Qz9HcU3k7-1" source="BVoeCNwSUY5Qz9HcU3k7-225" target="BVoeCNwSUY5Qz9HcU3k7-232">
                    <mxGeometry relative="1" as="geometry"/>
                </mxCell>
                <mxCell id="BVoeCNwSUY5Qz9HcU3k7-224" style="edgeStyle=none;html=1;entryX=0.5;entryY=0;entryDx=0;entryDy=0;fontSize=24;" edge="1" parent="BVoeCNwSUY5Qz9HcU3k7-1" source="BVoeCNwSUY5Qz9HcU3k7-225" target="BVoeCNwSUY5Qz9HcU3k7-235">
                    <mxGeometry relative="1" as="geometry"/>
                </mxCell>
                <mxCell id="BVoeCNwSUY5Qz9HcU3k7-225" value="3" style="ellipse;whiteSpace=wrap;html=1;aspect=fixed;fontSize=28;" vertex="1" parent="BVoeCNwSUY5Qz9HcU3k7-1">
                    <mxGeometry x="435" y="2410" width="80" height="80" as="geometry"/>
                </mxCell>
                <mxCell id="BVoeCNwSUY5Qz9HcU3k7-226" style="edgeStyle=none;html=1;entryX=0.5;entryY=0;entryDx=0;entryDy=0;fontSize=24;" edge="1" parent="BVoeCNwSUY5Qz9HcU3k7-1" source="BVoeCNwSUY5Qz9HcU3k7-229" target="BVoeCNwSUY5Qz9HcU3k7-238">
                    <mxGeometry relative="1" as="geometry"/>
                </mxCell>
                <mxCell id="BVoeCNwSUY5Qz9HcU3k7-227" style="edgeStyle=none;html=1;entryX=0.5;entryY=0;entryDx=0;entryDy=0;fontSize=24;" edge="1" parent="BVoeCNwSUY5Qz9HcU3k7-1" source="BVoeCNwSUY5Qz9HcU3k7-229" target="BVoeCNwSUY5Qz9HcU3k7-239">
                    <mxGeometry relative="1" as="geometry"/>
                </mxCell>
                <mxCell id="BVoeCNwSUY5Qz9HcU3k7-228" style="edgeStyle=none;html=1;entryX=0;entryY=0.5;entryDx=0;entryDy=0;fontSize=24;strokeColor=#FF3333;" edge="1" parent="BVoeCNwSUY5Qz9HcU3k7-1" source="BVoeCNwSUY5Qz9HcU3k7-229" target="BVoeCNwSUY5Qz9HcU3k7-232">
                    <mxGeometry relative="1" as="geometry"/>
                </mxCell>
                <mxCell id="BVoeCNwSUY5Qz9HcU3k7-229" value="5" style="ellipse;whiteSpace=wrap;html=1;aspect=fixed;fontSize=28;" vertex="1" parent="BVoeCNwSUY5Qz9HcU3k7-1">
                    <mxGeometry x="275" y="2690" width="80" height="80" as="geometry"/>
                </mxCell>
                <mxCell id="BVoeCNwSUY5Qz9HcU3k7-230" style="edgeStyle=none;html=1;fontSize=24;" edge="1" parent="BVoeCNwSUY5Qz9HcU3k7-1" source="BVoeCNwSUY5Qz9HcU3k7-232" target="BVoeCNwSUY5Qz9HcU3k7-240">
                    <mxGeometry relative="1" as="geometry"/>
                </mxCell>
                <mxCell id="BVoeCNwSUY5Qz9HcU3k7-231" style="edgeStyle=none;html=1;fontSize=24;" edge="1" parent="BVoeCNwSUY5Qz9HcU3k7-1" source="BVoeCNwSUY5Qz9HcU3k7-232" target="BVoeCNwSUY5Qz9HcU3k7-241">
                    <mxGeometry relative="1" as="geometry"/>
                </mxCell>
                <mxCell id="BVoeCNwSUY5Qz9HcU3k7-253" style="edgeStyle=none;html=1;entryX=0;entryY=0.5;entryDx=0;entryDy=0;fontSize=24;strokeColor=#FF3333;" edge="1" parent="BVoeCNwSUY5Qz9HcU3k7-1" source="BVoeCNwSUY5Qz9HcU3k7-232" target="BVoeCNwSUY5Qz9HcU3k7-235">
                    <mxGeometry relative="1" as="geometry"/>
                </mxCell>
                <mxCell id="BVoeCNwSUY5Qz9HcU3k7-232" value="6" style="ellipse;whiteSpace=wrap;html=1;aspect=fixed;fontSize=28;" vertex="1" parent="BVoeCNwSUY5Qz9HcU3k7-1">
                    <mxGeometry x="395" y="2690" width="80" height="80" as="geometry"/>
                </mxCell>
                <mxCell id="BVoeCNwSUY5Qz9HcU3k7-233" style="edgeStyle=none;html=1;fontSize=24;" edge="1" parent="BVoeCNwSUY5Qz9HcU3k7-1" source="BVoeCNwSUY5Qz9HcU3k7-235" target="BVoeCNwSUY5Qz9HcU3k7-242">
                    <mxGeometry relative="1" as="geometry"/>
                </mxCell>
                <mxCell id="BVoeCNwSUY5Qz9HcU3k7-234" style="edgeStyle=none;html=1;entryX=0.5;entryY=0;entryDx=0;entryDy=0;fontSize=24;" edge="1" parent="BVoeCNwSUY5Qz9HcU3k7-1" source="BVoeCNwSUY5Qz9HcU3k7-235" target="BVoeCNwSUY5Qz9HcU3k7-243">
                    <mxGeometry relative="1" as="geometry"/>
                </mxCell>
                <mxCell id="BVoeCNwSUY5Qz9HcU3k7-235" value="7" style="ellipse;whiteSpace=wrap;html=1;aspect=fixed;fontSize=28;" vertex="1" parent="BVoeCNwSUY5Qz9HcU3k7-1">
                    <mxGeometry x="545" y="2690" width="80" height="80" as="geometry"/>
                </mxCell>
                <mxCell id="BVoeCNwSUY5Qz9HcU3k7-236" value="8" style="ellipse;whiteSpace=wrap;html=1;aspect=fixed;fontSize=28;" vertex="1" parent="BVoeCNwSUY5Qz9HcU3k7-1">
                    <mxGeometry x="-135" y="2865" width="80" height="80" as="geometry"/>
                </mxCell>
                <mxCell id="BVoeCNwSUY5Qz9HcU3k7-237" value="9" style="ellipse;whiteSpace=wrap;html=1;aspect=fixed;fontSize=28;" vertex="1" parent="BVoeCNwSUY5Qz9HcU3k7-1">
                    <mxGeometry x="15" y="2865" width="80" height="80" as="geometry"/>
                </mxCell>
                <mxCell id="BVoeCNwSUY5Qz9HcU3k7-238" value="10" style="ellipse;whiteSpace=wrap;html=1;aspect=fixed;fontSize=28;" vertex="1" parent="BVoeCNwSUY5Qz9HcU3k7-1">
                    <mxGeometry x="135" y="2865" width="80" height="80" as="geometry"/>
                </mxCell>
                <mxCell id="BVoeCNwSUY5Qz9HcU3k7-239" value="11" style="ellipse;whiteSpace=wrap;html=1;aspect=fixed;fontSize=28;" vertex="1" parent="BVoeCNwSUY5Qz9HcU3k7-1">
                    <mxGeometry x="285" y="2865" width="80" height="80" as="geometry"/>
                </mxCell>
                <mxCell id="BVoeCNwSUY5Qz9HcU3k7-240" value="12" style="ellipse;whiteSpace=wrap;html=1;aspect=fixed;fontSize=28;" vertex="1" parent="BVoeCNwSUY5Qz9HcU3k7-1">
                    <mxGeometry x="415" y="2865" width="80" height="80" as="geometry"/>
                </mxCell>
                <mxCell id="BVoeCNwSUY5Qz9HcU3k7-241" value="13" style="ellipse;whiteSpace=wrap;html=1;aspect=fixed;fontSize=28;" vertex="1" parent="BVoeCNwSUY5Qz9HcU3k7-1">
                    <mxGeometry x="565" y="2865" width="80" height="80" as="geometry"/>
                </mxCell>
                <mxCell id="BVoeCNwSUY5Qz9HcU3k7-242" value="14" style="ellipse;whiteSpace=wrap;html=1;aspect=fixed;fontSize=28;" vertex="1" parent="BVoeCNwSUY5Qz9HcU3k7-1">
                    <mxGeometry x="685" y="2865" width="80" height="80" as="geometry"/>
                </mxCell>
                <mxCell id="BVoeCNwSUY5Qz9HcU3k7-243" value="15" style="ellipse;whiteSpace=wrap;html=1;aspect=fixed;fontSize=28;" vertex="1" parent="BVoeCNwSUY5Qz9HcU3k7-1">
                    <mxGeometry x="835" y="2865" width="80" height="80" as="geometry"/>
                </mxCell>
                <mxCell id="BVoeCNwSUY5Qz9HcU3k7-244" value="null" style="text;html=1;strokeColor=#b85450;fillColor=#f8cecc;align=center;verticalAlign=middle;whiteSpace=wrap;rounded=0;fontSize=24;" vertex="1" parent="BVoeCNwSUY5Qz9HcU3k7-1">
                    <mxGeometry x="645" y="2305" width="60" height="30" as="geometry"/>
                </mxCell>
                <mxCell id="BVoeCNwSUY5Qz9HcU3k7-245" style="edgeStyle=none;html=1;fontSize=24;entryX=0;entryY=0.5;entryDx=0;entryDy=0;strokeColor=#FF3333;exitX=1;exitY=0.5;exitDx=0;exitDy=0;" edge="1" parent="BVoeCNwSUY5Qz9HcU3k7-1" source="BVoeCNwSUY5Qz9HcU3k7-225" target="BVoeCNwSUY5Qz9HcU3k7-246">
                    <mxGeometry relative="1" as="geometry">
                        <mxPoint x="545" y="2450" as="targetPoint"/>
                        <mxPoint x="514.9999999999895" y="2460" as="sourcePoint"/>
                    </mxGeometry>
                </mxCell>
                <mxCell id="BVoeCNwSUY5Qz9HcU3k7-246" value="null" style="text;html=1;strokeColor=#b85450;fillColor=#f8cecc;align=center;verticalAlign=middle;whiteSpace=wrap;rounded=0;fontSize=24;" vertex="1" parent="BVoeCNwSUY5Qz9HcU3k7-1">
                    <mxGeometry x="645" y="2435" width="60" height="30" as="geometry"/>
                </mxCell>
                <mxCell id="BVoeCNwSUY5Qz9HcU3k7-247" value="current" style="text;html=1;strokeColor=#b85450;fillColor=#f8cecc;align=center;verticalAlign=middle;whiteSpace=wrap;rounded=0;fontSize=24;" vertex="1" parent="BVoeCNwSUY5Qz9HcU3k7-1">
                    <mxGeometry x="335" y="2460" width="100" height="30" as="geometry"/>
                </mxCell>
                <mxCell id="BVoeCNwSUY5Qz9HcU3k7-248" value="nextLevelStart" style="text;html=1;strokeColor=#b85450;fillColor=#f8cecc;align=center;verticalAlign=middle;whiteSpace=wrap;rounded=0;fontSize=24;" vertex="1" parent="BVoeCNwSUY5Qz9HcU3k7-1">
                    <mxGeometry x="-45" y="2720" width="170" height="30" as="geometry"/>
                </mxCell>
                <mxCell id="BVoeCNwSUY5Qz9HcU3k7-249" style="edgeStyle=none;html=1;fontSize=24;strokeColor=#0A0101;exitX=0.5;exitY=1;exitDx=0;exitDy=0;dashed=1;" edge="1" parent="BVoeCNwSUY5Qz9HcU3k7-1" source="BVoeCNwSUY5Qz9HcU3k7-250">
                    <mxGeometry relative="1" as="geometry">
                        <mxPoint x="510" y="2730" as="targetPoint"/>
                        <Array as="points">
                            <mxPoint x="-45" y="2660"/>
                            <mxPoint x="510" y="2660"/>
                        </Array>
                    </mxGeometry>
                </mxCell>
                <mxCell id="BVoeCNwSUY5Qz9HcU3k7-250" value="current.left.next = current.left;" style="text;whiteSpace=wrap;html=1;fontSize=24;fillColor=#dae8fc;strokeColor=#6c8ebf;" vertex="1" parent="BVoeCNwSUY5Qz9HcU3k7-1">
                    <mxGeometry x="-245" y="2600" width="400" height="40" as="geometry"/>
                </mxCell>
            </root>
        </mxGraphModel>
    </diagram>
    <diagram id="FB2skukJO8ddPLIndiFv" name="Page-4">
        <mxGraphModel dx="1146" dy="572" grid="1" gridSize="10" guides="1" tooltips="1" connect="1" arrows="1" fold="1" page="1" pageScale="1" pageWidth="827" pageHeight="1169" math="0" shadow="0">
            <root>
                <mxCell id="3RkJlZiACJKLhcFHY2Bg-0"/>
                <mxCell id="3RkJlZiACJKLhcFHY2Bg-1" parent="3RkJlZiACJKLhcFHY2Bg-0"/>
                <mxCell id="3RkJlZiACJKLhcFHY2Bg-2" value="3" style="rounded=0;whiteSpace=wrap;html=1;fontSize=24;opacity=50;fillColor=#e1d5e7;strokeColor=#9673a6;" vertex="1" parent="3RkJlZiACJKLhcFHY2Bg-1">
                    <mxGeometry x="270" y="180" width="60" height="60" as="geometry"/>
                </mxCell>
                <mxCell id="3RkJlZiACJKLhcFHY2Bg-3" value="2" style="rounded=0;whiteSpace=wrap;html=1;fontSize=24;opacity=50;" vertex="1" parent="3RkJlZiACJKLhcFHY2Bg-1">
                    <mxGeometry x="210" y="180" width="60" height="60" as="geometry"/>
                </mxCell>
                <mxCell id="3RkJlZiACJKLhcFHY2Bg-4" value="1" style="rounded=0;whiteSpace=wrap;html=1;fontSize=24;opacity=50;fillColor=#e1d5e7;strokeColor=#9673a6;" vertex="1" parent="3RkJlZiACJKLhcFHY2Bg-1">
                    <mxGeometry x="330" y="180" width="60" height="60" as="geometry"/>
                </mxCell>
                <mxCell id="3RkJlZiACJKLhcFHY2Bg-5" value="1" style="rounded=0;whiteSpace=wrap;html=1;fontSize=24;opacity=50;fillColor=#dae8fc;strokeColor=#6c8ebf;" vertex="1" parent="3RkJlZiACJKLhcFHY2Bg-1">
                    <mxGeometry x="390" y="180" width="60" height="60" as="geometry"/>
                </mxCell>
                <mxCell id="3RkJlZiACJKLhcFHY2Bg-6" value="2" style="rounded=0;whiteSpace=wrap;html=1;fontSize=24;opacity=50;fillColor=#dae8fc;strokeColor=#6c8ebf;" vertex="1" parent="3RkJlZiACJKLhcFHY2Bg-1">
                    <mxGeometry x="450" y="180" width="60" height="60" as="geometry"/>
                </mxCell>
                <mxCell id="3RkJlZiACJKLhcFHY2Bg-7" value="2" style="rounded=0;whiteSpace=wrap;html=1;fontSize=24;opacity=50;fillColor=#d5e8d4;strokeColor=#82b366;" vertex="1" parent="3RkJlZiACJKLhcFHY2Bg-1">
                    <mxGeometry x="510" y="180" width="60" height="60" as="geometry"/>
                </mxCell>
                <mxCell id="3RkJlZiACJKLhcFHY2Bg-8" value="1" style="rounded=0;whiteSpace=wrap;html=1;fontSize=24;opacity=50;fillColor=#d5e8d4;strokeColor=#82b366;" vertex="1" parent="3RkJlZiACJKLhcFHY2Bg-1">
                    <mxGeometry x="570" y="180" width="60" height="60" as="geometry"/>
                </mxCell>
                <mxCell id="3RkJlZiACJKLhcFHY2Bg-9" value="" style="endArrow=none;html=1;fontSize=24;strokeColor=#9673a6;strokeWidth=3;fillColor=#e1d5e7;" edge="1" parent="3RkJlZiACJKLhcFHY2Bg-1">
                    <mxGeometry width="50" height="50" relative="1" as="geometry">
                        <mxPoint x="270" y="256" as="sourcePoint"/>
                        <mxPoint x="390" y="256" as="targetPoint"/>
                    </mxGeometry>
                </mxCell>
                <mxCell id="3RkJlZiACJKLhcFHY2Bg-12" value="0" style="rounded=0;whiteSpace=wrap;html=1;fontSize=15;opacity=50;" vertex="1" parent="3RkJlZiACJKLhcFHY2Bg-1">
                    <mxGeometry x="210" y="160" width="60" height="20" as="geometry"/>
                </mxCell>
                <mxCell id="3RkJlZiACJKLhcFHY2Bg-13" value="" style="rounded=0;whiteSpace=wrap;html=1;fontSize=24;opacity=50;" vertex="1" parent="3RkJlZiACJKLhcFHY2Bg-1">
                    <mxGeometry x="270" y="160" width="60" height="20" as="geometry"/>
                </mxCell>
                <mxCell id="3RkJlZiACJKLhcFHY2Bg-14" value="1" style="rounded=0;whiteSpace=wrap;html=1;fontSize=14;opacity=50;" vertex="1" parent="3RkJlZiACJKLhcFHY2Bg-1">
                    <mxGeometry x="270" y="160" width="60" height="20" as="geometry"/>
                </mxCell>
                <mxCell id="3RkJlZiACJKLhcFHY2Bg-15" value="2" style="rounded=0;whiteSpace=wrap;html=1;fontSize=14;opacity=50;" vertex="1" parent="3RkJlZiACJKLhcFHY2Bg-1">
                    <mxGeometry x="330" y="160" width="60" height="20" as="geometry"/>
                </mxCell>
                <mxCell id="3RkJlZiACJKLhcFHY2Bg-16" value="3" style="rounded=0;whiteSpace=wrap;html=1;fontSize=14;opacity=50;" vertex="1" parent="3RkJlZiACJKLhcFHY2Bg-1">
                    <mxGeometry x="390" y="160" width="60" height="20" as="geometry"/>
                </mxCell>
                <mxCell id="3RkJlZiACJKLhcFHY2Bg-17" value="4" style="rounded=0;whiteSpace=wrap;html=1;fontSize=14;opacity=50;" vertex="1" parent="3RkJlZiACJKLhcFHY2Bg-1">
                    <mxGeometry x="450" y="160" width="60" height="20" as="geometry"/>
                </mxCell>
                <mxCell id="3RkJlZiACJKLhcFHY2Bg-18" value="5" style="rounded=0;whiteSpace=wrap;html=1;fontSize=14;opacity=50;" vertex="1" parent="3RkJlZiACJKLhcFHY2Bg-1">
                    <mxGeometry x="510" y="160" width="60" height="20" as="geometry"/>
                </mxCell>
                <mxCell id="3RkJlZiACJKLhcFHY2Bg-19" value="6" style="rounded=0;whiteSpace=wrap;html=1;fontSize=14;opacity=50;" vertex="1" parent="3RkJlZiACJKLhcFHY2Bg-1">
                    <mxGeometry x="570" y="160" width="60" height="20" as="geometry"/>
                </mxCell>
                <mxCell id="3RkJlZiACJKLhcFHY2Bg-22" value="" style="endArrow=classic;html=1;fontSize=12;strokeColor=#000000;strokeWidth=1;" edge="1" parent="3RkJlZiACJKLhcFHY2Bg-1">
                    <mxGeometry width="50" height="50" relative="1" as="geometry">
                        <mxPoint x="240" y="250" as="sourcePoint"/>
                        <mxPoint x="320" y="260" as="targetPoint"/>
                        <Array as="points">
                            <mxPoint x="250" y="290"/>
                            <mxPoint x="310" y="290"/>
                        </Array>
                    </mxGeometry>
                </mxCell>
                <mxCell id="3RkJlZiACJKLhcFHY2Bg-23" value="" style="endArrow=none;html=1;fontSize=24;strokeColor=#3333FF;strokeWidth=3;fillColor=#e1d5e7;" edge="1" parent="3RkJlZiACJKLhcFHY2Bg-1">
                    <mxGeometry width="50" height="50" relative="1" as="geometry">
                        <mxPoint x="390" y="271" as="sourcePoint"/>
                        <mxPoint x="510" y="271" as="targetPoint"/>
                    </mxGeometry>
                </mxCell>
                <mxCell id="3RkJlZiACJKLhcFHY2Bg-24" value="" style="endArrow=none;html=1;fontSize=24;strokeColor=#FF0000;strokeWidth=3;fillColor=#e1d5e7;" edge="1" parent="3RkJlZiACJKLhcFHY2Bg-1">
                    <mxGeometry width="50" height="50" relative="1" as="geometry">
                        <mxPoint x="210" y="247" as="sourcePoint"/>
                        <mxPoint x="270" y="247" as="targetPoint"/>
                    </mxGeometry>
                </mxCell>
                <mxCell id="3RkJlZiACJKLhcFHY2Bg-25" value="" style="endArrow=classic;html=1;fontSize=12;strokeColor=#000000;strokeWidth=1;" edge="1" parent="3RkJlZiACJKLhcFHY2Bg-1">
                    <mxGeometry width="50" height="50" relative="1" as="geometry">
                        <mxPoint x="330" y="270" as="sourcePoint"/>
                        <mxPoint x="430" y="280" as="targetPoint"/>
                        <Array as="points">
                            <mxPoint x="340" y="310"/>
                            <mxPoint x="420" y="310"/>
                        </Array>
                    </mxGeometry>
                </mxCell>
                <mxCell id="3RkJlZiACJKLhcFHY2Bg-26" value="" style="endArrow=none;html=1;fontSize=24;strokeColor=#82b366;strokeWidth=3;fillColor=#d5e8d4;" edge="1" parent="3RkJlZiACJKLhcFHY2Bg-1">
                    <mxGeometry width="50" height="50" relative="1" as="geometry">
                        <mxPoint x="510" y="290" as="sourcePoint"/>
                        <mxPoint x="630" y="290" as="targetPoint"/>
                    </mxGeometry>
                </mxCell>
                <mxCell id="3RkJlZiACJKLhcFHY2Bg-27" value="" style="endArrow=classic;html=1;fontSize=12;strokeColor=#000000;strokeWidth=1;" edge="1" parent="3RkJlZiACJKLhcFHY2Bg-1">
                    <mxGeometry width="50" height="50" relative="1" as="geometry">
                        <mxPoint x="440" y="280" as="sourcePoint"/>
                        <mxPoint x="530" y="300" as="targetPoint"/>
                        <Array as="points">
                            <mxPoint x="460" y="330"/>
                            <mxPoint x="520" y="330"/>
                        </Array>
                    </mxGeometry>
                </mxCell>
                <mxCell id="3RkJlZiACJKLhcFHY2Bg-28" value="If I am at &lt;b&gt;nums[0] = 2&lt;/b&gt; , which &lt;b&gt;furthest&lt;/b&gt; Index can I visit in a &lt;b&gt;single&lt;/b&gt; jump" style="text;html=1;strokeColor=#d6b656;fillColor=#fff2cc;align=center;verticalAlign=middle;whiteSpace=wrap;rounded=0;fontSize=12;opacity=50;" vertex="1" parent="3RkJlZiACJKLhcFHY2Bg-1">
                    <mxGeometry x="200" y="340" width="430" height="30" as="geometry"/>
                </mxCell>
                <mxCell id="3RkJlZiACJKLhcFHY2Bg-29" value="Current Index + Current Value = 0 + 2 = 2" style="rounded=0;whiteSpace=wrap;html=1;fontSize=12;opacity=50;fillColor=#f5f5f5;fontColor=#333333;strokeColor=#666666;" vertex="1" parent="3RkJlZiACJKLhcFHY2Bg-1">
                    <mxGeometry x="510" y="380" width="120" height="60" as="geometry"/>
                </mxCell>
                <mxCell id="3RkJlZiACJKLhcFHY2Bg-30" value="Left = 0" style="text;html=1;strokeColor=none;fillColor=none;align=center;verticalAlign=middle;whiteSpace=wrap;rounded=0;fontSize=12;opacity=50;" vertex="1" parent="3RkJlZiACJKLhcFHY2Bg-1">
                    <mxGeometry x="220" y="110" width="60" height="30" as="geometry"/>
                </mxCell>
                <mxCell id="3RkJlZiACJKLhcFHY2Bg-31" value="Right&amp;nbsp; = 0" style="text;html=1;strokeColor=none;fillColor=none;align=center;verticalAlign=middle;whiteSpace=wrap;rounded=0;fontSize=12;opacity=50;" vertex="1" parent="3RkJlZiACJKLhcFHY2Bg-1">
                    <mxGeometry x="220" y="90" width="60" height="30" as="geometry"/>
                </mxCell>
                <mxCell id="3RkJlZiACJKLhcFHY2Bg-32" value="If I am at index 0 ; I can go to any cell between index 1 and index 2 in single jump" style="text;html=1;strokeColor=#666666;fillColor=#f5f5f5;align=center;verticalAlign=middle;whiteSpace=wrap;rounded=0;fontSize=12;opacity=50;fontColor=#333333;" vertex="1" parent="3RkJlZiACJKLhcFHY2Bg-1">
                    <mxGeometry x="200" y="380" width="290" height="60" as="geometry"/>
                </mxCell>
                <mxCell id="3RkJlZiACJKLhcFHY2Bg-33" value="3" style="rounded=0;whiteSpace=wrap;html=1;fontSize=24;opacity=50;fillColor=#e1d5e7;strokeColor=#9673a6;" vertex="1" parent="3RkJlZiACJKLhcFHY2Bg-1">
                    <mxGeometry x="260" y="470" width="60" height="60" as="geometry"/>
                </mxCell>
                <mxCell id="3RkJlZiACJKLhcFHY2Bg-34" value="2" style="rounded=0;whiteSpace=wrap;html=1;fontSize=24;opacity=50;" vertex="1" parent="3RkJlZiACJKLhcFHY2Bg-1">
                    <mxGeometry x="200" y="470" width="60" height="60" as="geometry"/>
                </mxCell>
                <mxCell id="3RkJlZiACJKLhcFHY2Bg-35" value="1" style="rounded=0;whiteSpace=wrap;html=1;fontSize=24;opacity=50;fillColor=#e1d5e7;strokeColor=#9673a6;" vertex="1" parent="3RkJlZiACJKLhcFHY2Bg-1">
                    <mxGeometry x="320" y="470" width="60" height="60" as="geometry"/>
                </mxCell>
                <mxCell id="3RkJlZiACJKLhcFHY2Bg-36" value="1" style="rounded=0;whiteSpace=wrap;html=1;fontSize=24;opacity=50;fillColor=#dae8fc;strokeColor=#6c8ebf;" vertex="1" parent="3RkJlZiACJKLhcFHY2Bg-1">
                    <mxGeometry x="380" y="470" width="60" height="60" as="geometry"/>
                </mxCell>
                <mxCell id="3RkJlZiACJKLhcFHY2Bg-37" value="2" style="rounded=0;whiteSpace=wrap;html=1;fontSize=24;opacity=50;fillColor=#dae8fc;strokeColor=#6c8ebf;" vertex="1" parent="3RkJlZiACJKLhcFHY2Bg-1">
                    <mxGeometry x="440" y="470" width="60" height="60" as="geometry"/>
                </mxCell>
                <mxCell id="3RkJlZiACJKLhcFHY2Bg-38" value="2" style="rounded=0;whiteSpace=wrap;html=1;fontSize=24;opacity=50;fillColor=#d5e8d4;strokeColor=#82b366;" vertex="1" parent="3RkJlZiACJKLhcFHY2Bg-1">
                    <mxGeometry x="500" y="470" width="60" height="60" as="geometry"/>
                </mxCell>
                <mxCell id="3RkJlZiACJKLhcFHY2Bg-39" value="1" style="rounded=0;whiteSpace=wrap;html=1;fontSize=24;opacity=50;fillColor=#d5e8d4;strokeColor=#82b366;" vertex="1" parent="3RkJlZiACJKLhcFHY2Bg-1">
                    <mxGeometry x="560" y="470" width="60" height="60" as="geometry"/>
                </mxCell>
                <mxCell id="3RkJlZiACJKLhcFHY2Bg-40" value="0" style="rounded=0;whiteSpace=wrap;html=1;fontSize=15;opacity=50;" vertex="1" parent="3RkJlZiACJKLhcFHY2Bg-1">
                    <mxGeometry x="200" y="450" width="60" height="20" as="geometry"/>
                </mxCell>
                <mxCell id="3RkJlZiACJKLhcFHY2Bg-41" value="" style="rounded=0;whiteSpace=wrap;html=1;fontSize=24;opacity=50;" vertex="1" parent="3RkJlZiACJKLhcFHY2Bg-1">
                    <mxGeometry x="260" y="450" width="60" height="20" as="geometry"/>
                </mxCell>
                <mxCell id="3RkJlZiACJKLhcFHY2Bg-42" value="1" style="rounded=0;whiteSpace=wrap;html=1;fontSize=14;opacity=50;" vertex="1" parent="3RkJlZiACJKLhcFHY2Bg-1">
                    <mxGeometry x="260" y="450" width="60" height="20" as="geometry"/>
                </mxCell>
                <mxCell id="3RkJlZiACJKLhcFHY2Bg-43" value="2" style="rounded=0;whiteSpace=wrap;html=1;fontSize=14;opacity=50;" vertex="1" parent="3RkJlZiACJKLhcFHY2Bg-1">
                    <mxGeometry x="320" y="450" width="60" height="20" as="geometry"/>
                </mxCell>
                <mxCell id="3RkJlZiACJKLhcFHY2Bg-44" value="3" style="rounded=0;whiteSpace=wrap;html=1;fontSize=14;opacity=50;" vertex="1" parent="3RkJlZiACJKLhcFHY2Bg-1">
                    <mxGeometry x="380" y="450" width="60" height="20" as="geometry"/>
                </mxCell>
                <mxCell id="3RkJlZiACJKLhcFHY2Bg-45" value="4" style="rounded=0;whiteSpace=wrap;html=1;fontSize=14;opacity=50;" vertex="1" parent="3RkJlZiACJKLhcFHY2Bg-1">
                    <mxGeometry x="440" y="450" width="60" height="20" as="geometry"/>
                </mxCell>
                <mxCell id="3RkJlZiACJKLhcFHY2Bg-46" value="5" style="rounded=0;whiteSpace=wrap;html=1;fontSize=14;opacity=50;" vertex="1" parent="3RkJlZiACJKLhcFHY2Bg-1">
                    <mxGeometry x="500" y="450" width="60" height="20" as="geometry"/>
                </mxCell>
                <mxCell id="3RkJlZiACJKLhcFHY2Bg-47" value="6" style="rounded=0;whiteSpace=wrap;html=1;fontSize=14;opacity=50;" vertex="1" parent="3RkJlZiACJKLhcFHY2Bg-1">
                    <mxGeometry x="560" y="450" width="60" height="20" as="geometry"/>
                </mxCell>
                <mxCell id="3RkJlZiACJKLhcFHY2Bg-48" value="" style="endArrow=classic;html=1;fontSize=12;strokeColor=#000000;strokeWidth=1;exitX=0.5;exitY=1;exitDx=0;exitDy=0;entryX=0.75;entryY=1;entryDx=0;entryDy=0;" edge="1" parent="3RkJlZiACJKLhcFHY2Bg-1" source="3RkJlZiACJKLhcFHY2Bg-34" target="3RkJlZiACJKLhcFHY2Bg-33">
                    <mxGeometry width="50" height="50" relative="1" as="geometry">
                        <mxPoint x="230" y="545" as="sourcePoint"/>
                        <mxPoint x="300" y="540" as="targetPoint"/>
                        <Array as="points">
                            <mxPoint x="250" y="560"/>
                            <mxPoint x="280" y="560"/>
                        </Array>
                    </mxGeometry>
                </mxCell>
                <mxCell id="3RkJlZiACJKLhcFHY2Bg-49" value="small Jump" style="edgeLabel;html=1;align=center;verticalAlign=middle;resizable=0;points=[];fontSize=12;" vertex="1" connectable="0" parent="3RkJlZiACJKLhcFHY2Bg-48">
                    <mxGeometry x="-0.2122" y="3" relative="1" as="geometry">
                        <mxPoint as="offset"/>
                    </mxGeometry>
                </mxCell>
                <mxCell id="3RkJlZiACJKLhcFHY2Bg-50" value="" style="endArrow=classic;html=1;fontSize=12;strokeColor=#000000;strokeWidth=1;exitX=0.147;exitY=1.008;exitDx=0;exitDy=0;entryX=0.5;entryY=1;entryDx=0;entryDy=0;exitPerimeter=0;" edge="1" parent="3RkJlZiACJKLhcFHY2Bg-1" source="3RkJlZiACJKLhcFHY2Bg-34" target="3RkJlZiACJKLhcFHY2Bg-35">
                    <mxGeometry width="50" height="50" relative="1" as="geometry">
                        <mxPoint x="240" y="540" as="sourcePoint"/>
                        <mxPoint x="315" y="540" as="targetPoint"/>
                        <Array as="points">
                            <mxPoint x="240" y="580"/>
                            <mxPoint x="300" y="580"/>
                        </Array>
                    </mxGeometry>
                </mxCell>
                <mxCell id="3RkJlZiACJKLhcFHY2Bg-51" value="big Jump" style="edgeLabel;html=1;align=center;verticalAlign=middle;resizable=0;points=[];fontSize=12;" vertex="1" connectable="0" parent="3RkJlZiACJKLhcFHY2Bg-50">
                    <mxGeometry x="-0.2122" y="3" relative="1" as="geometry">
                        <mxPoint as="offset"/>
                    </mxGeometry>
                </mxCell>
                <mxCell id="3RkJlZiACJKLhcFHY2Bg-52" value="If I am at &lt;b&gt;any cell between index = 1 and index= 2&lt;/b&gt; , which &lt;b&gt;furthest&lt;/b&gt; Index can I visit in a &lt;b&gt;single&lt;/b&gt; jump" style="text;html=1;strokeColor=#d6b656;fillColor=#fff2cc;align=center;verticalAlign=middle;whiteSpace=wrap;rounded=0;fontSize=12;opacity=50;" vertex="1" parent="3RkJlZiACJKLhcFHY2Bg-1">
                    <mxGeometry x="199" y="680" width="430" height="30" as="geometry"/>
                </mxCell>
                <mxCell id="3RkJlZiACJKLhcFHY2Bg-55" value="3" style="rounded=0;whiteSpace=wrap;html=1;fontSize=24;opacity=50;fillColor=#e1d5e7;strokeColor=#9673a6;" vertex="1" parent="3RkJlZiACJKLhcFHY2Bg-1">
                    <mxGeometry x="259" y="750" width="60" height="60" as="geometry"/>
                </mxCell>
                <mxCell id="3RkJlZiACJKLhcFHY2Bg-56" value="2" style="rounded=0;whiteSpace=wrap;html=1;fontSize=24;opacity=50;" vertex="1" parent="3RkJlZiACJKLhcFHY2Bg-1">
                    <mxGeometry x="199" y="750" width="60" height="60" as="geometry"/>
                </mxCell>
                <mxCell id="3RkJlZiACJKLhcFHY2Bg-57" value="1" style="rounded=0;whiteSpace=wrap;html=1;fontSize=24;opacity=50;fillColor=#e1d5e7;strokeColor=#9673a6;" vertex="1" parent="3RkJlZiACJKLhcFHY2Bg-1">
                    <mxGeometry x="319" y="750" width="60" height="60" as="geometry"/>
                </mxCell>
                <mxCell id="3RkJlZiACJKLhcFHY2Bg-58" value="1" style="rounded=0;whiteSpace=wrap;html=1;fontSize=24;opacity=50;fillColor=#dae8fc;strokeColor=#6c8ebf;" vertex="1" parent="3RkJlZiACJKLhcFHY2Bg-1">
                    <mxGeometry x="379" y="750" width="60" height="60" as="geometry"/>
                </mxCell>
                <mxCell id="3RkJlZiACJKLhcFHY2Bg-59" value="2" style="rounded=0;whiteSpace=wrap;html=1;fontSize=24;opacity=50;fillColor=#dae8fc;strokeColor=#6c8ebf;" vertex="1" parent="3RkJlZiACJKLhcFHY2Bg-1">
                    <mxGeometry x="439" y="750" width="60" height="60" as="geometry"/>
                </mxCell>
                <mxCell id="3RkJlZiACJKLhcFHY2Bg-60" value="2" style="rounded=0;whiteSpace=wrap;html=1;fontSize=24;opacity=50;fillColor=#d5e8d4;strokeColor=#82b366;" vertex="1" parent="3RkJlZiACJKLhcFHY2Bg-1">
                    <mxGeometry x="499" y="750" width="60" height="60" as="geometry"/>
                </mxCell>
                <mxCell id="3RkJlZiACJKLhcFHY2Bg-61" value="1" style="rounded=0;whiteSpace=wrap;html=1;fontSize=24;opacity=50;fillColor=#d5e8d4;strokeColor=#82b366;" vertex="1" parent="3RkJlZiACJKLhcFHY2Bg-1">
                    <mxGeometry x="559" y="750" width="60" height="60" as="geometry"/>
                </mxCell>
                <mxCell id="3RkJlZiACJKLhcFHY2Bg-62" value="0" style="rounded=0;whiteSpace=wrap;html=1;fontSize=15;opacity=50;" vertex="1" parent="3RkJlZiACJKLhcFHY2Bg-1">
                    <mxGeometry x="199" y="730" width="60" height="20" as="geometry"/>
                </mxCell>
                <mxCell id="3RkJlZiACJKLhcFHY2Bg-63" value="" style="rounded=0;whiteSpace=wrap;html=1;fontSize=24;opacity=50;" vertex="1" parent="3RkJlZiACJKLhcFHY2Bg-1">
                    <mxGeometry x="259" y="730" width="60" height="20" as="geometry"/>
                </mxCell>
                <mxCell id="3RkJlZiACJKLhcFHY2Bg-64" value="1" style="rounded=0;whiteSpace=wrap;html=1;fontSize=14;opacity=50;" vertex="1" parent="3RkJlZiACJKLhcFHY2Bg-1">
                    <mxGeometry x="259" y="730" width="60" height="20" as="geometry"/>
                </mxCell>
                <mxCell id="3RkJlZiACJKLhcFHY2Bg-65" value="2" style="rounded=0;whiteSpace=wrap;html=1;fontSize=14;opacity=50;" vertex="1" parent="3RkJlZiACJKLhcFHY2Bg-1">
                    <mxGeometry x="319" y="730" width="60" height="20" as="geometry"/>
                </mxCell>
                <mxCell id="3RkJlZiACJKLhcFHY2Bg-66" value="3" style="rounded=0;whiteSpace=wrap;html=1;fontSize=14;opacity=50;" vertex="1" parent="3RkJlZiACJKLhcFHY2Bg-1">
                    <mxGeometry x="379" y="730" width="60" height="20" as="geometry"/>
                </mxCell>
                <mxCell id="3RkJlZiACJKLhcFHY2Bg-67" value="4" style="rounded=0;whiteSpace=wrap;html=1;fontSize=14;opacity=50;" vertex="1" parent="3RkJlZiACJKLhcFHY2Bg-1">
                    <mxGeometry x="439" y="730" width="60" height="20" as="geometry"/>
                </mxCell>
                <mxCell id="3RkJlZiACJKLhcFHY2Bg-68" value="5" style="rounded=0;whiteSpace=wrap;html=1;fontSize=14;opacity=50;" vertex="1" parent="3RkJlZiACJKLhcFHY2Bg-1">
                    <mxGeometry x="499" y="730" width="60" height="20" as="geometry"/>
                </mxCell>
                <mxCell id="3RkJlZiACJKLhcFHY2Bg-69" value="6" style="rounded=0;whiteSpace=wrap;html=1;fontSize=14;opacity=50;" vertex="1" parent="3RkJlZiACJKLhcFHY2Bg-1">
                    <mxGeometry x="559" y="730" width="60" height="20" as="geometry"/>
                </mxCell>
                <mxCell id="3RkJlZiACJKLhcFHY2Bg-74" value="If I am at index 1 ; furtherst cell i can visit = 4" style="text;html=1;strokeColor=#666666;fillColor=#f5f5f5;align=center;verticalAlign=middle;whiteSpace=wrap;rounded=0;fontSize=12;opacity=50;fontColor=#333333;" vertex="1" parent="3RkJlZiACJKLhcFHY2Bg-1">
                    <mxGeometry x="200" y="820" width="290" height="60" as="geometry"/>
                </mxCell>
                <mxCell id="3RkJlZiACJKLhcFHY2Bg-75" value="Current Index + Current Value =&amp;nbsp; 1+ 3 = 4" style="rounded=0;whiteSpace=wrap;html=1;fontSize=12;opacity=50;fillColor=#f5f5f5;fontColor=#333333;strokeColor=#666666;" vertex="1" parent="3RkJlZiACJKLhcFHY2Bg-1">
                    <mxGeometry x="499" y="820" width="120" height="60" as="geometry"/>
                </mxCell>
                <mxCell id="3RkJlZiACJKLhcFHY2Bg-76" value="If I am at index 2 ; furtherst cell i can visit = 3" style="text;html=1;strokeColor=#666666;fillColor=#f5f5f5;align=center;verticalAlign=middle;whiteSpace=wrap;rounded=0;fontSize=12;opacity=50;fontColor=#333333;" vertex="1" parent="3RkJlZiACJKLhcFHY2Bg-1">
                    <mxGeometry x="199" y="885" width="290" height="60" as="geometry"/>
                </mxCell>
                <mxCell id="3RkJlZiACJKLhcFHY2Bg-77" value="Current Index + Current Value =&amp;nbsp; 2+ 1 = 3" style="rounded=0;whiteSpace=wrap;html=1;fontSize=12;opacity=50;fillColor=#f5f5f5;fontColor=#333333;strokeColor=#666666;" vertex="1" parent="3RkJlZiACJKLhcFHY2Bg-1">
                    <mxGeometry x="498" y="884" width="120" height="60" as="geometry"/>
                </mxCell>
                <mxCell id="3RkJlZiACJKLhcFHY2Bg-78" value="If I am at index 1 or 2 ; furtherst cell i can visit = 4" style="text;html=1;strokeColor=#666666;fillColor=#f5f5f5;align=center;verticalAlign=middle;whiteSpace=wrap;rounded=0;fontSize=12;opacity=50;fontColor=#333333;" vertex="1" parent="3RkJlZiACJKLhcFHY2Bg-1">
                    <mxGeometry x="199" y="950" width="290" height="60" as="geometry"/>
                </mxCell>
                <mxCell id="3RkJlZiACJKLhcFHY2Bg-79" value="Math.max( 4,3)" style="rounded=0;whiteSpace=wrap;html=1;fontSize=12;opacity=50;fillColor=#f5f5f5;fontColor=#333333;strokeColor=#666666;" vertex="1" parent="3RkJlZiACJKLhcFHY2Bg-1">
                    <mxGeometry x="497" y="950" width="120" height="60" as="geometry"/>
                </mxCell>
                <mxCell id="3RkJlZiACJKLhcFHY2Bg-80" value="3" style="rounded=0;whiteSpace=wrap;html=1;fontSize=24;opacity=50;fillColor=#e1d5e7;strokeColor=#9673a6;" vertex="1" parent="3RkJlZiACJKLhcFHY2Bg-1">
                    <mxGeometry x="257" y="1040" width="60" height="60" as="geometry"/>
                </mxCell>
                <mxCell id="3RkJlZiACJKLhcFHY2Bg-81" value="2" style="rounded=0;whiteSpace=wrap;html=1;fontSize=24;opacity=50;" vertex="1" parent="3RkJlZiACJKLhcFHY2Bg-1">
                    <mxGeometry x="197" y="1040" width="60" height="60" as="geometry"/>
                </mxCell>
                <mxCell id="3RkJlZiACJKLhcFHY2Bg-82" value="1" style="rounded=0;whiteSpace=wrap;html=1;fontSize=24;opacity=50;fillColor=#e1d5e7;strokeColor=#9673a6;" vertex="1" parent="3RkJlZiACJKLhcFHY2Bg-1">
                    <mxGeometry x="317" y="1040" width="60" height="60" as="geometry"/>
                </mxCell>
                <mxCell id="3RkJlZiACJKLhcFHY2Bg-83" value="1" style="rounded=0;whiteSpace=wrap;html=1;fontSize=24;opacity=50;fillColor=#dae8fc;strokeColor=#6c8ebf;" vertex="1" parent="3RkJlZiACJKLhcFHY2Bg-1">
                    <mxGeometry x="377" y="1040" width="60" height="60" as="geometry"/>
                </mxCell>
                <mxCell id="3RkJlZiACJKLhcFHY2Bg-84" value="2" style="rounded=0;whiteSpace=wrap;html=1;fontSize=24;opacity=50;fillColor=#dae8fc;strokeColor=#6c8ebf;" vertex="1" parent="3RkJlZiACJKLhcFHY2Bg-1">
                    <mxGeometry x="437" y="1040" width="60" height="60" as="geometry"/>
                </mxCell>
                <mxCell id="3RkJlZiACJKLhcFHY2Bg-85" value="2" style="rounded=0;whiteSpace=wrap;html=1;fontSize=24;opacity=50;fillColor=#d5e8d4;strokeColor=#82b366;" vertex="1" parent="3RkJlZiACJKLhcFHY2Bg-1">
                    <mxGeometry x="497" y="1040" width="60" height="60" as="geometry"/>
                </mxCell>
                <mxCell id="3RkJlZiACJKLhcFHY2Bg-86" value="1" style="rounded=0;whiteSpace=wrap;html=1;fontSize=24;opacity=50;fillColor=#d5e8d4;strokeColor=#82b366;" vertex="1" parent="3RkJlZiACJKLhcFHY2Bg-1">
                    <mxGeometry x="557" y="1040" width="60" height="60" as="geometry"/>
                </mxCell>
                <mxCell id="3RkJlZiACJKLhcFHY2Bg-87" value="0" style="rounded=0;whiteSpace=wrap;html=1;fontSize=15;opacity=50;" vertex="1" parent="3RkJlZiACJKLhcFHY2Bg-1">
                    <mxGeometry x="197" y="1020" width="60" height="20" as="geometry"/>
                </mxCell>
                <mxCell id="3RkJlZiACJKLhcFHY2Bg-88" value="" style="rounded=0;whiteSpace=wrap;html=1;fontSize=24;opacity=50;" vertex="1" parent="3RkJlZiACJKLhcFHY2Bg-1">
                    <mxGeometry x="257" y="1020" width="60" height="20" as="geometry"/>
                </mxCell>
                <mxCell id="3RkJlZiACJKLhcFHY2Bg-89" value="1" style="rounded=0;whiteSpace=wrap;html=1;fontSize=14;opacity=50;" vertex="1" parent="3RkJlZiACJKLhcFHY2Bg-1">
                    <mxGeometry x="257" y="1020" width="60" height="20" as="geometry"/>
                </mxCell>
                <mxCell id="3RkJlZiACJKLhcFHY2Bg-90" value="2" style="rounded=0;whiteSpace=wrap;html=1;fontSize=14;opacity=50;" vertex="1" parent="3RkJlZiACJKLhcFHY2Bg-1">
                    <mxGeometry x="317" y="1020" width="60" height="20" as="geometry"/>
                </mxCell>
                <mxCell id="3RkJlZiACJKLhcFHY2Bg-91" value="3" style="rounded=0;whiteSpace=wrap;html=1;fontSize=14;opacity=50;" vertex="1" parent="3RkJlZiACJKLhcFHY2Bg-1">
                    <mxGeometry x="377" y="1020" width="60" height="20" as="geometry"/>
                </mxCell>
                <mxCell id="3RkJlZiACJKLhcFHY2Bg-92" value="4" style="rounded=0;whiteSpace=wrap;html=1;fontSize=14;opacity=50;" vertex="1" parent="3RkJlZiACJKLhcFHY2Bg-1">
                    <mxGeometry x="437" y="1020" width="60" height="20" as="geometry"/>
                </mxCell>
                <mxCell id="3RkJlZiACJKLhcFHY2Bg-93" value="5" style="rounded=0;whiteSpace=wrap;html=1;fontSize=14;opacity=50;" vertex="1" parent="3RkJlZiACJKLhcFHY2Bg-1">
                    <mxGeometry x="497" y="1020" width="60" height="20" as="geometry"/>
                </mxCell>
                <mxCell id="3RkJlZiACJKLhcFHY2Bg-94" value="6" style="rounded=0;whiteSpace=wrap;html=1;fontSize=14;opacity=50;" vertex="1" parent="3RkJlZiACJKLhcFHY2Bg-1">
                    <mxGeometry x="557" y="1020" width="60" height="20" as="geometry"/>
                </mxCell>
                <mxCell id="3RkJlZiACJKLhcFHY2Bg-95" value="" style="endArrow=classic;html=1;fontSize=12;strokeColor=#000000;strokeWidth=1;exitX=0.147;exitY=1.008;exitDx=0;exitDy=0;entryX=0.5;entryY=1;entryDx=0;entryDy=0;exitPerimeter=0;" edge="1" parent="3RkJlZiACJKLhcFHY2Bg-1" target="3RkJlZiACJKLhcFHY2Bg-84">
                    <mxGeometry width="50" height="50" relative="1" as="geometry">
                        <mxPoint x="297.81999999999994" y="1100.48" as="sourcePoint"/>
                        <mxPoint x="439" y="1100" as="targetPoint"/>
                        <Array as="points">
                            <mxPoint x="329" y="1150"/>
                            <mxPoint x="450" y="1150"/>
                        </Array>
                    </mxGeometry>
                </mxCell>
                <mxCell id="3RkJlZiACJKLhcFHY2Bg-96" value="big Jump" style="edgeLabel;html=1;align=center;verticalAlign=middle;resizable=0;points=[];fontSize=12;" vertex="1" connectable="0" parent="3RkJlZiACJKLhcFHY2Bg-95">
                    <mxGeometry x="-0.2122" y="3" relative="1" as="geometry">
                        <mxPoint as="offset"/>
                    </mxGeometry>
                </mxCell>
                <mxCell id="3RkJlZiACJKLhcFHY2Bg-97" value="" style="endArrow=classic;html=1;fontSize=12;strokeColor=#000000;strokeWidth=1;exitX=0.147;exitY=1.008;exitDx=0;exitDy=0;entryX=0.75;entryY=1;entryDx=0;entryDy=0;exitPerimeter=0;" edge="1" parent="3RkJlZiACJKLhcFHY2Bg-1" target="3RkJlZiACJKLhcFHY2Bg-83">
                    <mxGeometry width="50" height="50" relative="1" as="geometry">
                        <mxPoint x="339.81999999999994" y="1100.48" as="sourcePoint"/>
                        <mxPoint x="509" y="1100" as="targetPoint"/>
                        <Array as="points">
                            <mxPoint x="360" y="1130"/>
                            <mxPoint x="400" y="1130"/>
                        </Array>
                    </mxGeometry>
                </mxCell>
                <mxCell id="3RkJlZiACJKLhcFHY2Bg-98" value="smallest jump" style="edgeLabel;html=1;align=center;verticalAlign=middle;resizable=0;points=[];fontSize=12;" vertex="1" connectable="0" parent="3RkJlZiACJKLhcFHY2Bg-97">
                    <mxGeometry x="-0.2122" y="3" relative="1" as="geometry">
                        <mxPoint as="offset"/>
                    </mxGeometry>
                </mxCell>
                <mxCell id="3RkJlZiACJKLhcFHY2Bg-99" value="If I am at &lt;b&gt;any cell between index = 3 and index= 4&lt;/b&gt;, which &lt;b&gt;furthest&lt;/b&gt; Index can I visit in a &lt;b&gt;single&lt;/b&gt; jump" style="text;html=1;strokeColor=#d6b656;fillColor=#fff2cc;align=center;verticalAlign=middle;whiteSpace=wrap;rounded=0;fontSize=12;opacity=50;" vertex="1" parent="3RkJlZiACJKLhcFHY2Bg-1">
                    <mxGeometry x="207" y="1250" width="430" height="30" as="geometry"/>
                </mxCell>
                <mxCell id="3RkJlZiACJKLhcFHY2Bg-102" value="3" style="rounded=0;whiteSpace=wrap;html=1;fontSize=24;opacity=50;fillColor=#e1d5e7;strokeColor=#9673a6;" vertex="1" parent="3RkJlZiACJKLhcFHY2Bg-1">
                    <mxGeometry x="266" y="1310" width="60" height="60" as="geometry"/>
                </mxCell>
                <mxCell id="3RkJlZiACJKLhcFHY2Bg-103" value="2" style="rounded=0;whiteSpace=wrap;html=1;fontSize=24;opacity=50;" vertex="1" parent="3RkJlZiACJKLhcFHY2Bg-1">
                    <mxGeometry x="206" y="1310" width="60" height="60" as="geometry"/>
                </mxCell>
                <mxCell id="3RkJlZiACJKLhcFHY2Bg-104" value="1" style="rounded=0;whiteSpace=wrap;html=1;fontSize=24;opacity=50;fillColor=#e1d5e7;strokeColor=#9673a6;" vertex="1" parent="3RkJlZiACJKLhcFHY2Bg-1">
                    <mxGeometry x="326" y="1310" width="60" height="60" as="geometry"/>
                </mxCell>
                <mxCell id="3RkJlZiACJKLhcFHY2Bg-105" value="1" style="rounded=0;whiteSpace=wrap;html=1;fontSize=24;opacity=50;fillColor=#dae8fc;strokeColor=#6c8ebf;" vertex="1" parent="3RkJlZiACJKLhcFHY2Bg-1">
                    <mxGeometry x="386" y="1310" width="60" height="60" as="geometry"/>
                </mxCell>
                <mxCell id="3RkJlZiACJKLhcFHY2Bg-106" value="2" style="rounded=0;whiteSpace=wrap;html=1;fontSize=24;opacity=50;fillColor=#dae8fc;strokeColor=#6c8ebf;" vertex="1" parent="3RkJlZiACJKLhcFHY2Bg-1">
                    <mxGeometry x="446" y="1310" width="60" height="60" as="geometry"/>
                </mxCell>
                <mxCell id="3RkJlZiACJKLhcFHY2Bg-107" value="2" style="rounded=0;whiteSpace=wrap;html=1;fontSize=24;opacity=50;fillColor=#d5e8d4;strokeColor=#82b366;" vertex="1" parent="3RkJlZiACJKLhcFHY2Bg-1">
                    <mxGeometry x="506" y="1310" width="60" height="60" as="geometry"/>
                </mxCell>
                <mxCell id="3RkJlZiACJKLhcFHY2Bg-108" value="1" style="rounded=0;whiteSpace=wrap;html=1;fontSize=24;opacity=50;fillColor=#d5e8d4;strokeColor=#82b366;" vertex="1" parent="3RkJlZiACJKLhcFHY2Bg-1">
                    <mxGeometry x="566" y="1310" width="60" height="60" as="geometry"/>
                </mxCell>
                <mxCell id="3RkJlZiACJKLhcFHY2Bg-109" value="0" style="rounded=0;whiteSpace=wrap;html=1;fontSize=15;opacity=50;" vertex="1" parent="3RkJlZiACJKLhcFHY2Bg-1">
                    <mxGeometry x="206" y="1290" width="60" height="20" as="geometry"/>
                </mxCell>
                <mxCell id="3RkJlZiACJKLhcFHY2Bg-110" value="" style="rounded=0;whiteSpace=wrap;html=1;fontSize=24;opacity=50;" vertex="1" parent="3RkJlZiACJKLhcFHY2Bg-1">
                    <mxGeometry x="266" y="1290" width="60" height="20" as="geometry"/>
                </mxCell>
                <mxCell id="3RkJlZiACJKLhcFHY2Bg-111" value="1" style="rounded=0;whiteSpace=wrap;html=1;fontSize=14;opacity=50;" vertex="1" parent="3RkJlZiACJKLhcFHY2Bg-1">
                    <mxGeometry x="266" y="1290" width="60" height="20" as="geometry"/>
                </mxCell>
                <mxCell id="3RkJlZiACJKLhcFHY2Bg-112" value="2" style="rounded=0;whiteSpace=wrap;html=1;fontSize=14;opacity=50;" vertex="1" parent="3RkJlZiACJKLhcFHY2Bg-1">
                    <mxGeometry x="326" y="1290" width="60" height="20" as="geometry"/>
                </mxCell>
                <mxCell id="3RkJlZiACJKLhcFHY2Bg-113" value="3" style="rounded=0;whiteSpace=wrap;html=1;fontSize=14;opacity=50;" vertex="1" parent="3RkJlZiACJKLhcFHY2Bg-1">
                    <mxGeometry x="386" y="1290" width="60" height="20" as="geometry"/>
                </mxCell>
                <mxCell id="3RkJlZiACJKLhcFHY2Bg-114" value="4" style="rounded=0;whiteSpace=wrap;html=1;fontSize=14;opacity=50;" vertex="1" parent="3RkJlZiACJKLhcFHY2Bg-1">
                    <mxGeometry x="446" y="1290" width="60" height="20" as="geometry"/>
                </mxCell>
                <mxCell id="3RkJlZiACJKLhcFHY2Bg-115" value="5" style="rounded=0;whiteSpace=wrap;html=1;fontSize=14;opacity=50;" vertex="1" parent="3RkJlZiACJKLhcFHY2Bg-1">
                    <mxGeometry x="506" y="1290" width="60" height="20" as="geometry"/>
                </mxCell>
                <mxCell id="3RkJlZiACJKLhcFHY2Bg-116" value="6" style="rounded=0;whiteSpace=wrap;html=1;fontSize=14;opacity=50;" vertex="1" parent="3RkJlZiACJKLhcFHY2Bg-1">
                    <mxGeometry x="566" y="1290" width="60" height="20" as="geometry"/>
                </mxCell>
                <mxCell id="3RkJlZiACJKLhcFHY2Bg-117" value="If I am at index 3 ; furtherst cell i can visit = 4" style="text;html=1;strokeColor=#666666;fillColor=#f5f5f5;align=center;verticalAlign=middle;whiteSpace=wrap;rounded=0;fontSize=12;opacity=50;fontColor=#333333;" vertex="1" parent="3RkJlZiACJKLhcFHY2Bg-1">
                    <mxGeometry x="207" y="1380" width="290" height="60" as="geometry"/>
                </mxCell>
                <mxCell id="3RkJlZiACJKLhcFHY2Bg-118" value="Current Index + Current Value =&amp;nbsp; 1+ 3 = 4" style="rounded=0;whiteSpace=wrap;html=1;fontSize=12;opacity=50;fillColor=#f5f5f5;fontColor=#333333;strokeColor=#666666;" vertex="1" parent="3RkJlZiACJKLhcFHY2Bg-1">
                    <mxGeometry x="506" y="1380" width="120" height="60" as="geometry"/>
                </mxCell>
                <mxCell id="3RkJlZiACJKLhcFHY2Bg-119" value="If I am at index 4 ; furtherst cell i can visit = 6" style="text;html=1;strokeColor=#666666;fillColor=#f5f5f5;align=center;verticalAlign=middle;whiteSpace=wrap;rounded=0;fontSize=12;opacity=50;fontColor=#333333;" vertex="1" parent="3RkJlZiACJKLhcFHY2Bg-1">
                    <mxGeometry x="206" y="1445" width="290" height="60" as="geometry"/>
                </mxCell>
                <mxCell id="3RkJlZiACJKLhcFHY2Bg-120" value="Current Index + Current Value =&amp;nbsp; 4+ 2 = 6" style="rounded=0;whiteSpace=wrap;html=1;fontSize=12;opacity=50;fillColor=#f5f5f5;fontColor=#333333;strokeColor=#666666;" vertex="1" parent="3RkJlZiACJKLhcFHY2Bg-1">
                    <mxGeometry x="505" y="1444" width="120" height="60" as="geometry"/>
                </mxCell>
                <mxCell id="3RkJlZiACJKLhcFHY2Bg-121" value="If I am at index 3 or 6 ; furtherst cell i can visit = 6" style="text;html=1;strokeColor=#666666;fillColor=#f5f5f5;align=center;verticalAlign=middle;whiteSpace=wrap;rounded=0;fontSize=12;opacity=50;fontColor=#333333;" vertex="1" parent="3RkJlZiACJKLhcFHY2Bg-1">
                    <mxGeometry x="206" y="1510" width="290" height="60" as="geometry"/>
                </mxCell>
                <mxCell id="3RkJlZiACJKLhcFHY2Bg-122" value="Math.max( 4,6)" style="rounded=0;whiteSpace=wrap;html=1;fontSize=12;opacity=50;fillColor=#f5f5f5;fontColor=#333333;strokeColor=#666666;" vertex="1" parent="3RkJlZiACJKLhcFHY2Bg-1">
                    <mxGeometry x="504" y="1510" width="120" height="60" as="geometry"/>
                </mxCell>
                <mxCell id="3RkJlZiACJKLhcFHY2Bg-123" value="3" style="rounded=0;whiteSpace=wrap;html=1;fontSize=24;opacity=50;fillColor=#e1d5e7;strokeColor=#9673a6;" vertex="1" parent="3RkJlZiACJKLhcFHY2Bg-1">
                    <mxGeometry x="264" y="1600" width="60" height="60" as="geometry"/>
                </mxCell>
                <mxCell id="3RkJlZiACJKLhcFHY2Bg-124" value="2" style="rounded=0;whiteSpace=wrap;html=1;fontSize=24;opacity=50;" vertex="1" parent="3RkJlZiACJKLhcFHY2Bg-1">
                    <mxGeometry x="204" y="1600" width="60" height="60" as="geometry"/>
                </mxCell>
                <mxCell id="3RkJlZiACJKLhcFHY2Bg-125" value="1" style="rounded=0;whiteSpace=wrap;html=1;fontSize=24;opacity=50;fillColor=#e1d5e7;strokeColor=#9673a6;" vertex="1" parent="3RkJlZiACJKLhcFHY2Bg-1">
                    <mxGeometry x="324" y="1600" width="60" height="60" as="geometry"/>
                </mxCell>
                <mxCell id="3RkJlZiACJKLhcFHY2Bg-126" value="1" style="rounded=0;whiteSpace=wrap;html=1;fontSize=24;opacity=50;fillColor=#dae8fc;strokeColor=#6c8ebf;" vertex="1" parent="3RkJlZiACJKLhcFHY2Bg-1">
                    <mxGeometry x="384" y="1600" width="60" height="60" as="geometry"/>
                </mxCell>
                <mxCell id="3RkJlZiACJKLhcFHY2Bg-127" value="2" style="rounded=0;whiteSpace=wrap;html=1;fontSize=24;opacity=50;fillColor=#dae8fc;strokeColor=#6c8ebf;" vertex="1" parent="3RkJlZiACJKLhcFHY2Bg-1">
                    <mxGeometry x="444" y="1600" width="60" height="60" as="geometry"/>
                </mxCell>
                <mxCell id="3RkJlZiACJKLhcFHY2Bg-128" value="2" style="rounded=0;whiteSpace=wrap;html=1;fontSize=24;opacity=50;fillColor=#d5e8d4;strokeColor=#82b366;" vertex="1" parent="3RkJlZiACJKLhcFHY2Bg-1">
                    <mxGeometry x="504" y="1600" width="60" height="60" as="geometry"/>
                </mxCell>
                <mxCell id="3RkJlZiACJKLhcFHY2Bg-129" value="1" style="rounded=0;whiteSpace=wrap;html=1;fontSize=24;opacity=50;fillColor=#d5e8d4;strokeColor=#82b366;" vertex="1" parent="3RkJlZiACJKLhcFHY2Bg-1">
                    <mxGeometry x="564" y="1600" width="60" height="60" as="geometry"/>
                </mxCell>
                <mxCell id="3RkJlZiACJKLhcFHY2Bg-130" value="0" style="rounded=0;whiteSpace=wrap;html=1;fontSize=15;opacity=50;" vertex="1" parent="3RkJlZiACJKLhcFHY2Bg-1">
                    <mxGeometry x="204" y="1580" width="60" height="20" as="geometry"/>
                </mxCell>
                <mxCell id="3RkJlZiACJKLhcFHY2Bg-131" value="" style="rounded=0;whiteSpace=wrap;html=1;fontSize=24;opacity=50;" vertex="1" parent="3RkJlZiACJKLhcFHY2Bg-1">
                    <mxGeometry x="264" y="1580" width="60" height="20" as="geometry"/>
                </mxCell>
                <mxCell id="3RkJlZiACJKLhcFHY2Bg-132" value="1" style="rounded=0;whiteSpace=wrap;html=1;fontSize=14;opacity=50;" vertex="1" parent="3RkJlZiACJKLhcFHY2Bg-1">
                    <mxGeometry x="264" y="1580" width="60" height="20" as="geometry"/>
                </mxCell>
                <mxCell id="3RkJlZiACJKLhcFHY2Bg-133" value="2" style="rounded=0;whiteSpace=wrap;html=1;fontSize=14;opacity=50;" vertex="1" parent="3RkJlZiACJKLhcFHY2Bg-1">
                    <mxGeometry x="324" y="1580" width="60" height="20" as="geometry"/>
                </mxCell>
                <mxCell id="3RkJlZiACJKLhcFHY2Bg-134" value="3" style="rounded=0;whiteSpace=wrap;html=1;fontSize=14;opacity=50;" vertex="1" parent="3RkJlZiACJKLhcFHY2Bg-1">
                    <mxGeometry x="384" y="1580" width="60" height="20" as="geometry"/>
                </mxCell>
                <mxCell id="3RkJlZiACJKLhcFHY2Bg-135" value="4" style="rounded=0;whiteSpace=wrap;html=1;fontSize=14;opacity=50;" vertex="1" parent="3RkJlZiACJKLhcFHY2Bg-1">
                    <mxGeometry x="444" y="1580" width="60" height="20" as="geometry"/>
                </mxCell>
                <mxCell id="3RkJlZiACJKLhcFHY2Bg-136" value="5" style="rounded=0;whiteSpace=wrap;html=1;fontSize=14;opacity=50;" vertex="1" parent="3RkJlZiACJKLhcFHY2Bg-1">
                    <mxGeometry x="504" y="1580" width="60" height="20" as="geometry"/>
                </mxCell>
                <mxCell id="3RkJlZiACJKLhcFHY2Bg-137" value="6" style="rounded=0;whiteSpace=wrap;html=1;fontSize=14;opacity=50;" vertex="1" parent="3RkJlZiACJKLhcFHY2Bg-1">
                    <mxGeometry x="564" y="1580" width="60" height="20" as="geometry"/>
                </mxCell>
                <mxCell id="3RkJlZiACJKLhcFHY2Bg-138" value="" style="endArrow=classic;html=1;fontSize=12;strokeColor=#000000;strokeWidth=1;exitX=0.25;exitY=1;exitDx=0;exitDy=0;entryX=0.5;entryY=1;entryDx=0;entryDy=0;" edge="1" parent="3RkJlZiACJKLhcFHY2Bg-1" source="3RkJlZiACJKLhcFHY2Bg-127">
                    <mxGeometry width="50" height="50" relative="1" as="geometry">
                        <mxPoint x="426.82000000000016" y="1660.48" as="sourcePoint"/>
                        <mxPoint x="596" y="1660" as="targetPoint"/>
                        <Array as="points">
                            <mxPoint x="490" y="1730"/>
                            <mxPoint x="570" y="1730"/>
                        </Array>
                    </mxGeometry>
                </mxCell>
                <mxCell id="3RkJlZiACJKLhcFHY2Bg-139" value="big Jump" style="edgeLabel;html=1;align=center;verticalAlign=middle;resizable=0;points=[];fontSize=12;" vertex="1" connectable="0" parent="3RkJlZiACJKLhcFHY2Bg-138">
                    <mxGeometry x="-0.2122" y="3" relative="1" as="geometry">
                        <mxPoint as="offset"/>
                    </mxGeometry>
                </mxCell>
                <mxCell id="3RkJlZiACJKLhcFHY2Bg-140" value="" style="endArrow=classic;html=1;fontSize=12;strokeColor=#000000;strokeWidth=1;exitX=0.147;exitY=1.008;exitDx=0;exitDy=0;entryX=0.75;entryY=1;entryDx=0;entryDy=0;exitPerimeter=0;" edge="1" parent="3RkJlZiACJKLhcFHY2Bg-1">
                    <mxGeometry width="50" height="50" relative="1" as="geometry">
                        <mxPoint x="466.81999999999994" y="1660.48" as="sourcePoint"/>
                        <mxPoint x="549" y="1660" as="targetPoint"/>
                        <Array as="points">
                            <mxPoint x="487" y="1690"/>
                            <mxPoint x="527" y="1690"/>
                        </Array>
                    </mxGeometry>
                </mxCell>
                <mxCell id="3RkJlZiACJKLhcFHY2Bg-141" value="smallest jump" style="edgeLabel;html=1;align=center;verticalAlign=middle;resizable=0;points=[];fontSize=12;" vertex="1" connectable="0" parent="3RkJlZiACJKLhcFHY2Bg-140">
                    <mxGeometry x="-0.2122" y="3" relative="1" as="geometry">
                        <mxPoint as="offset"/>
                    </mxGeometry>
                </mxCell>
            </root>
        </mxGraphModel>
    </diagram>
</mxfile>